<svg width="312" height="309" viewBox="0 0 312 309" fill="none" xmlns="http://www.w3.org/2000/svg">
<path d="M229.349 159.062C258.101 194.486 260.211 246.74 257.796 244.283C248.085 234.407 220.826 204.506 197.635 176.351C176.161 150.281 147.023 120.75 165.364 126.885C174.196 120.065 195.066 125.248 229.349 159.062Z" fill="#125D60"/>
<path d="M206.024 183.806C235.106 221.719 261.534 243.321 258.278 244.447C248.689 247.764 198.61 229.19 182.153 209.369C160.261 189.683 140.29 125.647 141.25 111C166.588 138.309 173.835 148.156 206.024 183.806Z" fill="#40BB9F"/>
<path d="M103.488 134.931C71.3789 102.52 64.1188 50.7294 66.7651 52.9356C77.4035 61.8047 107.482 88.8683 133.34 114.596C157.283 138.417 189.194 164.927 170.337 160.634C162.222 168.292 140.943 165.195 103.488 134.931Z" fill="#125D60"/>
<path d="M124.255 108.005C91.5716 73.1496 63.1397 54.2628 66.2685 52.8206C75.4831 48.573 127.152 62.111 145.486 80.2099C169.214 97.6377 195.411 159.389 195.902 174.059C167.991 149.386 159.808 140.303 124.255 108.005Z" fill="#40BB9F"/>
<path d="M85.3786 173.722C39.0565 172.165 -2.4191 138.963 1.07428 138.748C15.1182 137.883 56.2114 136.905 93.2542 137.883C127.553 138.788 169.615 136.123 152.689 146.099C152.033 157.416 134.152 169.966 85.3786 173.722Z" fill="#125D60"/>
<path d="M81.947 139.348C33.4963 136.386 -0.678727 142.256 0.627256 139.009C4.47341 129.446 52.0863 103.421 78.2517 104.009C107.934 100.34 170.346 127.697 180.938 138.193C143.113 139.425 130.734 138.421 81.947 139.348Z" fill="#40BB9F"/>
<path d="M203.726 223.526C202.212 269.85 169.049 311.356 168.83 307.863C167.952 293.82 166.936 252.728 167.88 215.684C168.754 181.384 166.05 139.325 176.041 156.242C187.359 156.887 199.925 174.756 203.726 223.526Z" fill="#125D60"/>
<path d="M169.356 226.99C166.438 275.443 172.34 309.613 169.092 308.31C159.525 304.472 133.456 256.883 134.02 230.718C130.324 201.038 157.623 138.601 168.109 128C169.376 165.824 168.383 178.204 169.356 226.99Z" fill="#40BB9F"/>
<path d="M136.144 222C102.145 253.5 49.3145 259.112 51.6443 256.5C61.0107 246 89.5108 216.38 116.511 191C141.511 167.5 169.511 136 164.511 155C172.011 163.5 168.144 185 136.144 222Z" fill="#125D60"/>
<path d="M109.511 200C73.0107 232 52.8687 260.226 51.5106 257C47.5111 247.5 63.0117 195.5 82.0108 177.5C100.512 154 164.099 129.5 179.011 129.5C153.011 157 143.511 165 109.511 200Z" fill="#40BB9F"/>
<path d="M270.986 54C346.986 143 302.986 173 241.986 191.5C178.985 194.5 154.491 162 126.992 122.5C98.9913 84.5 133.681 0 171.486 0C212.487 0 246.457 24.908 270.986 54Z" fill="#F13B65"/>
<path d="M265.986 69C290.486 99.5 316.487 147.5 280.486 153.5C235.486 151.5 186.486 104.5 170.987 73C156.986 48 143.85 13 176.987 13C211.487 14.5 244.486 43.5 265.986 69Z" fill="#D9D9D9" fill-opacity="0.6"/>
<path d="M269.494 66.1818L269.461 66.1402L269.426 66.0993C258.51 53.1521 244.601 39.2236 228.934 28.3078C213.3 17.4148 195.601 9.30507 177.183 8.50425L177.085 8.5H176.987C167.974 8.5 161.092 10.8884 156.713 15.8978C152.385 20.8488 151.332 27.4241 151.823 33.9621C152.793 46.8688 159.996 62.569 167.003 75.0951C175.126 91.5452 191.701 111.608 211.853 127.819C232.01 144.033 256.419 156.935 280.287 157.996L280.759 158.017L281.226 157.939C291.388 156.245 298.103 151.329 301.053 143.672C303.834 136.453 302.866 127.753 300.227 119.122C294.916 101.746 281.872 81.5908 269.494 66.1818Z" fill="#D9AE07" stroke="#9E7F2F" stroke-width="9"/>
<path d="M227.181 83.9904C227.452 87.0861 229.488 92.3572 234.922 95.5919C240.357 98.8266 248.636 96.5966 249.795 93.4239C250.955 90.2513 246.022 87.4386 240.588 84.2038C233.563 83.1619 231.192 82.3596 227.181 83.9904Z" fill="#EAA02A"/>
<ellipse cx="10.9187" cy="2.82299" rx="10.9187" ry="2.82299" transform="matrix(-0.859315 -0.511447 0.343214 -0.939257 245.803 97.6516)" fill="#9E7F2F"/>
<path d="M274.292 113.332C273.853 116.425 274.642 122.053 279.218 126.473C283.794 130.893 292.396 130.62 294.252 127.783C296.108 124.945 291.927 121.054 287.35 116.635C280.72 113.994 278.585 112.662 274.292 113.332Z" fill="#EAA02A"/>
<ellipse cx="10.9834" cy="2.83378" rx="10.9834" ry="2.83378" transform="matrix(-0.719304 -0.694695 0.547394 -0.836875 289.385 130.999)" fill="#9E7F2F"/>
<path d="M263.325 126.224C262.507 129.626 262.878 135.826 267.797 140.714C272.717 145.602 282.804 145.343 285.253 142.228C287.703 139.113 283.194 134.809 278.274 129.922C270.779 126.983 268.412 125.506 263.325 126.224Z" fill="#EAA02A"/>
<ellipse cx="11.9718" cy="3.31176" rx="11.9718" ry="3.31176" transform="matrix(-0.709377 -0.704829 0.618093 -0.786105 279.247 145.746)" fill="#9E7F2F"/>
<path d="M178.048 45.0313C179.096 42.0147 179.195 36.5929 174.77 32.5058C170.346 28.4187 160.51 29.0534 157.895 31.8839C155.281 34.7145 159.349 38.3058 163.774 42.3929C170.851 44.6668 173.044 45.8662 178.048 45.0313Z" fill="#EAA02A"/>
<ellipse cx="169.456" cy="37.978" rx="10.3987" ry="3.22036" transform="rotate(42.7286 169.456 37.978)" fill="#9E7F2F"/>
<path d="M248.154 103.275C247.461 106.639 248.013 112.733 252.958 117.451C257.904 122.168 267.728 121.726 270.02 118.615C272.312 115.504 267.785 111.353 262.839 106.635C255.443 103.883 253.09 102.474 248.154 103.275Z" fill="#EAA02A"/>
<ellipse cx="11.7992" cy="3.22929" rx="11.7992" ry="3.22929" transform="matrix(-0.723548 -0.690275 0.593108 -0.805123 264.272 122.188)" fill="#9E7F2F"/>
<path d="M216.973 94.2993C213.87 93.9355 208.263 94.8621 203.957 99.5453C199.65 104.229 200.134 112.821 203.016 114.607C205.898 116.393 209.685 112.117 213.992 107.434C216.469 100.741 217.748 98.5744 216.973 94.2993Z" fill="#EAA02A"/>
<ellipse cx="10.9834" cy="2.83378" rx="10.9834" ry="2.83378" transform="matrix(0.676857 -0.736115 0.85004 0.526719 199.681 109.82)" fill="#9E7F2F"/>
<path d="M197.592 67.7042C196.578 64.1946 193.036 58.6294 186.033 56.3071C179.03 53.9848 169.982 58.7256 169.362 62.6978C168.743 66.67 175.07 68.6354 182.074 70.9577C190.415 70.3287 193.332 70.6377 197.592 67.7042Z" fill="#EAA02A"/>
<ellipse cx="12.7376" cy="3.35987" rx="12.7376" ry="3.35987" transform="matrix(0.949175 0.314749 -0.154131 0.98805 173.012 56.7656)" fill="#9E7F2F"/>
<path d="M189.339 39.5739C191.542 37.262 193.877 32.3679 191.542 26.8155C189.207 21.2631 179.991 17.7681 176.439 19.262C172.887 20.7559 175.104 25.7097 177.439 31.262C182.939 36.262 184.439 38.262 189.339 39.5739Z" fill="#EAA02A"/>
<ellipse cx="184.439" cy="29.596" rx="10.3987" ry="3.22036" transform="rotate(67.1891 184.439 29.596)" fill="#9E7F2F"/>
<path d="M248.504 75.8581C249.163 78.8948 251.847 83.867 257.647 86.3902C263.447 88.9134 271.378 85.6566 272.128 82.363C272.877 79.0695 267.63 76.9015 261.83 74.3784C254.73 74.2311 252.277 73.7343 248.504 75.8581Z" fill="#EAA02A"/>
<ellipse cx="10.9187" cy="2.82299" rx="10.9187" ry="2.82299" transform="matrix(-0.916977 -0.39894 0.221965 -0.975055 268.7 87.0606)" fill="#9E7F2F"/>
<path d="M219.631 103.368C217.996 106.029 216.478 111.506 218.915 117.383C221.352 123.26 229.35 126.436 232.183 124.573C235.016 122.709 232.73 117.475 230.293 111.598C225.264 106.535 223.836 104.463 219.631 103.368Z" fill="#EAA02A"/>
<ellipse cx="10.9834" cy="2.83378" rx="10.9834" ry="2.83378" transform="matrix(-0.383071 -0.923719 0.835438 -0.549585 226.438 125.584)" fill="#9E7F2F"/>
<path d="M210.533 92.3429C209.77 89.0593 206.784 83.6927 200.459 80.9969C194.134 78.301 185.588 81.8761 184.826 85.4466C184.064 89.017 189.786 91.3317 196.111 94.0275C203.809 94.143 206.476 94.6656 210.533 92.3429Z" fill="#EAA02A"/>
<ellipse cx="11.8701" cy="3.05112" rx="11.8701" ry="3.05112" transform="matrix(0.919933 0.392074 -0.208636 0.977993 188.468 80.3394)" fill="#9E7F2F"/>
<path d="M236.158 68.0179C239.24 67.1827 243.774 64.2076 244.655 58.2489C245.536 52.2902 239.466 44.5246 235.654 43.9611C231.842 43.3976 231.17 48.7828 230.289 54.7416C232.401 61.8683 232.648 64.3561 236.158 68.0179Z" fill="#EAA02A"/>
<ellipse cx="237.139" cy="56.945" rx="10.3987" ry="3.22036" transform="rotate(98.4086 237.139 56.945)" fill="#9E7F2F"/>
<path d="M262.181 97.4447C262.452 100.54 264.488 105.812 269.922 109.046C275.357 112.281 283.636 110.051 284.795 106.878C285.955 103.706 281.022 100.893 275.588 97.6582C268.563 96.6163 266.192 95.814 262.181 97.4447Z" fill="#EAA02A"/>
<ellipse cx="10.9187" cy="2.82299" rx="10.9187" ry="2.82299" transform="matrix(-0.859315 -0.511447 0.343214 -0.939257 280.803 111.106)" fill="#9E7F2F"/>
<path d="M241.947 117.043C240.666 119.892 239.861 125.518 243.031 131.035C246.2 136.552 254.539 138.678 257.11 136.467C259.681 134.256 256.744 129.358 253.575 123.841C247.939 119.464 246.257 117.591 241.947 117.043Z" fill="#EAA02A"/>
<ellipse cx="10.9834" cy="2.83378" rx="10.9834" ry="2.83378" transform="matrix(-0.49815 -0.867091 0.758223 -0.651995 251.542 138.206)" fill="#9E7F2F"/>
<path d="M211.358 64.2974C211.175 60.4675 208.947 53.7872 202.482 49.2639C196.017 44.7406 185.827 46.6417 184.264 50.4212C182.701 54.2007 188.574 58.1548 195.039 62.6781C203.545 64.6689 206.395 65.8943 211.358 64.2974Z" fill="#EAA02A"/>
<ellipse cx="13.6218" cy="3.41821" rx="13.6218" ry="3.41821" transform="matrix(0.819375 0.573258 -0.3822 0.92408 189.328 45.6326)" fill="#9E7F2F"/>
<path d="M214.339 49.5739C216.542 47.262 218.877 42.3679 216.542 36.8155C214.207 31.2631 204.991 27.7681 201.439 29.262C197.887 30.7559 200.104 35.7097 202.439 41.262C207.939 46.262 209.439 48.262 214.339 49.5739Z" fill="#EAA02A"/>
<ellipse cx="209.439" cy="39.596" rx="10.3987" ry="3.22036" transform="rotate(67.1891 209.439 39.596)" fill="#9E7F2F"/>
<path d="M227.181 83.9904C227.452 87.0861 229.488 92.3572 234.922 95.5919C240.357 98.8266 248.636 96.5966 249.795 93.4239C250.955 90.2513 246.022 87.4386 240.588 84.2038C233.563 83.1619 231.192 82.3596 227.181 83.9904Z" fill="#EAA02A"/>
<ellipse cx="10.9187" cy="2.82299" rx="10.9187" ry="2.82299" transform="matrix(-0.859315 -0.511447 0.343214 -0.939257 245.803 97.6516)" fill="#9E7F2F"/>
<path d="M226.056 86.6281C224.775 89.4769 223.97 95.103 227.14 100.62C230.309 106.136 238.648 108.262 241.219 106.052C243.79 103.841 240.853 98.9423 237.684 93.4257C232.048 89.0484 230.366 87.1758 226.056 86.6281Z" fill="#EAA02A"/>
<ellipse cx="10.9834" cy="2.83378" rx="10.9834" ry="2.83378" transform="matrix(-0.49815 -0.867091 0.758223 -0.651995 235.65 107.79)" fill="#9E7F2F"/>
<path d="M226.673 87.2818C226.49 83.4519 224.263 76.7716 217.797 72.2483C211.332 67.725 201.143 69.6261 199.58 73.4056C198.016 77.1851 203.89 81.1392 210.355 85.6625C218.861 87.6533 221.71 88.8787 226.673 87.2818Z" fill="#EAA02A"/>
<ellipse cx="13.6218" cy="3.41821" rx="13.6218" ry="3.41821" transform="matrix(0.819375 0.573258 -0.3822 0.92408 204.644 68.617)" fill="#9E7F2F"/>
<path d="M227.9 82.8118C230.103 80.5 232.438 75.6058 230.103 70.0535C227.768 64.5011 218.552 61.0061 215 62.5C211.448 63.9939 213.665 68.9476 216 74.5C221.5 79.5 223 81.5 227.9 82.8118Z" fill="#EAA02A"/>
<ellipse cx="223" cy="72.8339" rx="10.3987" ry="3.22036" transform="rotate(67.1891 223 72.8339)" fill="#9E7F2F"/>
</svg>
