<svg width="66" height="104" viewBox="0 0 66 104" fill="none" xmlns="http://www.w3.org/2000/svg">
<path d="M34.9999 24.1674C34.9999 23.9408 35.0373 23.7647 34.9939 23.6145C34.6899 22.5599 34.4208 21.4892 34.0388 20.4659C33.6872 19.524 33.2368 18.6187 32.7788 17.7266C32.1632 16.5279 31.5373 15.3309 30.8377 14.1863C30.5105 13.6511 29.9907 13.2498 29.5763 12.7704C29.2887 12.4378 29.0349 12.073 28.7605 11.7275C28.5186 11.4229 28.2672 11.1266 28.0234 10.8236C27.867 10.6293 27.7214 10.425 27.5627 10.2329C27.1419 9.72347 26.7567 9.17122 26.284 8.72192C25.4945 7.9714 24.9542 7.02791 24.329 6.14743C24.081 5.79808 23.7677 5.50062 23.5171 5.15298C23.2607 4.79713 23.0388 4.41247 22.8179 4.03011C22.7871 3.97684 22.8482 3.86441 22.8669 3.77942C22.9621 3.80618 23.0889 3.80131 23.147 3.86552C23.3474 4.08731 23.5106 4.34671 23.7119 4.56748C24.3598 5.27755 25.0233 5.9719 25.6705 6.68257C25.9377 6.97593 26.1858 7.28963 26.4309 7.60435C26.7513 8.01595 27.0559 8.44123 27.3744 8.85453C28.0817 9.77254 28.7954 10.6851 29.5026 11.6032C30.0052 12.2556 30.4868 12.9267 31.004 13.5659C31.7763 14.5205 32.6096 15.4228 33.344 16.4079C33.8366 17.0689 34.3899 17.6832 34.6404 18.5523C34.9144 19.5031 35.404 20.3826 35.7587 21.3106C35.9564 21.828 36.0442 22.3913 36.2286 22.9155C36.5354 23.7872 36.8777 24.645 37.2134 25.505C37.2385 25.569 37.3314 25.6036 37.4943 25.7317C37.5125 25.2133 37.5455 24.7875 37.5381 24.3626C37.5269 23.7279 37.532 23.0872 37.4495 22.4608C37.3081 21.3866 37.1208 20.3181 36.9209 19.2539C36.7946 18.582 36.6441 17.9104 36.4419 17.2605C36.2629 16.685 35.9493 16.1553 35.7808 15.5775C35.4923 14.5882 34.9922 13.7288 34.4623 12.877C34.1847 12.4309 33.9635 11.9436 33.6677 11.5125C33.0158 10.5624 32.4171 9.5694 31.5449 8.80135C30.7641 8.11384 30.0352 7.36101 29.2796 6.64145C29.0907 6.46147 28.8949 6.28714 28.6886 6.13033C27.4674 5.20214 26.2484 4.27062 25.0149 3.36098C24.6237 3.07251 24.1858 2.85542 23.7771 2.59208C22.7758 1.94682 21.7776 1.29607 20.7832 0.638833C20.708 0.589158 20.6732 0.471257 20.6197 0.385073C20.7249 0.341384 20.8396 0.245619 20.9334 0.264687C21.1389 0.306498 21.3414 0.389519 21.5317 0.485534C22.4343 0.940995 23.3449 1.38192 24.2282 1.87653C24.8815 2.24239 25.4707 2.74136 26.1355 3.07764C27.4677 3.75155 28.5927 4.73489 29.7767 5.63443C30.0898 5.87237 30.4916 5.98823 30.7844 6.24644C31.3491 6.74439 31.8842 7.28458 32.397 7.84255C33.128 8.63796 33.8865 9.41763 34.5253 10.2919C35.2091 11.2278 35.8606 12.2171 36.355 13.2725C36.8647 14.3606 37.2177 15.5409 37.5482 16.7096C37.8946 17.9348 38.1066 19.2017 38.4272 20.4359C38.658 21.3244 38.8589 22.2054 38.8443 23.1356C38.8414 23.3222 38.9995 23.5116 39.1741 23.6977C39.2522 23.3493 39.3752 23.0043 39.3995 22.6517C39.4592 21.7819 39.4762 20.9087 39.5054 20.0367C39.5252 19.4482 39.5219 18.8583 39.5618 18.2714C39.5719 18.1216 39.7065 17.9812 39.784 17.8365C39.9516 17.9576 40.1651 18.0446 40.2749 18.2088C40.4009 18.3972 40.455 18.6492 40.5058 18.8819C40.8246 20.3422 41.8247 21.2452 42.8838 22.0802C43.4565 22.5317 44.7108 22.3294 44.7928 21.355C44.8114 21.1349 44.9068 20.917 44.9914 20.7091C45.4148 19.6683 44.9349 18.9334 44.249 18.3389C43.866 18.0069 43.4311 17.7425 43.0295 17.4333C42.5205 17.0414 41.9406 16.915 41.3294 16.8644C41.2091 16.8544 41.0971 16.7333 40.9814 16.6634C41.0947 16.5873 41.2117 16.4399 41.3206 16.4463C42.2777 16.5025 43.2307 16.6025 44.1274 17.0027C45.1021 17.4377 45.6103 18.3125 46.018 19.2709C46.5005 20.4052 46.3646 21.517 45.9211 22.6364C45.3674 24.0339 44.7687 25.4042 43.9522 26.6541C43.71 27.0249 43.3931 27.3404 43.1311 27.6982C43.0219 27.8473 42.9669 28.0407 42.8872 28.214C43.0668 28.2945 43.2414 28.4274 43.4269 28.4471C44.5993 28.5721 45.7836 28.6315 46.9133 29.0153C47.9476 29.3668 48.9971 29.6743 49.9456 30.279C50.7491 30.7913 51.6566 31.1364 52.4159 31.7071C53.1951 32.2928 53.8693 33.0423 54.5523 33.7594C54.9554 34.1826 55.2611 34.7083 55.6574 35.1401C56.0291 35.5452 56.2843 35.9991 56.5116 36.5064C56.7505 37.0398 57.1471 37.4918 57.4187 38.012C57.695 38.5412 57.9122 39.1059 58.138 39.6628C58.3172 40.1048 58.5075 40.5477 58.6265 41.0093C58.8159 41.7441 58.9414 42.4969 59.1103 43.2379C59.2315 43.7692 59.4111 44.2874 59.5086 44.8228C59.6624 45.6671 59.7929 46.518 59.8898 47.3716C60.0008 48.3501 60.0889 49.3334 60.14 50.3172C60.1735 50.9632 60.1239 51.6139 60.1116 52.2625C60.0911 53.353 60.1201 54.4478 60.0344 55.5325C59.9688 56.3621 59.773 57.1823 59.6084 58.0007C59.3924 59.0749 59.153 60.144 58.9164 61.2135C58.8715 61.4166 58.818 61.6261 58.724 61.8069C58.4557 62.3235 58.4974 62.4965 58.9949 62.7728C59.1609 62.865 59.3199 62.9707 59.4839 63.067C60.5045 63.6664 60.1362 64.6896 59.4903 65.2622C59.317 65.4159 59.1059 65.5215 58.9147 65.6532C58.6004 65.8694 58.5628 66.1693 58.8027 66.4785C58.9215 66.6318 59.0606 66.7772 59.1418 66.9515C59.5118 67.7462 59.1942 68.5993 58.3057 68.95C57.7298 69.1773 57.6202 69.6068 57.523 70.1368C57.3151 71.2699 57.0672 72.3947 56.8532 73.5266C56.6774 74.456 56.527 75.3909 56.3677 76.3103C56.7409 76.5161 56.9598 76.4189 57.1901 76.1443C57.3974 75.897 57.6556 75.6645 57.9357 75.5238C58.714 75.1329 59.5099 74.7787 60.309 74.4368C61.3525 73.9903 62.4572 74.0025 63.5552 74.0282C64.3232 74.0461 64.9897 74.7537 65.0752 75.5655C65.1729 76.494 65.0341 77.3701 64.5409 78.1555C63.8464 79.2615 63.1947 80.4062 62.4102 81.4374C61.767 82.2827 61.0251 83.0834 60.2038 83.7295C59.0208 84.6602 57.827 85.5999 56.4419 86.2105C55.2893 86.7185 54.1609 87.2871 53.0146 87.8113C52.4527 88.0683 51.8883 88.34 51.3 88.5066C50.6223 88.6986 49.9193 88.7976 49.2228 88.9054C48.9106 88.9538 48.5878 88.9225 48.2698 88.9325C47.2744 88.9642 46.6762 88.3234 46.5841 87.2674C46.518 86.5094 46.6916 85.8134 46.8819 85.1145C47.2131 83.8983 47.5721 82.6904 47.934 81.4838C48.0212 81.1933 48.1791 80.9272 48.2805 80.6404C48.5603 79.8485 48.8324 79.0535 49.0934 78.2545C49.1272 78.1507 49.1179 77.9757 49.0559 77.9084C48.9971 77.8447 48.8219 77.8329 48.7336 77.8772C47.6717 78.4106 46.6068 78.9391 45.5619 79.5082C44.4411 80.1188 43.362 80.8183 42.2245 81.3899C41.3359 81.8364 40.3863 82.1474 39.4633 82.5174C38.8048 82.7813 38.1333 83.0154 37.4945 83.3246C37.3264 83.4059 37.1611 83.7159 37.1602 83.9217C37.1564 84.8131 37.2998 85.7125 37.2266 86.594C37.143 87.6002 37.244 88.6389 36.8697 89.6112C36.5491 90.4441 36.283 91.3029 35.9234 92.1161C35.4982 93.0779 34.9428 93.9477 34.1687 94.6649C32.9635 95.7815 31.5759 96.2461 29.9941 96.1608C29.4177 96.1297 28.8345 96.1806 28.2633 96.1115C26.5908 95.9088 24.8932 96.0988 23.2326 95.7374C23.1668 95.7231 23.0997 95.7118 23.0327 95.7077C22.1518 95.6541 22.2041 95.667 22.0058 96.5909C21.8203 97.4546 21.5119 98.2894 21.2489 99.1339C21.1195 99.5494 20.9954 99.9701 20.8252 100.367C20.399 101.362 19.906 102.32 19.0939 103.031C18.9436 103.163 18.6937 103.176 18.4857 103.225C17.7942 103.388 17.0815 103.594 16.3987 103.305C15.7896 103.048 15.1347 102.821 14.7418 102.178C14.4314 101.671 14.046 101.207 13.786 100.674C13.2222 99.5166 13.0166 98.2798 13.1859 96.9747C13.2597 96.4055 13.2096 95.8162 13.3051 95.2528C13.4527 94.382 13.6686 93.5233 13.8713 92.6637C14.0605 91.8613 14.1765 91.0198 14.4928 90.275C14.986 89.1135 15.1529 87.7813 16.0853 86.8346C16.6742 86.2367 17.3236 85.7678 18.0675 85.4123C19.1176 84.9105 20.2156 84.6452 21.3485 84.8026C21.9837 84.8909 22.5883 85.224 23.2069 85.4463C23.6595 85.6089 23.9312 85.9591 24.1063 86.4099C24.3428 87.0185 24.8003 87.2906 25.3896 87.2136C26.0355 87.1292 26.7004 87.038 27.3036 86.7993C28.1884 86.4492 28.5298 85.7523 28.4729 84.7625C28.4217 83.8725 28.4236 83.8613 27.5928 83.7015C26.6771 83.5254 25.7552 83.384 24.8405 83.2028C24.5142 83.1381 24.1931 83.0219 23.8831 82.8931C22.7772 82.4337 21.6427 82.0311 20.5839 81.4705C19.386 80.8365 18.2292 80.1459 17.22 79.1378C16.2868 78.2056 15.5889 77.1259 14.8677 76.0478C14.429 75.3919 14.0957 74.658 13.7094 73.9626C13.555 73.6847 13.2023 73.6192 12.9573 73.7767C12.0432 74.3645 11.131 74.9567 10.199 75.5117C9.90614 75.6861 9.77144 75.8704 9.8398 76.2185C9.95668 76.814 10.1117 77.407 10.1625 78.0093C10.2043 78.5052 10.1553 79.0196 10.0786 79.514C10.0016 80.0106 9.62264 80.2786 9.19779 80.3997C8.67696 80.5481 8.19372 80.451 7.808 79.9887C7.31981 79.4036 6.96616 78.7485 6.72057 78.0119C6.52682 77.4309 6.49288 77.4326 5.9309 77.6379C5.26079 77.8826 4.60088 78.1592 3.92753 78.393C3.08318 78.686 2.25228 78.626 1.47218 78.1608C1.0108 77.8858 0.841995 77.0638 1.102 76.4478C1.20034 76.2149 1.34298 76.003 1.44374 75.7709C1.56063 75.5018 1.52539 75.2932 1.22342 75.1624C1.01703 75.0731 0.79866 74.9475 0.658934 74.7727C0.518398 74.597 0.37827 74.3316 0.396656 74.121C0.445904 73.5579 0.356803 72.9558 0.76229 72.4615C0.973133 72.2045 0.747306 71.9806 0.58077 71.7995C-0.0686072 71.0937 -0.0237344 70.0423 0.702027 69.4359C1.23314 68.9922 1.76604 68.5488 2.32178 68.141C2.50914 68.0035 2.76785 67.972 2.99595 67.8991C4.08135 67.5528 5.16586 67.2032 6.25361 66.8654C7.93452 66.3434 9.61705 65.8271 11.3008 65.3152C11.6209 65.2179 11.7495 65.0405 11.717 64.67C11.6419 63.8162 11.5721 62.9588 11.5641 62.1023C11.5534 60.9485 11.5101 59.7957 11.7448 58.6452C11.9275 57.7494 11.9422 56.817 12.0836 55.91C12.2959 54.5473 12.3786 53.1472 13.0438 51.9004C13.16 51.6826 13.2011 51.4181 13.2657 51.172C13.4359 50.5237 13.5533 49.8552 13.7771 49.2287C14.1202 48.2687 14.4958 47.3165 14.9295 46.3989C15.4172 45.3671 15.9358 44.3437 16.5318 43.3793C17.0858 42.4827 17.7239 41.6362 18.3885 40.8255C19.4042 39.5864 20.4604 38.3831 21.5291 37.1941C21.9141 36.7657 22.3899 36.4293 22.8136 36.038C23.0541 35.8158 23.291 35.5833 23.4967 35.3263C23.7404 35.0219 23.4981 34.8524 23.2758 34.7456C22.9352 34.5817 22.5684 34.4791 22.2262 34.3183C20.995 33.7397 19.7536 33.1811 18.5464 32.5502C17.5423 32.0254 16.5844 31.4031 15.5999 30.8358C14.0668 29.9524 12.5618 29.022 11.1807 27.8873C10.6943 27.4876 10.2149 27.0735 9.76892 26.6254C9.0251 25.8779 8.34656 25.0545 7.57496 24.3422C6.58546 23.4286 5.89332 22.2664 5.06663 21.2174C4.65053 20.6894 4.23063 20.1609 3.86119 19.597C3.56449 19.1441 3.34125 18.6377 3.08545 18.155C3.11445 18.1266 3.14337 18.0981 3.17236 18.0697C3.35753 18.2502 3.55225 18.4212 3.7264 18.6128C4.61416 19.5896 5.46758 20.6034 6.3888 21.5434C7.40024 22.5755 8.45348 23.5648 9.52503 24.5275C10.2052 25.1385 10.9557 25.6618 11.6669 26.2352C11.9107 26.4318 12.1208 26.6746 12.3634 26.8731C13.1764 27.5382 13.9608 28.2528 14.8257 28.833C15.5496 29.3186 16.2424 29.8544 17.0649 30.2062C18.1009 30.6492 19.0364 31.3471 20.0436 31.8746C20.8647 32.3045 21.7273 32.6463 22.5723 33.0252C22.6455 33.058 22.7395 33.0556 22.799 33.1038C23.3919 33.5847 24.0902 33.6281 24.789 33.6094C25.0465 33.6026 25.3276 33.5078 25.5508 33.3686C26.0423 33.0621 26.5037 32.7017 26.9774 32.3634C27.4535 32.0232 27.9175 31.6617 28.4096 31.3496C28.8315 31.0819 29.2694 30.8253 29.7287 30.644C30.6118 30.2955 31.5181 30.0127 32.4071 29.6799C32.5611 29.6221 32.7869 29.4493 32.7843 29.3348C32.7808 29.1835 32.6134 28.9749 32.4664 28.8987C31.3916 28.3417 30.3028 27.8147 29.2212 27.2721C28.3515 26.8359 27.4879 26.3863 26.6179 25.9511C25.5212 25.4025 24.4079 24.8889 23.3248 24.3119C22.1447 23.6831 20.9913 22.9984 19.8248 22.3408C19.7426 22.2944 19.6469 22.2756 19.5609 22.2356C18.8382 21.8988 18.122 21.545 17.3921 21.2265C16.8374 20.9844 16.2633 20.7924 15.7017 20.5676C14.1403 19.9426 12.5828 19.3069 11.0198 18.6862C10.2855 18.3945 9.54164 18.1297 8.80381 17.8477C8.69081 17.8045 8.56591 17.7564 8.4854 17.6702C8.41558 17.5954 8.40084 17.4633 8.36171 17.3565C8.45178 17.3266 8.55368 17.2516 8.63015 17.2738C9.7963 17.6135 10.9571 17.9736 12.1235 18.3125C12.7628 18.4982 13.4314 18.5927 14.0499 18.8337C15.6098 19.4417 17.1502 20.1056 18.6956 20.7546C19.441 21.0676 20.1871 21.3803 20.9202 21.7235C22.1729 22.3099 23.4206 22.909 24.6608 23.5245C25.4781 23.9301 26.2742 24.3833 27.0881 24.7971C27.823 25.1708 28.5742 25.5087 29.3082 25.8844C29.6568 26.0629 29.9781 26.2995 30.3187 26.4966C30.6295 26.6764 30.9518 26.834 31.2651 27.0091C31.675 27.2381 32.086 27.4657 32.4878 27.7099C33.2688 28.1845 34.0066 28.8213 34.911 28.9326C35.4773 29.0022 36.0823 28.7444 36.6633 28.6031C36.6997 28.5942 36.7318 28.2918 36.6753 28.1746C36.3089 27.4138 35.7957 26.7735 35.2022 26.1918C34.2982 25.3058 33.2063 24.7287 32.1669 24.064C31.1277 23.3993 30.0795 22.75 29.0482 22.072C28.4599 21.6853 27.9198 21.213 27.3184 20.8531C26.3155 20.253 25.514 19.3356 24.3625 18.9539C23.263 18.5893 22.2164 18.0456 21.1487 17.5753C20.8285 17.4342 20.5263 17.2375 20.1969 17.132C19.4292 16.8864 18.6487 16.6857 17.8761 16.4568C17.4928 16.3432 17.1204 16.1856 16.7343 16.0865C16.0232 15.904 15.3118 15.703 14.5891 15.5962C13.7325 15.4696 12.8623 15.4489 12.0006 15.3556C11.0237 15.2498 10.0513 15.0959 9.07378 14.9985C8.42441 14.9338 7.76361 14.8587 7.11836 14.9168C5.90952 15.0257 4.74312 14.8043 3.57299 14.5665C3.40378 14.5322 3.23271 14.46 3.08618 14.3648C2.97554 14.2928 2.80778 14.1078 2.83079 14.0575C2.89769 13.9115 3.03474 13.7267 3.16767 13.703C3.57526 13.6301 3.99435 13.5933 4.40802 13.6005C5.49123 13.6196 6.57412 13.6638 7.65677 13.7086C8.78907 13.7555 9.92266 13.7893 11.0524 13.8772C11.8172 13.9367 12.5758 14.0833 13.3379 14.1843C14.1908 14.2975 15.0453 14.3969 15.8975 14.5151C16.2422 14.5629 16.5828 14.644 16.9252 14.7105C18.3842 14.9939 19.8247 15.3401 21.1773 16.0157C21.5611 16.2074 21.9667 16.3518 22.367 16.5042C22.661 16.6162 22.7609 16.4497 22.6756 16.183C22.5691 15.8498 22.4172 15.5323 22.2776 15.2115C21.9148 14.3779 21.5403 13.5499 21.1854 12.7126C20.9247 12.0977 20.6096 11.4923 20.4571 10.8462C20.1995 9.7545 20.0514 8.63394 19.8571 7.52561C19.7409 6.86315 19.603 6.20395 19.5141 5.53739C19.4293 4.90135 19.3884 4.25822 19.3421 3.61714C19.3149 3.24026 19.3166 2.86115 19.301 2.48316C19.2975 2.39842 19.2492 2.30694 19.268 2.23153C19.3352 1.96263 19.2521 1.58241 19.6164 1.50221C19.9758 1.42313 20.0394 1.80608 20.0929 2.01829C20.2468 2.62876 20.3358 3.25855 20.4303 3.88416C20.5118 4.42306 20.5485 4.96984 20.6363 5.50738C20.7665 6.30466 20.9087 7.10067 21.0771 7.88975C21.1643 8.29878 21.315 8.69311 21.4436 9.09179C21.7662 10.0917 22.1066 11.0855 22.4134 12.0907C22.7426 13.1693 23.1177 14.2182 23.7132 15.1749C24.035 15.6919 24.2813 16.2613 24.5586 16.8089C24.5895 16.8699 24.6315 16.9533 24.6148 17.0084C24.4076 17.6971 24.9635 17.7778 25.325 18.0093C25.6313 18.2054 25.9363 18.4062 26.2549 18.5782C26.5116 18.7167 26.8105 18.7771 27.0517 18.9375C28.5906 19.9614 30.1129 21.0132 31.653 22.035C32.3435 22.4931 33.0697 22.8905 33.7652 23.3405C34.0575 23.5296 34.3067 23.7916 34.5868 24.0038C34.6802 24.0747 34.8086 24.0942 34.9999 24.1674ZM39.4835 63.501C39.4787 63.543 39.4738 63.585 39.469 63.6269C38.5818 63.4961 37.69 63.3921 36.8089 63.2252C36.2217 63.1139 35.6442 62.9323 35.0724 62.7477C34.3602 62.5178 33.6522 62.2699 32.9538 61.9972C32.3094 61.7457 31.6444 61.5165 31.0541 61.1573C30.4613 60.7966 29.9335 60.307 29.4135 59.8297C29.2821 59.7091 29.2892 59.4203 29.2327 59.2087C29.4237 59.2249 29.642 59.1833 29.801 59.2672C30.489 59.6302 31.1375 60.0843 31.8419 60.4034C32.8849 60.8759 33.9571 61.2795 35.0286 61.677C35.5022 61.8527 36.0005 61.966 36.4954 62.0623C36.8832 62.1377 37.285 62.1293 37.6774 62.1835C38.1792 62.2528 38.6782 62.4193 39.1778 62.4164C40.2585 62.4101 41.3399 62.3379 42.4191 62.2623C43.022 62.22 43.6274 62.1518 44.2205 62.033C45.2191 61.8328 46.2089 61.5837 47.202 61.3537C47.4911 61.2867 47.9036 61.3111 48.036 61.1205C48.1972 60.8885 48.1325 60.4744 48.1476 60.1381C48.1942 59.1028 48.4653 58.1479 48.9629 57.2477C49.4761 56.3193 50.9828 56.2426 51.4521 57.2009C51.599 57.501 51.7843 57.7852 51.895 58.0989C52.1114 58.7121 52.4427 59.3019 52.2777 60.01C52.2212 60.2524 52.3403 60.4263 52.6072 60.4193C52.7661 60.4152 52.9291 60.4239 53.0828 60.3897C53.9288 60.2012 54.7719 59.9975 55.6174 59.8067C56.1944 59.6766 56.771 59.5396 57.3532 59.4426C57.8013 59.3678 57.9749 59.1679 58.0228 58.6733C58.0772 58.1111 58.1633 57.5506 58.2664 56.9957C58.4307 56.1111 58.7217 55.2387 58.7774 54.3485C58.8793 52.7212 58.8797 51.0841 58.8603 49.4519C58.8499 48.5821 58.7337 47.7104 58.6177 46.8466C58.5581 46.4035 58.3752 45.9803 58.2823 45.5402C58.1683 45.0003 58.1582 44.426 57.983 43.9123C57.5435 42.6233 57.263 41.279 56.6323 40.0532C55.9883 38.8014 55.3838 37.5306 54.5094 36.4363C53.9929 35.7899 53.4905 35.1127 52.8866 34.5665C51.8745 33.6511 50.8188 32.7825 49.5761 32.2108C48.97 31.932 48.3909 31.5883 47.7939 31.2867C47.4812 31.1287 47.1678 30.9358 46.8346 30.8664C45.4784 30.5841 44.1227 30.2502 42.751 30.1141C41.4301 29.983 40.0878 30.1168 38.7583 30.0534C37.1767 29.978 35.6629 30.3455 34.1549 30.7377C33.4362 30.9246 32.7734 31.3539 32.054 31.5334C30.794 31.8478 29.7864 32.6542 28.6877 33.2853C28.394 33.454 28.1035 33.6344 27.832 33.8396C27.2537 34.2768 26.7272 34.8078 26.1091 35.1644C25.2692 35.649 24.4748 36.1803 23.7987 36.8915C22.8961 37.8408 21.993 38.7912 21.127 39.7771C20.4999 40.4909 19.9111 41.2455 19.346 42.0154C18.9461 42.56 18.617 43.1623 18.2515 43.7354C18.0266 44.088 17.7753 44.423 17.5666 44.7856C17.304 45.2421 17.066 45.7147 16.8296 46.1872C16.2889 47.2681 15.7406 48.3455 15.2281 49.4414C15.0649 49.7904 15.0141 50.1965 14.8932 50.5697C14.8173 50.8043 14.6742 51.0176 14.6178 51.2554C14.4336 52.032 14.2719 52.8147 14.1082 53.5966C13.9365 54.4161 13.4789 55.1455 13.5038 56.0351C13.5205 56.6359 13.3857 57.2404 13.3348 57.8448C13.2863 58.4205 13.2604 58.9983 13.2215 59.575C13.1478 60.6651 13.0064 61.7555 13.0137 62.845C13.0224 64.1262 13.1345 65.4088 13.2505 66.686C13.3102 67.3422 13.4667 67.9896 13.5972 68.6371C13.6858 69.0766 13.7894 69.5146 13.914 69.9442C14.2669 71.1604 14.5649 72.402 15.0202 73.5749C15.3231 74.3555 15.8623 75.0332 16.2893 75.7611C16.8794 76.7674 17.6082 77.646 18.4861 78.3788C18.9248 78.7449 19.407 79.0524 19.855 79.4067C20.9396 80.2643 22.1735 80.8066 23.4391 81.2612C24.3296 81.5812 25.2432 81.8455 26.1627 82.0556C26.8946 82.2229 27.6486 82.3066 28.3971 82.3622C29.267 82.4268 30.1429 82.3957 31.0138 82.4503C32.3957 82.5369 33.7783 82.8035 35.1483 82.3492C35.2882 82.3028 35.4371 82.2837 35.5831 82.2608C36.3828 82.1352 37.1986 82.0778 37.9777 81.8676C38.5894 81.7025 39.1686 81.3769 39.7393 81.0743C40.6805 80.5754 41.5932 80.0163 42.5366 79.5227C43.2887 79.1291 44.0789 78.8167 44.8323 78.4255C45.2058 78.2315 45.5096 77.8825 45.8879 77.7059C46.8718 77.2464 47.8076 76.726 48.5981 75.9365C48.9161 75.6188 49.7683 75.5503 50.0791 75.785C50.6596 76.2235 50.913 76.3556 50.6791 77.2875C50.5434 77.8281 50.3545 78.3547 50.1748 78.8821C49.9125 79.652 49.6603 80.4274 49.359 81.1804C49.1571 81.6848 48.833 82.1362 48.6446 82.6448C48.437 83.2051 48.3299 83.8061 48.1651 84.3849C47.939 85.1793 47.7338 85.9753 47.7462 86.8157C47.7532 87.2853 48.0315 87.6684 48.4789 87.6389C49.208 87.5908 49.936 87.4784 50.6567 87.346C51.1821 87.2496 51.7102 87.1211 52.209 86.9264C52.6922 86.7378 53.1329 86.4317 53.6039 86.2037C54.1332 85.9475 54.7006 85.7689 55.2067 85.4715C56.2409 84.8639 57.2662 84.233 58.2546 83.5466C58.9268 83.0796 59.5329 82.5059 60.161 81.97C60.2611 81.8846 60.2975 81.6975 60.4034 81.6412C61.2647 81.183 61.7739 80.3091 62.3086 79.5671C62.928 78.7075 63.5511 77.763 63.7848 76.6343C63.9338 75.9149 63.5791 75.413 62.8829 75.4705C62.6683 75.4882 62.4524 75.5195 62.2385 75.5095C61.4247 75.4714 60.6302 75.5213 59.9091 75.9848C59.6286 76.165 59.3383 76.3293 59.0654 76.5213C58.4792 76.9336 57.849 77.2983 57.3322 77.7934C56.5113 78.58 55.7773 79.4668 54.988 80.2915C54.6957 80.5969 54.3837 80.928 54.0182 81.0916C53.7943 81.1918 53.3767 81.083 53.1891 80.9025C53.0689 80.7868 53.142 80.336 53.2499 80.0962C53.3775 79.8125 53.6421 79.5995 53.8362 79.3465C54.1274 78.9667 54.5459 78.6213 54.6679 78.1857C54.9775 77.0799 55.1311 75.9266 55.387 74.8025C55.7017 73.4202 56.1546 72.0767 56.2731 70.6412C56.338 69.8539 56.2188 69.6473 55.4862 69.7751C55.4597 69.7797 55.4336 69.7875 55.4071 69.7928C54.4664 69.9811 53.5225 70.0133 52.5778 69.8378C52.4711 69.818 52.3786 69.7122 52.2795 69.6462C52.377 69.5488 52.4612 69.3924 52.5741 69.3643C53.0143 69.255 53.4641 69.1897 53.9091 69.101C54.1168 69.0596 54.3199 68.9698 54.528 68.9575C55.7662 68.8848 56.9382 68.5263 58.0742 68.0336C58.5445 67.8297 58.674 67.3852 58.3784 67.0043C58.2332 66.8171 57.9605 66.6569 57.7338 66.6376C56.6745 66.5473 55.6396 66.7441 54.6121 67.013C54.2671 67.1033 53.8976 67.1246 53.5413 67.1118C53.4165 67.1074 53.2552 66.9269 53.1942 66.7863C53.162 66.7125 53.2876 66.4713 53.3804 66.4422C54.0713 66.2259 54.7632 65.9887 55.4715 65.8636C56.5872 65.6666 57.6677 65.4138 58.6378 64.7536C59.2876 64.3112 59.3058 64.0133 58.6256 63.618C57.4555 62.9378 56.2905 63.2154 55.1577 63.7176C54.5968 63.9662 54.0433 64.114 53.4425 64.0319C53.1909 63.9975 52.8631 63.9639 52.9047 63.6106C52.9234 63.4522 53.1872 63.2509 53.3712 63.2025C54.0429 63.026 54.7264 62.8968 55.4085 62.7675C55.792 62.6947 56.1114 62.5545 56.3781 62.223C56.5182 62.049 56.7823 61.9485 57.0072 61.8969C57.3755 61.8123 57.5932 61.5552 57.7617 61.2516C57.9252 60.9569 57.7467 60.6393 57.4103 60.6456C56.9489 60.6544 56.4776 60.6758 56.0301 60.7831C55.0268 61.0237 54.0379 61.3314 53.0381 61.5898C52.6133 61.6996 52.1767 61.7994 51.7435 61.8096C51.5977 61.813 51.3505 61.5462 51.3154 61.3668C51.2296 60.9281 51.2492 60.4676 51.2105 60.0174C51.1505 59.319 51.1666 58.6002 50.7051 58.009C50.4342 57.662 49.9747 57.6769 49.7725 58.0682C49.6961 58.2161 49.6164 58.3796 49.6014 58.5423C49.5117 59.5195 49.4227 60.4976 49.3703 61.4776C49.3455 61.9419 49.191 62.3431 48.8272 62.4874C48.567 62.5906 48.2836 62.6931 48.0122 62.6886C46.8085 62.6685 45.6386 62.8297 44.5046 63.2682C43.5152 63.6508 42.485 63.6954 41.4475 63.6407C40.7923 63.6062 40.1381 63.5484 39.4835 63.501ZM20.4525 86.2007C20.4518 86.2115 20.451 86.2222 20.4503 86.233C20.3701 86.2254 20.2873 86.2003 20.2103 86.2133C19.6457 86.3088 19.002 86.2632 18.5347 86.5433C17.513 87.1555 16.7527 88.0796 16.2125 89.2162C15.6881 90.3195 15.2497 91.4504 14.969 92.6432C14.8579 93.1155 14.8859 93.6223 14.8161 94.1079C14.6139 95.5162 14.4672 96.9185 14.5615 98.3547C14.6234 99.2987 14.7941 100.148 15.3075 100.94C15.6524 101.472 16.1196 101.799 16.641 102.043C16.9041 102.166 17.2527 102.216 17.5295 102.148C18.1014 102.008 18.5533 101.634 18.8549 101.085C18.9696 100.876 19.0669 100.654 19.2006 100.461C19.7578 99.6523 20.1607 98.7485 20.4305 97.811C20.6637 97.0008 20.7075 96.1268 20.8038 95.2771C20.8574 94.8043 20.8695 94.3229 20.861 93.8462C20.8458 92.9971 20.7896 92.1486 20.7729 91.2995C20.7643 90.8658 21.1137 90.6431 21.415 90.885C21.5407 90.986 21.6144 91.177 21.6796 91.3413C21.9786 92.095 22.1281 92.8762 22.0726 93.7002C22.0545 93.9681 22.1847 94.1404 22.4763 94.1735C23.2321 94.2595 23.985 94.3739 24.7398 94.4709C25.8087 94.6083 26.8777 94.8383 27.9478 94.8455C28.8951 94.8519 29.861 94.9833 30.809 94.6581C31.4634 94.4335 32.177 94.4224 32.8086 94.078C33.1846 93.873 33.512 93.6413 33.7325 93.2366C34.0776 92.6032 34.469 91.998 34.8259 91.3714C34.9981 91.069 35.1888 90.7611 35.28 90.4279C35.5578 89.4137 35.8866 88.3992 36.0152 87.3599C36.1438 86.3213 36.0815 85.2517 36.0495 84.1975C36.035 83.7176 35.7021 83.5496 35.3033 83.6231C34.3471 83.7994 33.3879 83.9804 32.4224 84.0705C31.6802 84.1398 30.9268 84.074 30.1783 84.0668C29.8653 84.0638 29.6061 84.1046 29.6517 84.5524C29.7319 85.3403 29.6377 86.0478 29.1905 86.7628C28.5442 87.7963 27.7427 88.4357 26.5708 88.5304C26.1596 88.5637 25.7467 88.6041 25.3352 88.5979C24.4578 88.5848 23.6335 88.3959 23.1752 87.4944C22.8143 86.7842 22.2604 86.4082 21.5343 86.2898C21.1779 86.2317 20.8134 86.2287 20.4525 86.2007ZM11.9946 67.5341C12.0117 67.5313 12.0289 67.5284 12.046 67.5256C12.046 67.4426 12.0584 67.3567 12.0428 67.2771C12.0239 67.181 11.9771 67.0915 11.9496 66.9967C11.7245 66.2209 11.7275 66.2285 11.052 66.4792C10.2565 66.7745 9.45262 67.0123 8.6197 67.1965C7.26797 67.4954 5.94613 67.9604 4.62891 68.4114C3.93498 68.6489 3.25725 68.9639 2.60982 69.32C2.07692 69.6132 1.60671 70.0291 1.34711 70.6365C1.25509 70.8518 1.17166 71.0835 1.53641 71.1214C1.70521 71.139 1.87426 71.2364 2.03707 71.2217C2.92977 71.1414 3.79291 70.9275 4.61343 70.5347C4.92934 70.3834 5.24945 70.2339 5.58082 70.1307C5.71115 70.0901 5.87736 70.1782 6.02729 70.2076C5.95358 70.3643 5.88821 70.5264 5.80162 70.6747C5.77109 70.727 5.68936 70.747 5.6295 70.7787C5.18068 71.0165 4.68423 71.1892 4.29422 71.5073C3.79598 71.9137 3.23579 72.09 2.65526 72.1531C1.91452 72.2335 1.52256 72.6412 1.32135 73.351C1.18325 73.8384 1.40268 74.2485 1.87912 74.3144C2.97327 74.4654 3.89942 73.976 4.82161 73.4544C5.23074 73.223 5.65591 73.013 6.09387 72.8552C6.22858 72.8067 6.42962 72.9635 6.60029 73.0263C6.52115 73.1713 6.47571 73.3818 6.35704 73.4498C5.90069 73.7111 5.41679 73.9182 4.95072 74.1616C4.43823 74.4292 3.92696 74.7012 3.42905 74.9972C3.14539 75.1659 2.84286 75.3432 2.63331 75.595C2.39152 75.8856 2.21057 76.2481 2.06639 76.6076C1.98733 76.8049 1.95024 77.1365 2.05359 77.27C2.17825 77.4311 2.48257 77.5344 2.69009 77.5062C3.11243 77.449 3.52569 77.2996 3.93595 77.165C4.79431 76.8835 5.64521 76.576 6.50543 76.3012C6.94227 76.1617 7.20916 76.3166 7.40032 76.7757C7.69435 77.4817 7.98385 78.1899 8.26767 78.9006C8.4453 79.3453 8.74209 79.5297 9.098 79.3967C9.43885 79.2694 9.5887 78.9245 9.46007 78.4881C9.22623 77.6949 8.97059 76.9087 8.73269 76.1167C8.59718 75.6654 8.69494 75.4297 9.05556 75.2362C10.3732 74.5291 11.5297 73.5665 12.7155 72.6514C12.9065 72.504 13.0087 72.3208 12.93 72.0263C12.7528 71.3624 12.6184 70.6857 12.4709 70.0132C12.4225 69.7924 12.3886 69.5682 12.3458 69.346C12.2294 68.7419 12.1118 68.1381 11.9946 67.5341ZM44.1201 23.5955C43.9349 23.4885 43.7654 23.3581 43.5758 23.2882C43.2165 23.1559 42.8442 23.0635 42.4801 22.9449C41.9731 22.7797 41.6487 22.3598 41.2853 21.9901C41.1915 21.8946 40.9904 21.7836 40.9192 21.827C40.8083 21.8946 40.7035 22.0891 40.7049 22.2284C40.7182 23.4679 40.4788 24.6676 40.2259 25.8659C40.1856 26.0567 40.1225 26.2432 40.0594 26.4275C39.8766 26.9609 39.6867 27.4915 39.5031 28.0245C39.4081 28.3 39.5301 28.4471 39.7684 28.3343C40.2671 28.0981 40.813 27.8918 41.2134 27.5214C42.1582 26.6473 43.0047 25.6612 43.6679 24.5212C43.8209 24.2582 43.9378 23.9719 44.1201 23.5955Z" fill="black"/>
<path d="M2.20271 16.7204C1.91265 16.2775 1.61586 15.8392 1.33528 15.3897C1.19021 15.1572 1.04789 14.9148 0.957659 14.6562C0.92129 14.5519 1.02748 14.3922 1.06871 14.2578C1.17741 14.3068 1.33966 14.3239 1.38574 14.4102C1.62583 14.8594 1.83845 15.3251 2.05634 15.7873C2.13888 15.9624 2.22093 16.1396 2.28274 16.3234C2.31894 16.4311 2.31473 16.5539 2.32867 16.6699C2.28671 16.6868 2.24467 16.7035 2.20271 16.7204Z" fill="black"/>
<path d="M47.9748 69.6629C47.3937 69.7307 46.8139 69.8178 46.2313 69.8621C45.2218 69.9388 44.2106 69.9909 43.1999 70.0498C42.358 70.0989 41.5138 70.2034 40.6741 70.1736C39.6184 70.1363 38.5548 70.0578 37.5159 69.867C36.4155 69.665 35.3273 69.3546 34.2579 69.0088C33.3409 68.7123 32.4451 68.3295 31.5645 67.9251C31.067 67.6967 30.605 67.3694 30.1572 67.0407C30.0168 66.9376 29.975 66.6849 29.888 66.5005C30.0817 66.469 30.2913 66.3737 30.4649 66.4222C30.6751 66.481 30.846 66.6806 31.0496 66.785C31.4753 67.0031 31.9076 67.2081 32.3441 67.4009C32.7618 67.5855 33.1828 67.7656 33.6121 67.9167C34.7547 68.3188 35.9047 68.6244 37.1325 68.6472C39.0003 68.6818 40.8657 68.8417 42.733 68.9279C43.1583 68.9476 43.5872 68.8863 44.0142 68.8571C44.2921 68.8381 44.5701 68.8151 44.8472 68.7847C45.6298 68.6987 46.4106 68.591 47.1948 68.5273C47.4961 68.5029 47.8174 68.5256 48.1068 68.6117C48.7075 68.7902 49.3122 68.7506 49.9194 68.7445C50.2092 68.7416 50.5057 68.7828 50.7871 68.7309C51.1652 68.6612 51.3082 68.9056 51.4061 69.1856C51.4818 69.4019 51.1766 69.7702 50.913 69.7315C50.2328 69.6316 49.7623 70.0744 49.2683 70.407C48.1239 71.1772 47.0135 72.0032 45.8854 72.8007C45.4466 73.111 45.0075 73.4243 44.5463 73.6941C44.4208 73.7675 44.2146 73.6874 44.0453 73.6778C44.1014 73.5417 44.1285 73.3778 44.2183 73.2743C44.7795 72.6266 45.379 72.0307 46.1286 71.6146C46.3665 71.4825 46.5265 71.2027 46.746 71.0231C47.0921 70.7399 47.4671 70.4959 47.8112 70.2102C47.9294 70.1122 47.9916 69.9389 48.0794 69.8C48.0446 69.7543 48.0096 69.7086 47.9748 69.6629Z" fill="black"/>
<path d="M50.2705 45.8751C51.0033 44.9324 51.6592 43.9847 52.4213 43.1444C52.932 42.5812 53.3093 41.9592 53.6754 41.2999C53.8268 41.0273 54.1415 40.8348 54.416 40.669C54.5323 40.5988 54.8323 40.6328 54.8811 40.7218C54.9827 40.9073 55.0566 41.1932 54.9921 41.3805C54.8249 41.8662 54.589 42.3277 54.3578 42.7862C54.0626 43.3716 53.776 43.9663 53.4278 44.5163C53.1248 44.995 52.6787 45.3788 52.4078 45.8729C51.9782 46.6569 51.3632 47.2527 50.7956 47.9026C50.409 48.3452 49.9047 48.3887 49.398 48.3917C49.0511 48.3937 48.7427 47.9017 48.7569 47.4401C48.7848 46.5324 48.8304 45.6309 48.6749 44.7217C48.5599 44.049 48.6686 43.3628 49.1096 42.8177C49.2431 42.6527 49.5148 42.5048 49.707 42.5245C50.0402 42.5586 50.2573 42.8393 50.2368 43.2137C50.202 43.849 50.1238 44.4814 50.0784 45.1162C50.0595 45.3807 49.9865 45.6759 50.2705 45.8751Z" fill="black"/>
<path d="M34.2816 44.5874C34.4029 44.3446 34.5121 44.1259 34.6213 43.9072C34.7709 44.1136 34.9691 44.2984 35.0617 44.5301C35.4483 45.4975 35.7736 46.4929 36.1794 47.4507C36.4724 48.1423 36.7966 48.8368 37.2158 49.4465C37.7259 50.1883 38.343 50.8493 38.9273 51.5325C39.4731 52.1708 39.9986 52.8374 40.6045 53.4067C41.0655 53.84 41.6244 54.1665 42.1657 54.4926C42.6633 54.7925 43.1747 55.1074 43.7192 55.266C44.1146 55.3812 44.4832 55.459 44.8017 55.7584C45.0371 55.9796 45.0883 56.2471 44.9531 56.4773C44.846 56.6597 44.577 56.8754 44.4078 56.8518C43.9125 56.783 43.3998 56.6719 42.9526 56.4471C42.4168 56.1778 41.9436 55.771 41.4397 55.4295C41.0278 55.1501 40.6077 54.8841 40.1966 54.6034C39.3668 54.0368 38.5997 53.3912 37.9122 52.6364C37.2539 51.9137 36.7787 51.0715 36.3591 50.1833C35.9434 49.3033 35.4418 48.4609 35.1036 47.55C34.7547 46.61 34.5573 45.6073 34.2816 44.5874Z" fill="black"/>
<path d="M41.9619 48.1376C41.3657 48.0662 41.128 47.7334 41.1841 47.1525C41.2352 46.6239 41.1594 46.0804 41.2232 45.5549C41.2947 44.9648 41.18 44.3404 41.4904 43.7856C41.5761 43.6324 41.5918 43.437 41.6668 43.275C41.7137 43.1736 41.8114 43.0984 41.8862 43.0115C41.9716 43.1051 42.1192 43.1912 42.1303 43.2937C42.1603 43.5712 42.1128 43.8572 42.1321 44.137C42.1588 44.5247 42.1999 44.9144 42.2801 45.2925C42.2958 45.3662 42.5692 45.4716 42.6372 45.4241C42.9124 45.2319 43.216 45.0302 43.3954 44.7506C43.8209 44.0877 44.161 43.3643 44.5754 42.6927C44.8657 42.2225 45.2021 41.7791 45.5556 41.3589C45.7908 41.0794 46.1113 41.0247 46.4268 41.2557C46.6524 41.4208 46.7479 41.6448 46.6108 41.9177C46.2601 42.616 45.916 43.3189 45.5351 43.9988C45.3883 44.2609 45.1423 44.4593 44.9532 44.6972C44.2706 45.5559 43.5916 46.4178 42.9146 47.2814C42.764 47.4736 42.6499 47.7047 42.4766 47.8675C42.3385 47.9972 42.1359 48.0504 41.9619 48.1376Z" fill="black"/>
<path d="M35.9991 54.2702C35.5888 53.9794 35.161 53.8043 34.9154 53.4769C34.3112 52.6714 33.7731 51.8044 33.5061 50.7943C33.4647 50.6377 33.5055 50.4568 33.5084 50.2871C33.6575 50.3559 33.8499 50.3839 33.9488 50.5003C34.538 51.1936 35.0982 51.9144 35.6861 52.6091C35.8328 52.7825 36.0304 52.9296 36.2318 53.0246C36.5315 53.1662 36.6645 53.4256 36.5703 53.6986C36.4998 53.9027 36.2448 54.0359 35.9991 54.2702Z" fill="black"/>
</svg>
