<svg width="35" height="38" viewBox="0 0 35 38" fill="none" xmlns="http://www.w3.org/2000/svg">
<path d="M16.2982 37.6266C25.2994 37.6266 32.5964 30.3296 32.5964 21.3284C32.5964 12.3272 25.2994 5.03021 16.2982 5.03021C7.29695 5.03021 0 12.3272 0 21.3284C0 30.3296 7.29695 37.6266 16.2982 37.6266Z" fill="url(#paint0_linear_2057_126)"/>
<mask id="mask0_2057_126" style="mask-type:luminance" maskUnits="userSpaceOnUse" x="1" y="7" width="31" height="30">
<path d="M16.3615 36.8091C24.5618 36.8091 31.2094 30.1615 31.2094 21.9613C31.2094 13.761 24.5618 7.11337 16.3615 7.11337C8.16129 7.11337 1.51367 13.761 1.51367 21.9613C1.51367 30.1615 8.16129 36.8091 16.3615 36.8091Z" fill="white"/>
</mask>
<g mask="url(#mask0_2057_126)">
<path d="M7.96558 16.2243C7.96558 16.2243 6.60104 15.9789 5.41016 16.6794C5.41016 16.6794 5.76081 15.7412 7.1015 15.959C7.79219 16.0709 7.96558 16.2243 7.96558 16.2243Z" fill="#98B770"/>
</g>
<mask id="mask1_2057_126" style="mask-type:luminance" maskUnits="userSpaceOnUse" x="1" y="7" width="31" height="30">
<path d="M16.3615 36.8091C24.5618 36.8091 31.2094 30.1615 31.2094 21.9613C31.2094 13.761 24.5618 7.11337 16.3615 7.11337C8.16129 7.11337 1.51367 13.761 1.51367 21.9613C1.51367 30.1615 8.16129 36.8091 16.3615 36.8091Z" fill="white"/>
</mask>
<g mask="url(#mask1_2057_126)">
<path d="M26.1885 12.7239C26.1885 12.7239 20.6514 22.8442 21.0551 24.5856C21.4589 26.3269 20.1512 37.4873 20.1512 37.4873L10.3758 36.4973L10.071 29.1905C10.071 29.1905 9.42383 27.2275 9.72395 26.6271C10.0241 26.0266 10.4934 23.5447 10.4934 23.5447L13.4257 17.4602L20.5329 10.6741L22.3126 10.8218L22.1657 10.9952L24.314 13.1968L26.1885 12.7239Z" fill="#E8EDC8"/>
</g>
<mask id="mask2_2057_126" style="mask-type:luminance" maskUnits="userSpaceOnUse" x="1" y="7" width="31" height="30">
<path d="M16.3615 36.8091C24.5618 36.8091 31.2094 30.1615 31.2094 21.9613C31.2094 13.761 24.5618 7.11337 16.3615 7.11337C8.16129 7.11337 1.51367 13.761 1.51367 21.9613C1.51367 30.1615 8.16129 36.8091 16.3615 36.8091Z" fill="white"/>
</mask>
<g mask="url(#mask2_2057_126)">
<path d="M13.1567 19.5054C13.1513 17.94 11.6002 10.7613 11.6002 10.7613C11.6002 10.7613 11.3376 11.1083 9.98449 11.4151C8.6311 11.722 7.6237 12.074 7.6237 12.074C7.40341 14.3557 6.58106 15.9519 7.22147 16.9049L4.80859 32.5684L11.3977 36.6208C11.3977 36.6208 13.1969 30.7879 13.1567 19.5054Z" fill="#B6CC92"/>
</g>
<mask id="mask3_2057_126" style="mask-type:luminance" maskUnits="userSpaceOnUse" x="1" y="7" width="31" height="30">
<path d="M16.3615 36.8091C24.5618 36.8091 31.2094 30.1615 31.2094 21.9613C31.2094 13.761 24.5618 7.11337 16.3615 7.11337C8.16129 7.11337 1.51367 13.761 1.51367 21.9613C1.51367 30.1615 8.16129 36.8091 16.3615 36.8091Z" fill="white"/>
</mask>
<g mask="url(#mask3_2057_126)">
<path d="M24.7941 16.9795C23.8735 18.9409 25.6602 34.3022 25.6602 34.3022L19.9059 36.8901C19.9059 36.8901 17.7237 26.2073 22.1119 10.9085C22.1119 10.9085 23.0602 11.445 24.4997 11.7251L26.9944 12.4866L24.7941 16.9795Z" fill="#B6CC92"/>
</g>
<mask id="mask4_2057_126" style="mask-type:luminance" maskUnits="userSpaceOnUse" x="1" y="7" width="31" height="30">
<path d="M16.3615 36.8091C24.5618 36.8091 31.2094 30.1615 31.2094 21.9613C31.2094 13.761 24.5618 7.11337 16.3615 7.11337C8.16129 7.11337 1.51367 13.761 1.51367 21.9613C1.51367 30.1615 8.16129 36.8091 16.3615 36.8091Z" fill="white"/>
</mask>
<g mask="url(#mask4_2057_126)">
<path d="M26.711 12.725C15.4091 9.71808 7.62359 12.0739 7.62359 12.0739C7.62359 12.0739 5.08579 32.6132 4.78516 32.9426C4.78516 32.9426 8.6753 37.2666 14.12 37.8233C19.5646 38.38 24.5101 34.8672 24.5101 34.8672L26.711 12.725Z" fill="url(#paint1_linear_2057_126)"/>
</g>
<mask id="mask5_2057_126" style="mask-type:luminance" maskUnits="userSpaceOnUse" x="1" y="7" width="31" height="30">
<path d="M16.3615 36.8091C24.5618 36.8091 31.2094 30.1615 31.2094 21.9613C31.2094 13.761 24.5618 7.11337 16.3615 7.11337C8.16129 7.11337 1.51367 13.761 1.51367 21.9613C1.51367 30.1615 8.16129 36.8091 16.3615 36.8091Z" fill="white"/>
</mask>
<g mask="url(#mask5_2057_126)">
<path d="M11.5908 10.5423L12.5596 9.96899L14.6008 14.3106C14.6008 14.3106 14.586 16.3555 15.5582 18.4905L13.8868 21.0024C13.8868 21.0021 10.7068 16.3521 11.5908 10.5423Z" fill="#98B770"/>
</g>
<mask id="mask6_2057_126" style="mask-type:luminance" maskUnits="userSpaceOnUse" x="1" y="7" width="31" height="30">
<path d="M16.3615 36.8091C24.5618 36.8091 31.2094 30.1615 31.2094 21.9613C31.2094 13.761 24.5618 7.11337 16.3615 7.11337C8.16129 7.11337 1.51367 13.761 1.51367 21.9613C1.51367 30.1615 8.16129 36.8091 16.3615 36.8091Z" fill="white"/>
</mask>
<g mask="url(#mask6_2057_126)">
<path opacity="0.57" d="M15.6368 17.4L15.5898 17.7782L13.4144 20.2076L13.1124 20.3906L12.9629 19.7771C13.1402 19.5763 14.6926 18.0873 15.6368 17.4Z" fill="#A9D893"/>
</g>
<mask id="mask7_2057_126" style="mask-type:luminance" maskUnits="userSpaceOnUse" x="1" y="7" width="31" height="30">
<path d="M16.3615 36.8091C24.5618 36.8091 31.2094 30.1615 31.2094 21.9613C31.2094 13.761 24.5618 7.11337 16.3615 7.11337C8.16129 7.11337 1.51367 13.761 1.51367 21.9613C1.51367 30.1615 8.16129 36.8091 16.3615 36.8091Z" fill="white"/>
</mask>
<g mask="url(#mask7_2057_126)">
<path d="M19.5384 12.6151C19.5384 12.6151 16.7295 16.4228 15.2483 18.0621C13.7672 19.7013 12.8398 20.5353 12.8398 20.5353L13.6964 23.5718C13.6964 23.5718 19.4876 19.6946 21.0584 15.8358C22.5043 12.2839 22.454 10.6734 22.454 10.6734L20.6927 9.92386L19.5384 12.6151Z" fill="#98B770"/>
</g>
<mask id="mask8_2057_126" style="mask-type:luminance" maskUnits="userSpaceOnUse" x="1" y="7" width="31" height="30">
<path d="M16.3615 36.8091C24.5618 36.8091 31.2094 30.1615 31.2094 21.9613C31.2094 13.761 24.5618 7.11337 16.3615 7.11337C8.16129 7.11337 1.51367 13.761 1.51367 21.9613C1.51367 30.1615 8.16129 36.8091 16.3615 36.8091Z" fill="white"/>
</mask>
<g mask="url(#mask8_2057_126)">
<path d="M9.57857 17.2108C9.57857 17.2108 10.4823 20.9016 10.3724 23.6641C10.3245 24.8708 10.3683 30.6627 9.69208 32.0498C8.48565 34.5246 5.36523 32.9097 5.36523 32.9097L5.40178 17.9766L9.57857 17.2108Z" fill="url(#paint2_linear_2057_126)"/>
</g>
<mask id="mask9_2057_126" style="mask-type:luminance" maskUnits="userSpaceOnUse" x="1" y="7" width="31" height="30">
<path d="M16.3615 36.8091C24.5618 36.8091 31.2094 30.1615 31.2094 21.9613C31.2094 13.761 24.5618 7.11337 16.3615 7.11337C8.16129 7.11337 1.51367 13.761 1.51367 21.9613C1.51367 30.1615 8.16129 36.8091 16.3615 36.8091Z" fill="white"/>
</mask>
<g mask="url(#mask9_2057_126)">
<path d="M21.6728 24.2616C21.6728 24.2616 20.4186 35.3329 24.2207 35.7851C24.2207 35.7851 27.2677 32.7689 27.2677 32.6761C27.2677 32.5833 25.6438 26.1217 25.6438 26.1217L22.7128 23.411L21.8775 23.8985L21.6728 24.2616Z" fill="url(#paint3_linear_2057_126)"/>
</g>
<mask id="mask10_2057_126" style="mask-type:luminance" maskUnits="userSpaceOnUse" x="1" y="7" width="31" height="30">
<path d="M16.3615 36.8091C24.5618 36.8091 31.2094 30.1615 31.2094 21.9613C31.2094 13.761 24.5618 7.11337 16.3615 7.11337C8.16129 7.11337 1.51367 13.761 1.51367 21.9613C1.51367 30.1615 8.16129 36.8091 16.3615 36.8091Z" fill="white"/>
</mask>
<g mask="url(#mask10_2057_126)">
<path d="M19.058 24.3854L19.0543 24.3921L18.8755 24.7065C18.8698 24.7114 18.8636 24.7161 18.8574 24.721C18.5741 24.9431 18.0197 25.0963 17.3767 25.1056C17.3557 25.1059 17.3353 25.1059 17.3143 25.1059C16.6448 25.1059 16.0633 24.9498 15.7712 24.721C15.7624 24.714 15.7535 24.707 15.7455 24.7C15.6359 24.6072 15.5734 24.5033 15.5708 24.3931L15.5703 24.3918C15.5703 24.3872 15.5706 24.3851 15.5706 24.3851H19.058V24.3854Z" fill="#C49A91"/>
</g>
<mask id="mask11_2057_126" style="mask-type:luminance" maskUnits="userSpaceOnUse" x="1" y="7" width="31" height="30">
<path d="M16.3615 36.8091C24.5618 36.8091 31.2094 30.1615 31.2094 21.9613C31.2094 13.761 24.5618 7.11337 16.3615 7.11337C8.16129 7.11337 1.51367 13.761 1.51367 21.9613C1.51367 30.1615 8.16129 36.8091 16.3615 36.8091Z" fill="white"/>
</mask>
<g mask="url(#mask11_2057_126)">
<path d="M19.0561 24.418C19.0452 24.5217 18.9812 24.6189 18.8755 24.7065C18.8698 24.7114 18.8636 24.7161 18.8574 24.721C18.5741 24.9431 18.0197 25.0963 17.3767 25.1056C17.3557 25.1059 17.3352 25.1059 17.3143 25.1059C16.6448 25.1059 16.0632 24.9498 15.7711 24.721C15.7623 24.714 15.7535 24.707 15.7455 24.7L15.5708 24.3931L15.5703 24.3918L15.5664 24.3851H19.0538C19.0538 24.3851 19.0541 24.3872 19.0543 24.3918C19.0546 24.3975 19.0554 24.4061 19.0561 24.418Z" fill="#C49A91"/>
</g>
<mask id="mask12_2057_126" style="mask-type:luminance" maskUnits="userSpaceOnUse" x="1" y="7" width="31" height="30">
<path d="M16.3615 36.8091C24.5618 36.8091 31.2094 30.1615 31.2094 21.9613C31.2094 13.761 24.5618 7.11337 16.3615 7.11337C8.16129 7.11337 1.51367 13.761 1.51367 21.9613C1.51367 30.1615 8.16129 36.8091 16.3615 36.8091Z" fill="white"/>
</mask>
<g mask="url(#mask12_2057_126)">
<path d="M11.7695 18.9152C11.7695 18.9152 12.8536 19.1886 13.0838 20.3945L13.529 20.3445C13.529 20.3445 13.1553 19.0155 12.0896 18.5751" fill="#A57A76"/>
</g>
<mask id="mask13_2057_126" style="mask-type:luminance" maskUnits="userSpaceOnUse" x="1" y="7" width="31" height="30">
<path d="M16.3615 36.8091C24.5618 36.8091 31.2094 30.1615 31.2094 21.9613C31.2094 13.761 24.5618 7.11337 16.3615 7.11337C8.16129 7.11337 1.51367 13.761 1.51367 21.9613C1.51367 30.1615 8.16129 36.8091 16.3615 36.8091Z" fill="white"/>
</mask>
<g mask="url(#mask13_2057_126)">
<path d="M25.1963 23.1212L25.1953 23.0504C25.1956 23.0502 25.1989 23.0761 25.1963 23.1212Z" fill="#98B770"/>
</g>
<mask id="mask14_2057_126" style="mask-type:luminance" maskUnits="userSpaceOnUse" x="1" y="7" width="31" height="30">
<path d="M16.3615 36.8091C24.5618 36.8091 31.2094 30.1615 31.2094 21.9613C31.2094 13.761 24.5618 7.11337 16.3615 7.11337C8.16129 7.11337 1.51367 13.761 1.51367 21.9613C1.51367 30.1615 8.16129 36.8091 16.3615 36.8091Z" fill="white"/>
</mask>
<g mask="url(#mask14_2057_126)">
<path d="M10.3711 21.2742C10.3711 21.2742 10.9915 20.2735 12.0624 20.1333C13.1333 19.9931 14.7044 20.4236 14.7345 21.2742C14.7646 22.1248 12.0425 22.0947 11.372 21.8946C10.7015 21.6945 10.3711 21.2742 10.3711 21.2742Z" fill="#B58A83"/>
<path d="M15.5956 22.5892C15.5956 24.7211 12.8637 24.9876 12.5534 24.9876C12.2432 24.9876 9.69141 25.128 9.69141 22.7162C9.69141 22.2238 9.80492 21.8503 9.98583 21.5676C10.0141 21.523 10.0436 21.4813 10.0752 21.4413C10.1403 21.3584 10.2118 21.2848 10.2883 21.219C11.0896 20.5309 12.4135 20.7447 12.4135 20.7447C12.4135 20.7447 15.5956 20.4578 15.5956 22.5892Z" fill="#B58A83"/>
<path d="M15.2199 23.5215C15.2199 23.5215 15.7452 23.0112 15.9354 22.2456C16.1257 21.48 17.2616 21.1348 17.3065 20.8844C17.3513 20.6341 16.7311 20.5442 16.4408 20.7743C16.1506 21.0044 15.9875 21.261 15.5402 21.4147C15.2774 21.5049 15.1289 21.4305 15.1289 21.4305L15.2199 23.5215Z" fill="#B58A83"/>
<path d="M12.6586 20.7128C12.9597 20.7128 13.2039 20.5495 13.2039 20.3481C13.2039 20.1468 12.9597 19.9835 12.6586 19.9835C12.3574 19.9835 12.1133 20.1468 12.1133 20.3481C12.1133 20.5495 12.3574 20.7128 12.6586 20.7128Z" fill="#B58A83"/>
<path d="M10.5527 21.4541C10.5527 21.4541 11.0786 22.2625 12.7438 22.128C14.1708 22.0124 14.6754 21.2297 14.6754 21.2297C14.6754 21.2297 13.6776 22.0565 12.4799 22.0116C11.282 21.9668 10.5527 21.4541 10.5527 21.4541Z" fill="#936763"/>
<path d="M12.1133 20.4305C12.1133 20.4305 12.1273 20.7918 12.6293 20.7833C13.1313 20.7747 13.1808 20.3805 13.1808 20.3805C13.1808 20.3805 13.024 20.6941 12.6739 20.6941C12.2496 20.6941 12.1133 20.4305 12.1133 20.4305Z" fill="#936763"/>
<path d="M16.8927 20.9544C17.061 20.9544 17.1975 20.8963 17.1975 20.8246C17.1975 20.7529 17.061 20.6947 16.8927 20.6947C16.7243 20.6947 16.5879 20.7529 16.5879 20.8246C16.5879 20.8963 16.7243 20.9544 16.8927 20.9544Z" fill="#936763"/>
<path d="M10.5762 22.1959C10.5762 22.1959 10.9826 22.4701 11.0523 22.0349C11.0523 22.0349 10.9019 22.1923 10.7965 22.2218C10.6907 22.2516 10.5762 22.1959 10.5762 22.1959Z" fill="#936763"/>
<path d="M10.5531 22.1832C10.2662 22.065 10.075 21.7473 9.98633 21.5672C10.0146 21.5226 10.0441 21.4809 10.0757 21.441C10.1408 21.358 10.2123 21.2844 10.2888 21.2186C10.3354 21.4588 10.3655 21.9059 10.4575 21.9785C10.6026 22.0917 10.5531 22.1832 10.5531 22.1832Z" fill="#936763"/>
<path d="M11.0686 22.0124C11.0686 22.0124 11.0253 22.0836 10.947 22.1438C10.9146 22.1689 10.8765 22.1922 10.8325 22.2078C10.8322 22.2078 10.832 22.208 10.8317 22.208C10.798 22.22 10.7615 22.2272 10.7218 22.2272C10.692 22.2272 10.6607 22.2233 10.628 22.2135H10.6277C10.6112 22.2093 10.5943 22.2031 10.5772 22.1956C10.5694 22.1922 10.5611 22.1878 10.5531 22.1826C10.4222 22.0997 10.2548 21.7934 10.1257 21.3802C9.9736 20.8946 9.87434 20.2606 9.9495 19.6664C9.95857 19.5912 9.97101 19.5163 9.98604 19.4427L10.2963 19.4126C10.2963 19.4126 10.2693 19.5819 10.2551 19.8356C10.2356 20.1868 10.2408 20.6997 10.3766 21.148C10.3849 21.175 10.3935 21.2019 10.403 21.2284C10.4189 21.275 10.4367 21.3206 10.4562 21.3652V21.3655C10.5798 21.6529 10.7731 21.8921 11.0686 22.0124Z" fill="#B58A83"/>
</g>
<mask id="mask15_2057_126" style="mask-type:luminance" maskUnits="userSpaceOnUse" x="1" y="7" width="31" height="30">
<path d="M16.3615 36.8091C24.5618 36.8091 31.2094 30.1615 31.2094 21.9613C31.2094 13.761 24.5618 7.11337 16.3615 7.11337C8.16129 7.11337 1.51367 13.761 1.51367 21.9613C1.51367 30.1615 8.16129 36.8091 16.3615 36.8091Z" fill="white"/>
</mask>
<g mask="url(#mask15_2057_126)">
<path opacity="0.48" d="M8.18359 17.7296C8.18359 17.7296 8.83826 18.1264 8.9002 18.0852C8.96214 18.044 9.68911 17.4769 9.68911 17.4769L9.5756 17.2108H9.02382L8.18359 17.7296Z" fill="#A9C999"/>
</g>
<mask id="mask16_2057_126" style="mask-type:luminance" maskUnits="userSpaceOnUse" x="1" y="7" width="31" height="30">
<path d="M16.3615 36.8091C24.5618 36.8091 31.2094 30.1615 31.2094 21.9613C31.2094 13.761 24.5618 7.11337 16.3615 7.11337C8.16129 7.11337 1.51367 13.761 1.51367 21.9613C1.51367 30.1615 8.16129 36.8091 16.3615 36.8091Z" fill="white"/>
</mask>
<g mask="url(#mask16_2057_126)">
<path opacity="0.48" d="M21.6582 24.3917L23.7171 25.3149L23.3923 23.8988L22.2167 23.5663L21.7373 24.0802L21.6719 24.2619L21.6582 24.3917Z" fill="#A9C999"/>
</g>
<mask id="mask17_2057_126" style="mask-type:luminance" maskUnits="userSpaceOnUse" x="1" y="7" width="31" height="30">
<path d="M16.3615 36.8091C24.5618 36.8091 31.2094 30.1615 31.2094 21.9613C31.2094 13.761 24.5618 7.11337 16.3615 7.11337C8.16129 7.11337 1.51367 13.761 1.51367 21.9613C1.51367 30.1615 8.16129 36.8091 16.3615 36.8091Z" fill="white"/>
</mask>
<g mask="url(#mask17_2057_126)">
<path d="M13.4965 17.624C13.4828 17.6584 13.4522 17.6851 13.4172 17.6999C13.3817 17.7147 13.3428 17.7162 13.305 17.7123C13.2285 17.6996 13.1627 17.6561 13.1103 17.6017C13.0852 17.5734 13.0608 17.5421 13.0536 17.5006C13.0523 17.4902 13.0523 17.4793 13.0551 17.4685C13.0582 17.4576 13.0647 17.4475 13.0722 17.4402C13.086 17.4262 13.1026 17.4153 13.1197 17.4068C13.1889 17.3741 13.27 17.3715 13.3381 17.4003C13.3029 17.3902 13.2658 17.3889 13.2303 17.3933C13.1946 17.3972 13.1596 17.407 13.1292 17.4244C13.1142 17.4335 13.1005 17.4438 13.0888 17.456C13.0782 17.4669 13.0753 17.4812 13.0782 17.497C13.0841 17.5286 13.1062 17.5586 13.1298 17.584C13.1536 17.61 13.1816 17.6325 13.2117 17.6514C13.2417 17.6703 13.2744 17.6851 13.3086 17.6926C13.3428 17.6986 13.3799 17.6994 13.4133 17.688C13.4467 17.6779 13.4776 17.6553 13.4965 17.624Z" fill="#E3B19B"/>
</g>
<mask id="mask18_2057_126" style="mask-type:luminance" maskUnits="userSpaceOnUse" x="1" y="7" width="31" height="30">
<path d="M16.3615 36.8091C24.5618 36.8091 31.2094 30.1615 31.2094 21.9613C31.2094 13.761 24.5618 7.11337 16.3615 7.11337C8.16129 7.11337 1.51367 13.761 1.51367 21.9613C1.51367 30.1615 8.16129 36.8091 16.3615 36.8091Z" fill="white"/>
</mask>
<g mask="url(#mask18_2057_126)">
<path d="M12.5533 19.6996C12.5297 19.7089 12.5027 19.7079 12.4786 19.6996C12.4542 19.691 12.433 19.6752 12.4154 19.6566C12.3983 19.6371 12.3845 19.6153 12.3729 19.5928C12.3615 19.5703 12.3506 19.548 12.34 19.5249C12.3293 19.5021 12.3192 19.4785 12.313 19.4528C12.3068 19.4277 12.3057 19.3976 12.3192 19.3717C12.3324 19.3461 12.3542 19.329 12.3755 19.3147C12.397 19.2999 12.42 19.2888 12.4426 19.2774C12.4879 19.2572 12.5297 19.232 12.5758 19.2087C12.5882 19.204 12.6002 19.1968 12.6186 19.1991C12.6227 19.1999 12.6271 19.202 12.6313 19.2035C12.6349 19.2056 12.6377 19.2087 12.6411 19.2113C12.6463 19.217 12.6504 19.2235 12.6536 19.2294C12.6655 19.2541 12.6712 19.2784 12.6771 19.303C12.7012 19.4005 12.7075 19.507 12.6714 19.6014C12.6849 19.5531 12.6875 19.5029 12.6841 19.4536C12.6815 19.4041 12.672 19.3557 12.658 19.3082C12.651 19.2846 12.644 19.2603 12.6339 19.2398C12.6284 19.23 12.6222 19.2219 12.6155 19.2217C12.6082 19.2204 12.5965 19.2256 12.5864 19.23C12.5437 19.2522 12.4999 19.2797 12.454 19.3007C12.4317 19.3113 12.4094 19.3217 12.3895 19.3352C12.3695 19.3481 12.3506 19.3632 12.3405 19.3826C12.3301 19.4018 12.3301 19.4249 12.3353 19.4479C12.3405 19.471 12.3493 19.4941 12.3586 19.5171C12.3783 19.563 12.3952 19.6104 12.4255 19.6483C12.4408 19.6669 12.4594 19.6835 12.4817 19.6934C12.5032 19.7024 12.5289 19.7061 12.5533 19.6996Z" fill="#E3B19B"/>
</g>
<mask id="mask19_2057_126" style="mask-type:luminance" maskUnits="userSpaceOnUse" x="1" y="7" width="31" height="30">
<path d="M16.3615 36.8091C24.5618 36.8091 31.2094 30.1615 31.2094 21.9613C31.2094 13.761 24.5618 7.11337 16.3615 7.11337C8.16129 7.11337 1.51367 13.761 1.51367 21.9613C1.51367 30.1615 8.16129 36.8091 16.3615 36.8091Z" fill="white"/>
</mask>
<g mask="url(#mask19_2057_126)">
<path d="M24.8942 26.8568C24.6397 26.927 24.2051 26.9786 23.4667 26.9613C23.0686 25.7517 22.4414 24.4999 22.4414 24.4999H22.4417C22.9424 24.5891 23.4574 24.5523 23.9347 24.3851C23.9347 24.3851 24.7828 25.6905 24.7931 25.7421C24.7983 25.7662 24.846 26.2952 24.8942 26.8568Z" fill="#E3B19B"/>
</g>
<mask id="mask20_2057_126" style="mask-type:luminance" maskUnits="userSpaceOnUse" x="1" y="7" width="31" height="30">
<path d="M16.3615 36.8091C24.5618 36.8091 31.2094 30.1615 31.2094 21.9613C31.2094 13.761 24.5618 7.11337 16.3615 7.11337C8.16129 7.11337 1.51367 13.761 1.51367 21.9613C1.51367 30.1615 8.16129 36.8091 16.3615 36.8091Z" fill="white"/>
</mask>
<g mask="url(#mask20_2057_126)">
<path opacity="0.42" d="M10.294 19.4131C10.294 19.4131 10.2671 19.5824 10.2528 19.8361L9.94727 19.6669C9.95634 19.5917 9.96878 19.5168 9.98381 19.4432L10.294 19.4131Z" fill="#B58A83"/>
</g>
<mask id="mask21_2057_126" style="mask-type:luminance" maskUnits="userSpaceOnUse" x="1" y="7" width="31" height="30">
<path d="M16.3615 36.8091C24.5618 36.8091 31.2094 30.1615 31.2094 21.9613C31.2094 13.761 24.5618 7.11337 16.3615 7.11337C8.16129 7.11337 1.51367 13.761 1.51367 21.9613C1.51367 30.1615 8.16129 36.8091 16.3615 36.8091Z" fill="white"/>
</mask>
<g mask="url(#mask21_2057_126)">
<path d="M13.6045 17.745C13.5685 17.8845 13.1123 17.9617 12.7798 17.6136C12.4473 17.2656 12.1534 17.0569 12.0453 17.0489C11.937 17.0414 11.4189 17.0722 11.4189 17.0722C11.4189 17.0722 12.3237 17.9306 12.4009 18.1626C12.4781 18.3945 12.834 19.2399 12.8031 19.5172C12.7723 19.7943 12.4087 19.8446 12.4087 19.8446C12.4087 19.8446 12.2547 20.0701 11.9756 20.0882C11.6962 20.1066 11.5889 19.9687 11.5889 19.9687C11.5889 19.9687 11.5039 20.2041 11.2489 20.1732C10.9936 20.1424 10.5916 19.7557 10.2666 19.624C9.94188 19.4926 9.75632 19.2519 9.53214 19.3454C9.3077 19.4387 8.6253 19.8446 8.29382 19.7847C8.12847 19.7546 7.88329 19.5958 7.67855 19.4431C7.47199 19.2894 7.30664 19.1427 7.30664 19.1427C7.30664 19.1427 7.30742 18.9854 7.35511 18.7636C7.43182 18.4049 7.63034 17.878 8.1448 17.5753C8.1448 17.5753 8.16631 17.5857 8.20415 17.5999C8.30134 17.6364 8.50738 17.6999 8.74011 17.6865C8.92568 17.6756 9.12835 17.616 9.30614 17.4543C9.79234 17.0108 10.9472 16.0519 11.2771 16.0519C11.6073 16.0519 11.852 16.2994 12.0147 16.3225C12.177 16.3458 12.5191 16.3458 12.7194 16.4852C12.9198 16.6241 13.1362 17.2044 13.3295 17.3283C13.5221 17.4511 13.6402 17.6059 13.6045 17.745Z" fill="#EDCBBC"/>
<path opacity="0.5" d="M10.0589 17.7299C10.0483 17.7413 10.2777 17.3531 10.5319 17.3997C10.5319 17.3997 10.2595 17.514 10.0589 17.7299Z" fill="#E3B19B"/>
<path opacity="0.5" d="M11.4394 17.0438C11.4394 17.0438 11.1766 16.6265 11.0195 16.6807C11.0195 16.6807 11.089 16.5578 11.2295 16.6758C11.3699 16.7937 11.4394 17.0438 11.4394 17.0438Z" fill="#E3B19B"/>
<path opacity="0.5" d="M11.5902 19.9687C11.5902 19.9687 11.4362 19.7417 11.2776 19.5175C11.119 19.2933 10.532 18.6861 10.35 18.5044C10.1678 18.3227 10.1331 18.5586 10.2956 18.6436C10.4581 18.7286 10.9762 19.1964 11.0998 19.3454C11.2234 19.4942 11.408 19.8244 11.5902 19.9687Z" fill="#E3B19B"/>
<path opacity="0.5" d="M12.4091 19.8448C12.4091 19.8448 11.7511 18.6938 11.6531 18.5394C11.5552 18.3846 10.8417 17.8484 10.786 17.6525C10.7302 17.4565 11.5344 18.3071 11.6944 18.529C11.8543 18.7508 12.4091 19.8448 12.4091 19.8448Z" fill="#E3B19B"/>
<path opacity="0.5" d="M8.73985 17.6862C8.46772 17.9592 7.84571 18.6532 7.67855 19.4432C7.47199 19.2895 7.30664 19.1428 7.30664 19.1428C7.30664 19.1428 7.30742 18.9855 7.35511 18.7636C7.62101 18.3039 7.98644 17.6769 8.00277 17.6736C8.01158 17.672 8.09581 17.6409 8.20415 17.5999C8.30108 17.6362 8.50712 17.6995 8.73985 17.6862Z" fill="#E3B19B"/>
<path d="M13.4988 17.6842C13.4563 17.7033 13.4087 17.7114 13.3615 17.7098C13.3141 17.7077 13.2666 17.6943 13.2254 17.6691C13.1837 17.6442 13.15 17.61 13.1202 17.5727C13.1052 17.5541 13.0932 17.5323 13.0842 17.509C13.0754 17.4856 13.0728 17.4576 13.0818 17.4322C13.0912 17.4066 13.1109 17.3871 13.1321 17.3742C13.1539 17.3612 13.1767 17.3532 13.2005 17.3472C13.227 17.3418 13.2529 17.3472 13.2754 17.3563C13.2985 17.3651 13.319 17.3776 13.3384 17.3916C13.4151 17.4478 13.4766 17.5196 13.5299 17.5955C13.4991 17.5605 13.4677 17.5266 13.4338 17.495C13.4006 17.4631 13.3654 17.4325 13.3273 17.4079C13.3081 17.3957 13.2881 17.3851 13.2677 17.3776C13.2472 17.37 13.2254 17.3667 13.206 17.3711C13.185 17.3768 13.1637 17.3843 13.1456 17.3954C13.1275 17.4066 13.1127 17.4221 13.1062 17.4408C13.0995 17.4592 13.1008 17.4807 13.108 17.5007C13.1155 17.5206 13.1259 17.5403 13.1396 17.5582C13.1663 17.5942 13.199 17.6274 13.2358 17.6525C13.2728 17.6779 13.3169 17.6927 13.3623 17.6974C13.4076 17.7028 13.4545 17.6976 13.4988 17.6842Z" fill="#E3B19B"/>
<path d="M12.5073 19.7348C12.5625 19.7245 12.6089 19.6882 12.6403 19.6441C12.6722 19.5998 12.6924 19.5475 12.702 19.4938C12.7077 19.4671 12.7085 19.4399 12.709 19.4127C12.7082 19.3855 12.7053 19.3585 12.6996 19.3321C12.6937 19.3056 12.6851 19.2797 12.6737 19.2556C12.668 19.2437 12.6615 19.2318 12.654 19.2219C12.6522 19.2191 12.6504 19.2175 12.6486 19.2157C12.6473 19.2142 12.6473 19.2149 12.6481 19.2149C12.6486 19.2152 12.6478 19.2144 12.6496 19.2149C12.6512 19.2155 12.6533 19.2144 12.6525 19.2147C12.6504 19.2157 12.6437 19.2204 12.639 19.2245C12.5973 19.2595 12.5563 19.2986 12.5128 19.3342C12.491 19.352 12.4687 19.3694 12.4449 19.3852C12.4208 19.4005 12.3962 19.416 12.3651 19.4212C12.3562 19.4225 12.3516 19.422 12.348 19.4241C12.3443 19.4262 12.3415 19.4293 12.3399 19.4347C12.3368 19.4453 12.3378 19.4591 12.3399 19.4723C12.3443 19.4987 12.3534 19.5252 12.363 19.5511C12.3819 19.6032 12.4063 19.6534 12.4309 19.7035C12.4011 19.6563 12.3744 19.6071 12.3511 19.5557C12.3399 19.5298 12.3298 19.5036 12.3236 19.4751C12.321 19.4609 12.3184 19.4461 12.3223 19.4295C12.3244 19.4212 12.3298 19.4124 12.3384 19.4075C12.3469 19.4023 12.357 19.4026 12.3617 19.4015C12.3861 19.3964 12.4096 19.3813 12.4322 19.3665C12.4547 19.3513 12.4762 19.3339 12.4975 19.316C12.54 19.2802 12.5791 19.2416 12.6224 19.2043C12.6286 19.1996 12.6328 19.1955 12.6434 19.1906C12.6543 19.1862 12.6631 19.1945 12.6654 19.1965C12.6688 19.1996 12.6717 19.203 12.6737 19.2061C12.6831 19.2186 12.6898 19.2315 12.696 19.2447C12.7079 19.2712 12.7168 19.2986 12.7227 19.3269C12.7339 19.3831 12.7349 19.4417 12.7214 19.4974C12.7087 19.5532 12.6857 19.6065 12.6501 19.6514C12.6144 19.6952 12.5638 19.7302 12.5073 19.7348Z" fill="#E3B19B"/>
<path d="M12.0288 19.9841C11.9852 19.995 11.9378 19.9841 11.8984 19.962C11.8588 19.9392 11.8277 19.904 11.8033 19.8661C11.7795 19.828 11.7577 19.7889 11.7401 19.7472C11.7313 19.7265 11.7237 19.7049 11.7175 19.6832C11.7116 19.6606 11.7061 19.6396 11.7072 19.6132L11.7074 19.6046L11.7167 19.6028C11.7885 19.5888 11.8598 19.5707 11.9293 19.5492C11.9637 19.5378 11.9985 19.5256 12.028 19.5075C12.0358 19.5028 12.0412 19.4981 12.048 19.4919C12.0552 19.4852 12.0627 19.4784 12.0736 19.4735C12.0791 19.4712 12.0858 19.4694 12.0933 19.4704C12.1008 19.4714 12.1071 19.4756 12.1115 19.4795C12.1205 19.488 12.1247 19.4971 12.1291 19.5056C12.1454 19.5409 12.1545 19.5761 12.1664 19.6111C12.1773 19.6461 12.191 19.6801 12.2011 19.7166C12.211 19.7526 12.2151 19.7905 12.2128 19.8278C12.2102 19.8648 12.2017 19.9024 12.1814 19.9335C12.2144 19.8667 12.2081 19.7887 12.1871 19.7205C12.1763 19.6863 12.1607 19.6521 12.1483 19.6173C12.135 19.5831 12.1236 19.5474 12.1089 19.5155C12.105 19.508 12.1006 19.5002 12.0959 19.4963C12.091 19.4922 12.0892 19.4922 12.0827 19.4945C12.0767 19.4973 12.0703 19.5028 12.064 19.5087C12.0573 19.5152 12.0487 19.5225 12.0407 19.5274C12.0075 19.5481 11.9723 19.5608 11.9368 19.573C11.866 19.5966 11.7935 19.6122 11.7206 19.6264L11.7305 19.616C11.7297 19.6339 11.7341 19.657 11.7396 19.6772C11.7453 19.6979 11.7523 19.7187 11.7605 19.7389C11.7771 19.7793 11.7961 19.8192 11.8181 19.8571C11.8396 19.8947 11.8684 19.9283 11.9041 19.953C11.9402 19.9768 11.9847 19.9903 12.0288 19.9841Z" fill="#E3B19B"/>
<path d="M11.4163 20.0633C11.4314 20.0542 11.4456 20.0433 11.4575 20.0309C11.4695 20.0187 11.4791 20.0034 11.4798 19.9879C11.4811 19.9723 11.4715 19.9586 11.4614 19.9446C11.4508 19.9311 11.4394 19.9179 11.4272 19.9052C11.379 19.8544 11.3277 19.8057 11.2759 19.7582L11.2963 19.7538C11.2875 19.7725 11.2772 19.788 11.2652 19.8036C11.2533 19.8189 11.2398 19.8329 11.2253 19.8456C11.2106 19.8583 11.1942 19.8692 11.1769 19.878C11.1598 19.8873 11.1408 19.893 11.1222 19.8977L11.1284 19.8824C11.1473 19.9124 11.1709 19.9412 11.196 19.9676C11.2207 19.9949 11.2484 20.0192 11.2772 20.0425C11.245 20.0241 11.2152 20.0016 11.187 19.977C11.1595 19.9516 11.1338 19.9246 11.1113 19.8933L11.1035 19.8826L11.1173 19.878C11.1341 19.8723 11.1507 19.8666 11.166 19.8577C11.1815 19.8492 11.1958 19.8388 11.209 19.8269C11.2222 19.8152 11.2344 19.8023 11.2453 19.788C11.2559 19.774 11.2658 19.7582 11.273 19.7435L11.2808 19.7274L11.2935 19.739C11.3453 19.7878 11.3964 19.8373 11.442 19.8922C11.4534 19.906 11.4643 19.9202 11.4746 19.9352C11.484 19.95 11.4956 19.9684 11.4923 19.9891C11.4889 20.0091 11.4759 20.0244 11.4622 20.0358C11.4485 20.0477 11.4327 20.0565 11.4163 20.0633Z" fill="#E3B19B"/>
</g>
<mask id="mask22_2057_126" style="mask-type:luminance" maskUnits="userSpaceOnUse" x="1" y="7" width="31" height="30">
<path d="M16.3615 36.8091C24.5618 36.8091 31.2094 30.1615 31.2094 21.9613C31.2094 13.761 24.5618 7.11337 16.3615 7.11337C8.16129 7.11337 1.51367 13.761 1.51367 21.9613C1.51367 30.1615 8.16129 36.8091 16.3615 36.8091Z" fill="white"/>
</mask>
<g mask="url(#mask22_2057_126)">
<path d="M2.77885 23.9246C2.88615 26.7752 2.60728 31.3719 5.33997 32.1906L5.34101 32.1908C5.34101 32.1908 7.98299 31.9306 8.06308 27.7875C8.14316 23.6444 5.52631 18.332 9.57793 17.211C9.57793 17.211 9.59866 16.794 8.14316 16.3522C7.18371 16.0608 7.62378 12.0738 7.62378 12.0738C7.27572 12.0266 6.88204 13.2545 6.67911 13.9872C6.52127 14.5574 6.26806 15.098 5.91948 15.5762C5.67845 15.9066 5.42861 16.1832 5.2008 16.4061C3.89743 17.6825 3.08052 19.3746 2.87008 21.1867C2.77989 21.9629 2.7392 22.87 2.77885 23.9246Z" fill="#98B770"/>
</g>
<mask id="mask23_2057_126" style="mask-type:luminance" maskUnits="userSpaceOnUse" x="1" y="7" width="31" height="30">
<path d="M16.3615 36.8091C24.5618 36.8091 31.2094 30.1615 31.2094 21.9613C31.2094 13.761 24.5618 7.11337 16.3615 7.11337C8.16129 7.11337 1.51367 13.761 1.51367 21.9613C1.51367 30.1615 8.16129 36.8091 16.3615 36.8091Z" fill="white"/>
</mask>
<g mask="url(#mask23_2057_126)">
<path d="M21.6119 24.2973C21.1456 23.8989 20.4635 23.8409 20.0763 23.823C19.7917 23.8098 19.5906 23.6636 19.0075 23.654C18.4243 23.6444 18.3564 23.1877 18.133 23.343C17.9096 23.4985 18.0068 24.0912 18.3663 24.2757C18.7257 24.4603 18.9564 24.2146 19.1132 24.3325C19.27 24.4504 19.6207 24.6197 19.6207 24.6197L21.1451 24.1617" fill="#E2B29D"/>
</g>
<mask id="mask24_2057_126" style="mask-type:luminance" maskUnits="userSpaceOnUse" x="1" y="7" width="31" height="30">
<path d="M16.3615 36.8091C24.5618 36.8091 31.2094 30.1615 31.2094 21.9613C31.2094 13.761 24.5618 7.11337 16.3615 7.11337C8.16129 7.11337 1.51367 13.761 1.51367 21.9613C1.51367 30.1615 8.16129 36.8091 16.3615 36.8091Z" fill="white"/>
</mask>
<g mask="url(#mask24_2057_126)">
<path d="M19.0469 25.1763C19.0386 25.2834 19.0266 25.3966 19.0098 25.5135C18.9774 25.7403 18.9269 25.98 18.8489 26.2104C18.8315 26.2612 18.8131 26.3115 18.7931 26.3613C18.7423 26.4903 18.6814 26.6142 18.6094 26.7295C18.6071 26.7337 18.6045 26.7378 18.6021 26.7415C18.3417 27.1533 17.9381 27.4526 17.3151 27.4526C15.4112 27.4526 15.5613 24.5489 15.5709 24.3913L15.5714 24.3926C15.5742 24.5027 15.6364 24.6067 15.7461 24.6995C15.7544 24.7064 15.7629 24.7134 15.7717 24.7204C16.0638 24.9495 16.6454 25.1053 17.3148 25.1053C17.3358 25.1053 17.3563 25.1053 17.3773 25.105C18.0203 25.0957 18.5747 24.9423 18.8579 24.7204C18.8644 24.7155 18.8704 24.7109 18.8761 24.7059C18.9818 24.6183 19.0458 24.5211 19.0567 24.4175C19.0624 24.5123 19.0761 24.8065 19.0469 25.1763Z" fill="#B58A83"/>
</g>
<mask id="mask25_2057_126" style="mask-type:luminance" maskUnits="userSpaceOnUse" x="1" y="7" width="31" height="30">
<path d="M16.3615 36.8091C24.5618 36.8091 31.2094 30.1615 31.2094 21.9613C31.2094 13.761 24.5618 7.11337 16.3615 7.11337C8.16129 7.11337 1.51367 13.761 1.51367 21.9613C1.51367 30.1615 8.16129 36.8091 16.3615 36.8091Z" fill="white"/>
</mask>
<g mask="url(#mask25_2057_126)">
<path d="M19.058 24.3845C19.058 24.3954 19.0575 24.4062 19.0562 24.4171C19.0492 24.4832 19.0207 24.5467 18.9735 24.6068C18.9572 24.6278 18.9388 24.648 18.918 24.6677C18.9048 24.6807 18.8908 24.6931 18.8755 24.7056C18.8698 24.7105 18.8636 24.7152 18.8574 24.7201C18.5741 24.9422 18.0197 25.0954 17.3767 25.1047C17.3557 25.105 17.3353 25.105 17.3143 25.105C16.6448 25.105 16.0633 24.9489 15.7712 24.7201C15.7624 24.7131 15.7535 24.7061 15.7455 24.6991C15.7331 24.6887 15.7217 24.6781 15.7103 24.6672C15.6898 24.6475 15.6709 24.627 15.6548 24.6063C15.6017 24.5387 15.5724 24.4669 15.5706 24.3922C15.5703 24.3896 15.5703 24.3871 15.5703 24.3845C15.5703 23.9864 16.3512 23.664 17.314 23.664C18.2771 23.6637 19.058 23.9864 19.058 24.3845Z" fill="#936763"/>
</g>
<mask id="mask26_2057_126" style="mask-type:luminance" maskUnits="userSpaceOnUse" x="1" y="7" width="31" height="30">
<path d="M16.3615 36.8091C24.5618 36.8091 31.2094 30.1615 31.2094 21.9613C31.2094 13.761 24.5618 7.11337 16.3615 7.11337C8.16129 7.11337 1.51367 13.761 1.51367 21.9613C1.51367 30.1615 8.16129 36.8091 16.3615 36.8091Z" fill="white"/>
</mask>
<g mask="url(#mask26_2057_126)">
<path d="M18.9167 24.6683C18.9035 24.6813 18.8895 24.6937 18.8742 24.7062C18.8685 24.7111 18.8623 24.7158 18.8561 24.7207C18.5728 24.9428 18.0185 25.096 17.3755 25.1053C17.3545 25.1055 17.334 25.1055 17.313 25.1055C16.6436 25.1055 16.062 24.9495 15.7699 24.7207C15.7611 24.7137 15.7523 24.7067 15.7442 24.6997C15.7318 24.6893 15.7204 24.6787 15.709 24.6678C16.0723 24.4734 16.6555 24.348 17.3127 24.348C17.9702 24.348 18.5534 24.4734 18.9167 24.6683Z" fill="#46543C"/>
</g>
<mask id="mask27_2057_126" style="mask-type:luminance" maskUnits="userSpaceOnUse" x="1" y="7" width="31" height="30">
<path d="M16.3615 36.8091C24.5618 36.8091 31.2094 30.1615 31.2094 21.9613C31.2094 13.761 24.5618 7.11337 16.3615 7.11337C8.16129 7.11337 1.51367 13.761 1.51367 21.9613C1.51367 30.1615 8.16129 36.8091 16.3615 36.8091Z" fill="white"/>
</mask>
<g mask="url(#mask27_2057_126)">
<path opacity="0.5" d="M16.0383 24.7264C16.0059 24.7345 16.6543 24.3804 17.4666 24.5196C17.4663 24.5196 17.126 24.4561 16.0383 24.7264Z" fill="#CBDDBC"/>
</g>
<mask id="mask28_2057_126" style="mask-type:luminance" maskUnits="userSpaceOnUse" x="1" y="7" width="31" height="30">
<path d="M16.3615 36.8091C24.5618 36.8091 31.2094 30.1615 31.2094 21.9613C31.2094 13.761 24.5618 7.11337 16.3615 7.11337C8.16129 7.11337 1.51367 13.761 1.51367 21.9613C1.51367 30.1615 8.16129 36.8091 16.3615 36.8091Z" fill="white"/>
</mask>
<g mask="url(#mask28_2057_126)">
<path d="M19.0443 25.1771C19.036 25.2842 19.0241 25.3974 19.0073 25.5143C18.9557 25.5335 18.893 25.5465 18.8165 25.5503C18.3565 25.5737 18.097 25.8984 17.5792 25.9876C17.0609 26.0762 17.0723 25.8258 17.0723 25.8258C17.0723 25.8258 18.4995 25.1675 18.519 25.1756C18.5314 25.1802 18.8359 25.1787 19.0443 25.1771Z" fill="#A57A76"/>
</g>
<mask id="mask29_2057_126" style="mask-type:luminance" maskUnits="userSpaceOnUse" x="1" y="7" width="31" height="30">
<path d="M16.3615 36.8091C24.5618 36.8091 31.2094 30.1615 31.2094 21.9613C31.2094 13.761 24.5618 7.11337 16.3615 7.11337C8.16129 7.11337 1.51367 13.761 1.51367 21.9613C1.51367 30.1615 8.16129 36.8091 16.3615 36.8091Z" fill="white"/>
</mask>
<g mask="url(#mask29_2057_126)">
<path d="M18.8474 26.2109C18.83 26.2617 18.8116 26.312 18.7917 26.3617C18.7409 26.4908 18.68 26.6147 18.6079 26.73C18.6056 26.7341 18.603 26.7383 18.6007 26.7419L17.2566 27.2888C17.254 27.2657 17.1765 26.9708 17.5425 26.7901C17.7959 26.6652 18.4934 26.3568 18.8474 26.2109Z" fill="#A57A76"/>
</g>
<mask id="mask30_2057_126" style="mask-type:luminance" maskUnits="userSpaceOnUse" x="1" y="7" width="31" height="30">
<path d="M16.3615 36.8091C24.5618 36.8091 31.2094 30.1615 31.2094 21.9613C31.2094 13.761 24.5618 7.11337 16.3615 7.11337C8.16129 7.11337 1.51367 13.761 1.51367 21.9613C1.51367 30.1615 8.16129 36.8091 16.3615 36.8091Z" fill="white"/>
</mask>
<g mask="url(#mask30_2057_126)">
<path d="M24.9845 26.4897C24.9822 26.6014 24.9786 26.7154 24.9744 26.8308C24.9493 26.8396 24.9221 26.8481 24.8923 26.8562C24.6707 26.9173 24.3117 26.9642 23.7338 26.964C23.6493 26.964 23.5596 26.9632 23.4647 26.9606C23.3473 26.9578 23.2222 26.9534 23.0889 26.9469C22.4877 26.9178 21.1846 27.7532 20.8642 27.9768C20.5434 28.2005 20.3106 28.3363 19.8633 28.2974C19.4162 28.2585 18.8818 28.0061 18.8818 28.0061C18.8818 28.0061 18.5224 28.0157 18.153 27.9089C17.784 27.8019 17.8423 27.6176 17.8423 27.6176C17.8423 27.6176 17.2887 27.6176 17.2335 27.4134C17.1783 27.2094 17.3952 26.9956 17.7062 26.8888C18.017 26.7818 19.7757 26.0631 19.9605 25.9301C20.145 25.7975 20.1357 25.5766 20.1357 25.5766C20.1357 25.5766 20.1041 25.4481 19.8999 25.3794C19.7521 25.3297 19.2416 25.3828 18.9251 25.3538C18.6081 25.3247 17.9203 25.7327 17.6775 25.8397C17.4346 25.9467 17.0363 25.9369 17.0067 25.7036C16.9777 25.4704 17.6775 25.0588 18.1541 24.8258C18.6429 24.5869 18.6338 24.6003 19.324 24.5405C20.0136 24.4809 20.2145 24.104 20.68 23.9988C21.0223 23.9218 21.515 24.2362 21.9807 24.3847C22.0556 24.4086 22.1352 24.4311 22.2161 24.4513C22.2902 24.47 22.3648 24.486 22.4397 24.4995H22.44C22.5447 24.5179 22.6502 24.5314 22.7559 24.5389C23.1327 24.5659 23.5114 24.5223 23.8703 24.406C23.8913 24.399 23.9121 24.392 23.9331 24.3847C24.0487 24.3445 24.1622 24.2963 24.2726 24.2406C24.4361 24.1579 24.5709 24.0711 24.6818 23.9825C24.8456 24.3246 24.9568 24.7025 24.9762 25.0972C24.9959 25.5061 24.9975 25.9784 24.9845 26.4897Z" fill="#EDCBBC"/>
</g>
<mask id="mask31_2057_126" style="mask-type:luminance" maskUnits="userSpaceOnUse" x="1" y="7" width="31" height="30">
<path d="M16.3615 36.8091C24.5618 36.8091 31.2094 30.1615 31.2094 21.9613C31.2094 13.761 24.5618 7.11337 16.3615 7.11337C8.16129 7.11337 1.51367 13.761 1.51367 21.9613C1.51367 30.1615 8.16129 36.8091 16.3615 36.8091Z" fill="white"/>
</mask>
<g mask="url(#mask31_2057_126)">
<path d="M17.8438 27.6183C17.8438 27.6183 18.8473 27.369 19.3018 27.1603C19.7564 26.9515 20.5277 26.3919 20.7789 26.436C21.029 26.4798 19.5372 27.0315 19.3653 27.1474C19.1935 27.2632 18.4196 27.5864 17.8438 27.6183Z" fill="#E2B29D"/>
</g>
<mask id="mask32_2057_126" style="mask-type:luminance" maskUnits="userSpaceOnUse" x="1" y="7" width="31" height="30">
<path d="M16.3615 36.8091C24.5618 36.8091 31.2094 30.1615 31.2094 21.9613C31.2094 13.761 24.5618 7.11337 16.3615 7.11337C8.16129 7.11337 1.51367 13.761 1.51367 21.9613C1.51367 30.1615 8.16129 36.8091 16.3615 36.8091Z" fill="white"/>
</mask>
<g mask="url(#mask32_2057_126)">
<path d="M18.8828 28.0063C18.8828 28.0063 19.8863 27.7656 20.201 27.6469C20.5156 27.5282 21.0233 27.0256 21.0956 27.134C21.1679 27.2423 20.1789 27.7215 20.0592 27.7785C19.5797 28.0063 18.8828 28.0063 18.8828 28.0063Z" fill="#E2B29D"/>
</g>
<mask id="mask33_2057_126" style="mask-type:luminance" maskUnits="userSpaceOnUse" x="1" y="7" width="31" height="30">
<path d="M16.3615 36.8091C24.5618 36.8091 31.2094 30.1615 31.2094 21.9613C31.2094 13.761 24.5618 7.11337 16.3615 7.11337C8.16129 7.11337 1.51367 13.761 1.51367 21.9613C1.51367 30.1615 8.16129 36.8091 16.3615 36.8091Z" fill="white"/>
</mask>
<g mask="url(#mask33_2057_126)">
<path d="M17.4942 25.2807C17.5748 25.3172 17.6492 25.3756 17.6937 25.4564L17.7018 25.4717C17.7038 25.4774 17.7067 25.4836 17.7077 25.4901C17.7103 25.5031 17.7088 25.516 17.7054 25.528C17.6987 25.5521 17.6841 25.5717 17.6691 25.5894C17.638 25.6238 17.6007 25.6505 17.5623 25.6744C17.4846 25.72 17.4009 25.7563 17.3104 25.7695C17.2879 25.7721 17.2643 25.7734 17.2405 25.7661C17.2184 25.7581 17.1982 25.7462 17.1811 25.7306C17.1477 25.6987 17.1275 25.6555 17.123 25.6111C17.1332 25.6542 17.1557 25.6946 17.1894 25.721C17.206 25.7345 17.2252 25.7444 17.2454 25.7506C17.2646 25.7555 17.2866 25.7534 17.3076 25.7498C17.3498 25.7418 17.3918 25.7283 17.432 25.7112C17.4724 25.6946 17.5118 25.6749 17.5489 25.6521C17.5862 25.6298 17.6219 25.6039 17.651 25.573C17.6652 25.5575 17.6779 25.5404 17.6836 25.5217C17.6865 25.5124 17.6878 25.5031 17.6862 25.494C17.6857 25.4893 17.6839 25.4852 17.6826 25.4805L17.6759 25.466C17.6577 25.4269 17.63 25.3924 17.5989 25.3618C17.5678 25.3302 17.5323 25.3035 17.4942 25.2807Z" fill="#E3B19B"/>
</g>
<mask id="mask34_2057_126" style="mask-type:luminance" maskUnits="userSpaceOnUse" x="1" y="7" width="31" height="30">
<path d="M16.3615 36.8091C24.5618 36.8091 31.2094 30.1615 31.2094 21.9613C31.2094 13.761 24.5618 7.11337 16.3615 7.11337C8.16129 7.11337 1.51367 13.761 1.51367 21.9613C1.51367 30.1615 8.16129 36.8091 16.3615 36.8091Z" fill="white"/>
</mask>
<g mask="url(#mask34_2057_126)">
<path d="M17.4797 27.5061C17.4581 27.5001 17.4369 27.4903 17.4198 27.4747C17.4024 27.4597 17.3918 27.4335 17.3985 27.4094C17.399 27.4032 17.4024 27.398 17.4048 27.3926C17.4071 27.3869 17.4099 27.3817 17.4136 27.377L17.4237 27.3625L17.4356 27.3498C17.4434 27.341 17.4522 27.3337 17.461 27.3262C17.4695 27.3184 17.4786 27.3114 17.4879 27.305C17.561 27.2505 17.646 27.2124 17.7352 27.192C17.78 27.1826 17.8264 27.1769 17.8733 27.1834C17.8967 27.187 17.9205 27.194 17.941 27.2101C17.9604 27.2267 17.9726 27.2443 17.9866 27.2632C17.9998 27.2822 18.0112 27.3021 18.0203 27.3236C18.0291 27.3449 18.0356 27.3685 18.0332 27.3923C18.0312 27.4164 18.019 27.4387 18.0014 27.4537C17.9845 27.4698 17.9625 27.4778 17.9415 27.4851C17.9614 27.4752 17.9819 27.4651 17.9967 27.4488C18.0117 27.4332 18.0205 27.4128 18.0205 27.3918C18.0213 27.3708 18.0146 27.3498 18.0053 27.3304C17.9959 27.3109 17.984 27.2925 17.9705 27.2752C17.9635 27.2666 17.9568 27.258 17.9493 27.25C17.942 27.2422 17.9342 27.2326 17.9267 27.228C17.9114 27.2166 17.891 27.2104 17.87 27.208C17.8277 27.2028 17.7834 27.2083 17.7409 27.2174C17.6554 27.2363 17.573 27.2726 17.4993 27.3213C17.4898 27.3272 17.4809 27.3335 17.4724 27.3402C17.4636 27.3467 17.4548 27.3534 17.4473 27.3612L17.4353 27.3723L17.4255 27.3848C17.4219 27.3889 17.419 27.3933 17.4169 27.398C17.4149 27.4027 17.4115 27.4071 17.4107 27.4123C17.4035 27.4317 17.4097 27.4535 17.4247 27.4695C17.4395 27.4856 17.4592 27.4975 17.4797 27.5061Z" fill="#E3B19B"/>
</g>
<mask id="mask35_2057_126" style="mask-type:luminance" maskUnits="userSpaceOnUse" x="1" y="7" width="31" height="30">
<path d="M16.3615 36.8091C24.5618 36.8091 31.2094 30.1615 31.2094 21.9613C31.2094 13.761 24.5618 7.11337 16.3615 7.11337C8.16129 7.11337 1.51367 13.761 1.51367 21.9613C1.51367 30.1615 8.16129 36.8091 16.3615 36.8091Z" fill="white"/>
</mask>
<g mask="url(#mask35_2057_126)">
<path d="M17.9797 27.7843C17.9727 27.7628 17.9714 27.7369 17.9852 27.7164C17.9979 27.6957 18.0184 27.6819 18.0391 27.671C18.0819 27.6506 18.128 27.6415 18.1739 27.6345C18.2195 27.6267 18.2674 27.6257 18.3146 27.6324C18.3615 27.6397 18.4084 27.6604 18.4431 27.6954C18.4774 27.7312 18.497 27.7781 18.5025 27.8263C18.503 27.8322 18.5035 27.8385 18.5035 27.8447C18.5035 27.8514 18.5022 27.8605 18.4978 27.8672C18.4895 27.8812 18.4766 27.8875 18.4649 27.8924C18.4413 27.9012 18.4175 27.9043 18.3942 27.9056C18.3006 27.9103 18.2091 27.8973 18.1184 27.8815C18.1643 27.8838 18.2101 27.8877 18.256 27.8885C18.3016 27.89 18.3478 27.8908 18.3923 27.8859C18.4146 27.8836 18.4369 27.8794 18.4561 27.8716C18.4654 27.8675 18.474 27.8621 18.4771 27.8558C18.4792 27.8527 18.4792 27.8499 18.4792 27.8452C18.4789 27.84 18.4784 27.8346 18.4779 27.8294C18.4724 27.7864 18.4543 27.7444 18.4245 27.7138C18.3944 27.6832 18.3535 27.6646 18.3102 27.6571C18.2666 27.6493 18.2215 27.6498 18.1762 27.6547C18.1311 27.6591 18.0857 27.6661 18.0443 27.6832C18.0238 27.6918 18.0038 27.7032 17.9906 27.7208C17.9769 27.7377 17.9753 27.7618 17.9797 27.7843Z" fill="#E3B19B"/>
</g>
<mask id="mask36_2057_126" style="mask-type:luminance" maskUnits="userSpaceOnUse" x="1" y="7" width="31" height="30">
<path d="M16.3615 36.8091C24.5618 36.8091 31.2094 30.1615 31.2094 21.9613C31.2094 13.761 24.5618 7.11337 16.3615 7.11337C8.16129 7.11337 1.51367 13.761 1.51367 21.9613C1.51367 30.1615 8.16129 36.8091 16.3615 36.8091Z" fill="white"/>
</mask>
<g mask="url(#mask36_2057_126)">
<path d="M7.8702 16.3029C7.8702 16.3029 6.15164 15.8174 5.41016 16.8072C5.41016 16.8072 5.58121 16.0657 6.49375 15.926C7.40629 15.7863 7.8702 16.3029 7.8702 16.3029Z" fill="#98B770"/>
</g>
<mask id="mask37_2057_126" style="mask-type:luminance" maskUnits="userSpaceOnUse" x="1" y="7" width="31" height="30">
<path d="M16.3615 36.8091C24.5618 36.8091 31.2094 30.1615 31.2094 21.9613C31.2094 13.761 24.5618 7.11337 16.3615 7.11337C8.16129 7.11337 1.51367 13.761 1.51367 21.9613C1.51367 30.1615 8.16129 36.8091 16.3615 36.8091Z" fill="white"/>
</mask>
<g mask="url(#mask37_2057_126)">
<path opacity="0.5" d="M24.9847 26.4901C24.9824 26.6018 24.9788 26.7159 24.9746 26.8312C24.9495 26.84 24.9223 26.8486 24.8925 26.8566C24.6709 26.9178 24.3119 26.9647 23.734 26.9644C23.4935 25.8808 22.9806 24.924 22.7559 24.5391C23.1327 24.566 23.5113 24.5225 23.8703 24.4061L24.5436 24.7262L24.9847 26.4901Z" fill="#E3B19B"/>
</g>
<mask id="mask38_2057_126" style="mask-type:luminance" maskUnits="userSpaceOnUse" x="1" y="7" width="31" height="30">
<path d="M16.3615 36.8091C24.5618 36.8091 31.2094 30.1615 31.2094 21.9613C31.2094 13.761 24.5618 7.11337 16.3615 7.11337C8.16129 7.11337 1.51367 13.761 1.51367 21.9613C1.51367 30.1615 8.16129 36.8091 16.3615 36.8091Z" fill="white"/>
</mask>
<g mask="url(#mask38_2057_126)">
<path d="M24.2089 34.9093C24.2444 34.8945 26.5041 33.9252 27.398 33.0712C27.5994 32.8787 27.837 32.5602 28.084 32.1813C29.3659 30.2186 30.0405 27.9228 30.0527 25.5786C30.0581 24.53 30.0278 23.3275 29.92 22.128C29.6199 18.7904 28.819 18.22 28.2986 17.3593C27.7782 16.4983 27.378 14.6572 27.2578 13.5764C27.1378 12.4957 26.9968 12.4856 26.9968 12.4856C26.9968 12.4856 25.6045 13.5218 24.7972 15.3212C24.5215 15.9357 24.3603 16.5953 24.3053 17.2668C24.2066 18.4732 23.895 21.4379 23.1813 22.0879C22.2796 22.9087 21.5765 22.877 21.6729 24.2618C21.6729 24.2618 22.2734 23.2927 23.1813 24.5391C24.0894 25.7854 25.4838 33.3737 25.4838 33.3737" fill="#98B770"/>
</g>
<mask id="mask39_2057_126" style="mask-type:luminance" maskUnits="userSpaceOnUse" x="1" y="7" width="31" height="30">
<path d="M16.3615 36.8091C24.5618 36.8091 31.2094 30.1615 31.2094 21.9613C31.2094 13.761 24.5618 7.11337 16.3615 7.11337C8.16129 7.11337 1.51367 13.761 1.51367 21.9613C1.51367 30.1615 8.16129 36.8091 16.3615 36.8091Z" fill="white"/>
</mask>
<g mask="url(#mask39_2057_126)">
<path d="M23.5859 21.8492C23.5859 21.8492 25.8734 20.4313 28.117 21.9602C28.117 21.9602 26.4319 21.0914 23.5859 21.8492Z" fill="#829E5F"/>
</g>
<path d="M16.2982 6.27423C18.3311 6.27423 20.3024 6.67206 22.1575 7.45683C23.0493 7.83392 23.9095 8.30094 24.7142 8.84468C25.5117 9.3835 26.2615 10.0021 26.9431 10.6838C27.6247 11.3654 28.2434 12.1152 28.7822 12.9126C29.3259 13.7173 29.7927 14.5775 30.17 15.4693C30.9548 17.3245 31.3526 19.296 31.3526 21.3287C31.3526 23.3616 30.9548 25.3328 30.17 27.188C29.7929 28.0798 29.3259 28.94 28.7822 29.7447C28.2434 30.5422 27.6247 31.292 26.9431 31.9736C26.2615 32.6552 25.5117 33.2738 24.7142 33.8126C23.9095 34.3564 23.0493 34.8232 22.1575 35.2005C20.3024 35.9853 18.3309 36.3831 16.2982 36.3831C14.2655 36.3831 12.294 35.9853 10.4389 35.2005C9.54706 34.8234 8.68688 34.3564 7.88215 33.8126C7.08468 33.2738 6.3349 32.6552 5.65329 31.9736C4.97167 31.292 4.35303 30.5422 3.81421 29.7447C3.27047 28.94 2.80371 28.0798 2.42635 27.188C1.64159 25.3328 1.24376 23.3613 1.24376 21.3287C1.24376 19.2957 1.64159 17.3245 2.42635 15.4693C2.80345 14.5775 3.27047 13.7173 3.81421 12.9126C4.35303 12.1152 4.97167 11.3654 5.65329 10.6838C6.3349 10.0021 7.08468 9.3835 7.88215 8.84468C8.68688 8.30094 9.54706 7.83418 10.4389 7.45683C12.294 6.67206 14.2653 6.27423 16.2982 6.27423ZM16.2982 5.03021C7.29695 5.03021 0 12.3272 0 21.3284C0 30.3297 7.29695 37.6266 16.2982 37.6266C25.2994 37.6266 32.5964 30.3297 32.5964 21.3284C32.5964 12.3272 25.2994 5.03021 16.2982 5.03021Z" fill="#718C42"/>
<path opacity="0.84" d="M33.4751 6.37407C33.4751 6.37407 30.5525 5.56805 29.7286 6.7027C28.9047 7.83735 32.0225 8.19863 31.9673 9.00025C31.9038 9.92082 30.4213 9.59193 30.4213 9.59193C31.9971 10.0222 32.6766 9.43255 32.4426 8.61149C32.2407 7.9037 30.462 7.64012 30.2565 6.85224C29.9457 5.66032 33.4751 6.37407 33.4751 6.37407Z" fill="url(#paint4_linear_2057_126)"/>
<path opacity="0.84" d="M29.8424 9.69527C28.4012 9.46824 26.9332 8.50412 25.5858 8.54766C24.2381 8.5912 22.1684 9.69527 22.1699 11.4333C22.1723 13.8897 24.9187 13.9516 26.4667 14.0716C27.5941 14.1595 28.8643 14.3829 29.1071 14.3829C28.5642 14.1535 27.8486 14.1571 27.5773 13.8811C27.1934 13.4903 28.5885 13.6181 28.0013 12.9378C27.414 12.2574 24.3184 13.418 24.0515 11.7635C23.7846 10.1089 25.7283 9.78443 28.3081 10.309C30.9781 10.8517 31.7429 9.86736 31.7108 9.86891C31.7105 9.86865 31.2831 9.92204 29.8424 9.69527ZM27.1867 13.0642C27.774 12.9709 27.6871 13.4514 27.3137 13.5116C26.9516 13.5696 25.5078 13.1521 25.4171 13.1254C25.5021 13.1389 26.6142 13.1557 27.1867 13.0642Z" fill="url(#paint5_linear_2057_126)"/>
<path opacity="0.84" d="M32.7821 14.6422C31.0472 14.0018 28.0527 13.9826 28.0527 13.9826C28.0527 13.9826 31.3297 14.1954 31.5676 15.5898C31.7457 16.6301 30.1725 16.7565 29.9885 16.7469L31.3084 16.6998C31.5536 16.691 31.799 16.692 32.044 16.7052C34.7266 16.8493 34.4584 15.2611 32.7821 14.6422ZM31.3341 16.5103C31.3341 16.5103 32.0147 16.3032 32.1481 15.6895C32.279 15.0862 31.0573 14.4831 31.0151 14.4624C31.0661 14.4738 32.6971 14.8454 32.7888 15.4628C32.8819 16.0897 32.1082 16.4129 31.3341 16.5103Z" fill="url(#paint6_linear_2057_126)"/>
<path opacity="0.84" d="M30.1342 18.3367C30.0277 19.4177 28.0398 20.2815 25.1374 20.4168C22.2349 20.5515 21.1542 19.1639 20.5804 20.0249C20.0066 20.8853 21.7679 19.7512 22.7554 20.5518C23.7428 21.3526 20.3259 21.0958 19.3283 21.4718C16.5684 22.5116 16.9582 23.6033 16.9188 23.7284C16.9188 23.7284 16.2074 22.4577 17.0842 22.02C17.7979 21.6634 19.0456 21.5799 19.5258 20.9794C20.0063 20.3789 18.7255 20.4722 19.4058 19.845C20.0862 19.2178 21.776 19.0019 23.3263 19.2767C24.8769 19.5514 28.2791 19.7385 29.4935 18.7241C30.7077 17.71 27.7615 18.2164 27.0006 17.7027C25.6754 16.8075 28.0518 16.8687 28.0518 16.8687C28.0518 16.8687 30.5357 16.9734 30.5732 16.9789C30.5333 16.9789 27.4787 17.0965 28.0126 17.4568C28.5463 17.8165 30.241 17.2559 30.1342 18.3367Z" fill="url(#paint7_linear_2057_126)"/>
<path d="M19.9532 1.36866C19.9402 1.45496 19.9239 1.53867 19.905 1.61487C19.8589 1.80251 19.792 2.00829 19.7106 2.21226C19.6997 2.23921 19.6883 2.26642 19.6769 2.29338C19.4641 2.79772 19.1332 2.96126 18.823 3.05534C18.8074 3.06 18.7921 3.06467 18.7768 3.06908C18.7195 3.08566 18.6584 3.09681 18.5949 3.10406H18.5946C17.8809 3.18492 16.8351 2.72904 16.8351 2.72904C16.8351 2.72904 16.6192 2.29156 16.514 1.77581C16.5 1.70843 16.4881 1.63897 16.4788 1.56951C16.4536 1.38265 16.4474 1.19164 16.4756 1.01256C16.4772 1.004 16.4785 0.995711 16.4801 0.987159C16.522 0.743279 16.6283 0.523503 16.8351 0.367482C16.9987 0.244376 17.1956 0.15574 17.411 0.0961308C17.6054 0.0424826 17.8148 0.0126779 18.0263 0.00334777C18.2696 -0.00753738 18.5171 0.00853092 18.7494 0.0455923C18.9437 0.0764336 19.1277 0.122307 19.291 0.180102C19.5551 0.273403 19.7653 0.396769 19.8775 0.537498C19.9993 0.690927 20.0006 1.04858 19.9532 1.36866Z" fill="#A6A6A6"/>
<path d="M19.1791 2.54265C19.1791 2.54265 19.0456 0.647853 19.6329 0.701242C20.2201 0.754631 19.459 2.66005 19.459 2.66005L19.1791 2.54265Z" fill="#828282"/>
<path d="M16.7894 2.15002C17.4052 2.07408 18.7205 1.95227 19.5503 2.41644C19.6576 2.47657 19.6867 2.67147 19.6338 2.78265C19.6338 2.78265 16.8983 2.19485 16.6448 2.61756C16.5435 2.7868 16.4934 2.75777 16.4698 2.6624C16.4126 2.43044 16.5523 2.1793 16.7894 2.15002Z" fill="#98B770"/>
<path d="M18.1125 2.41638C18.8048 2.41638 19.4877 2.59573 20.0822 2.95053C20.6666 3.29938 21.3156 3.87318 21.8124 4.81397C22.781 6.6476 24.5967 11.9251 24.5967 11.9251L22.6682 11.6092L18.9064 11.2152L16.7363 2.41638H18.1125Z" fill="#A6A6A6"/>
<path d="M12.5212 7.1026C12.5212 7.1026 13.0709 11.2213 12.8089 11.2107C12.4824 11.1975 10.4414 11.5264 10.4414 11.5264C10.4414 11.5264 11.7932 9.84566 12.5212 7.1026Z" fill="#828282"/>
<path d="M21.0227 7.66541L22.3323 11.5745L20.7539 11.4242L21.0227 7.66541Z" fill="#828282"/>
<path d="M12.697 8.93253C12.697 8.93253 12.6563 8.87267 12.5961 8.77029C12.4202 8.46836 12.0783 7.79789 12.1232 7.20439C12.1506 6.84103 12.2548 6.65961 12.4025 6.60752V6.607C12.5777 6.5448 12.8146 6.66376 13.0572 6.87757C13.504 7.27125 12.697 8.93253 12.697 8.93253Z" fill="#EFD3C5"/>
<path opacity="0.5" d="M12.8839 7.34256C12.4869 7.37936 12.5885 7.89848 12.574 7.94798C12.574 7.94798 12.6175 7.44597 12.9093 7.46593" fill="#9E8068"/>
<path opacity="0.5" d="M12.2775 7.41928C12.2775 7.41928 12.2145 6.93722 12.4423 6.78716C12.6702 6.6371 12.8404 6.87217 12.8404 6.87217V6.99216C12.8404 6.99216 12.6201 6.71693 12.4701 6.88202C12.32 7.04737 12.2775 7.41928 12.2775 7.41928Z" fill="#9E8068"/>
<path d="M12.7754 7.96675C12.7088 7.85997 12.3356 6.10176 12.5227 4.98448C12.843 3.0718 15.4332 2.54257 15.4332 2.54257L12.7754 7.96675Z" fill="#A6A6A6"/>
<path d="M12.9025 7.41778C12.9764 7.1796 12.6382 4.95255 13.8741 3.38094C15.0383 1.90056 18.3886 2.49536 18.8256 2.72913C19.8553 3.28038 20.6452 4.24035 20.6286 6.08357C20.6196 7.09771 20.4418 8.83233 20.4418 8.83233L19.7213 11.034L16.5721 13.6628L14.3036 13.5161L12.7408 10.3951C12.7408 10.3949 12.3152 9.31258 12.9025 7.41778Z" fill="#EDCBBC"/>
<path opacity="0.45" d="M14.6621 4.63897C14.6621 4.63897 15.117 4.63975 15.4837 4.79525C15.8504 4.95075 16.1262 5.11792 16.4408 5.10807C17.5985 5.07204 18.313 4.57858 18.313 4.57858C18.313 4.57858 17.3339 5.26538 16.389 5.22599C15.585 5.19256 15.4718 4.78799 14.6621 4.63897Z" fill="#9E8068"/>
<path opacity="0.45" d="M14.1777 5.46671C14.1777 5.46671 14.785 5.6108 15.2973 5.97027C15.81 6.32974 16.5852 6.21467 17.0169 6.0545C17.3635 5.92596 18.0863 5.67508 18.3978 5.63957C18.3978 5.63957 17.3316 5.98842 16.8881 6.19575C16.4447 6.40309 15.8242 6.36888 15.4096 6.17709C14.9954 5.98505 14.7705 5.64035 14.1777 5.46671Z" fill="#9E8068"/>
<path d="M13.3184 7.41928C13.3184 7.41928 13.6086 7.8495 13.9471 7.97313C14.2856 8.09649 14.6759 8.07654 14.6759 8.07654C14.6759 8.07654 14.3556 8.16673 13.9471 8.05995C13.5384 7.95291 13.3184 7.41928 13.3184 7.41928Z" fill="#AF907B"/>
<path d="M17.0195 8.13291C17.0195 8.13291 17.2429 8.06941 17.4783 8.05956C17.7133 8.04946 17.8002 8.10803 18.0904 8.13291C18.3807 8.15805 18.7409 7.966 18.7409 7.966C18.7409 7.966 18.4709 8.18215 18.2366 8.21818C17.8193 8.28245 17.7361 8.13161 17.47 8.10285C17.2038 8.07408 17.0195 8.13291 17.0195 8.13291Z" fill="#AF907B"/>
<path opacity="0.45" d="M15.373 8.23457C15.5731 8.04511 15.373 7.51822 15.373 7.51822C15.373 7.51822 15.5651 7.67294 15.5576 7.89557C15.5501 8.11846 15.373 8.23457 15.373 8.23457Z" fill="#9E8068"/>
<path opacity="0.45" d="M16.6437 7.60727C16.6658 7.57669 16.2801 7.8299 16.5437 8.33036C16.5437 8.33036 16.4297 7.90454 16.6437 7.60727Z" fill="#9E8068"/>
<path opacity="0.45" d="M14.1042 8.79604C14.7916 8.72995 14.9206 8.25049 14.9206 8.25049C14.9206 8.25049 14.7916 8.48737 14.5288 8.61644C14.266 8.7455 14.0918 8.79604 14.0918 8.79604" fill="#9E8068"/>
<path opacity="0.45" d="M16.918 8.3309C16.9229 8.33842 17.0906 8.59863 17.4335 8.79637C17.7763 8.99412 18.064 9.00656 18.064 9.00656C18.064 9.00656 17.5747 8.81892 17.3972 8.68648C17.2194 8.55379 16.918 8.3309 16.918 8.3309Z" fill="#9E8068"/>
<path opacity="0.45" d="M14.762 9.43407C14.8805 8.98933 15.1886 8.79599 15.1886 8.79599C15.1886 8.79599 14.9702 8.82217 14.818 9.0321C14.7061 9.18682 14.762 9.43407 14.762 9.43407Z" fill="#9E8068"/>
<path opacity="0.45" d="M17.0833 9.76067C17.1838 9.08268 16.7078 8.86783 16.6953 8.87534C16.6953 8.87534 16.8928 9.12751 16.9415 9.2247C17.0387 9.4183 17.0833 9.76067 17.0833 9.76067Z" fill="#9E8068"/>
<path d="M14.8398 9.62369C14.8398 9.62369 15.0303 9.48062 15.2304 9.64753C15.4305 9.81444 15.4507 9.91836 15.7208 9.93158C15.9911 9.9448 16.1544 9.71077 16.3778 9.66749C16.6012 9.6242 16.8399 9.68407 16.8673 9.76079C16.8673 9.76079 16.5164 9.7696 16.3477 9.76079C16.179 9.75198 16.0442 9.93417 15.7239 9.9308C15.4035 9.92743 15.3102 9.69729 15.1584 9.66723C15.007 9.63742 14.8398 9.62369 14.8398 9.62369Z" fill="#AF907B"/>
<path d="M14.6919 10.5855C14.6919 10.5855 14.5284 10.2319 14.5486 10.3986C14.5683 10.5655 14.6919 10.5855 14.6919 10.5855Z" fill="#C6A48B"/>
<path d="M17.0664 10.6754C17.0998 10.6622 17.3665 10.4385 17.3834 10.5652C17.4002 10.692 17.0664 10.6754 17.0664 10.6754Z" fill="#C6A48B"/>
<path opacity="0.45" d="M16.9051 10.6953C16.8118 10.6753 16.0744 10.842 15.6541 10.7788C15.2337 10.7155 14.791 10.6118 14.791 10.6118C14.791 10.6118 15.3373 10.8454 15.7709 10.8721C16.2045 10.8987 16.9051 10.6953 16.9051 10.6953Z" fill="#9E8068"/>
<path d="M21.5953 7.7228C21.6619 6.67135 21.0215 5.10492 21.0215 5.10492C21.0215 5.10492 21.3952 7.01216 21.0215 7.86664" fill="#828282"/>
<path d="M21.5944 8.93385C21.3795 9.40891 20.778 9.72717 20.5382 9.32028C20.3843 9.05955 20.6803 8.54484 20.7137 8.19029C20.7321 7.99151 20.7552 7.8513 20.7552 7.8513C20.7684 7.81139 20.7552 6.85064 21.3891 6.89055C21.6467 6.90662 21.761 7.17434 21.8001 7.51178C21.8572 8.00369 21.6882 8.72626 21.5944 8.93385Z" fill="#EFD3C5"/>
<path opacity="0.5" d="M21.4976 7.09249C21.1506 7.02744 20.9072 7.45818 20.832 8.16598V8.19241L20.887 8.35854C20.887 8.35854 20.9212 8.17816 20.9808 7.95735C21.0464 7.9843 21.1547 8.04494 21.2239 8.16598C21.334 8.3588 21.1506 8.65374 21.1506 8.65374C21.1506 8.65374 21.3908 8.41349 21.284 8.11C21.2112 7.90292 21.0904 7.84357 21.0179 7.82854C21.1195 7.49006 21.2729 7.12256 21.4525 7.16765C21.6243 7.21068 21.6627 7.8332 21.6627 7.8332C21.6627 7.8332 21.7187 7.13396 21.4976 7.09249Z" fill="#9E8068"/>
<path d="M18.2435 9.95068C18.2435 9.95068 18.7434 11.0903 16.9365 13.0869C16.1152 13.9943 17.9698 13.604 17.954 13.584C17.9382 13.564 18.3785 12.1495 18.5185 11.7892C18.6587 11.429 18.5851 10.7557 18.5519 10.743C18.5185 10.7305 18.2435 9.95068 18.2435 9.95068Z" fill="#E3B19B"/>
<path d="M12.709 8.66733C12.709 8.66733 12.8103 9.91083 13.1488 10.4688C13.6917 11.3637 13.4556 11.6714 13.4556 11.6714C13.4556 11.6714 12.8484 10.3444 12.7167 10.0155C12.5853 9.68665 12.709 8.66733 12.709 8.66733Z" fill="#E3B19B"/>
<path d="M14.1177 9.93152C14.1177 9.93152 13.7987 12.3058 14.726 13.1662C15.6533 14.0269 13.6232 13.3067 13.5929 13.2067C13.5626 13.1066 13.5626 11.8756 13.6427 11.5153C13.7228 11.1551 13.8329 10.3659 13.8428 10.3052C13.8529 10.2446 14.1177 9.93152 14.1177 9.93152Z" fill="#E3B19B"/>
<path d="M14.3608 13.0867C13.5201 11.1551 14.1807 9.7608 14.1807 9.7608C14.1807 9.7608 13.5302 10.0744 13.25 11.6356" fill="#A6A6A6"/>
<path d="M14.3616 13.2276C14.2815 11.8464 15.3719 11.3429 15.3719 11.3429L16.188 11.3753C16.188 11.3753 17.2037 11.9068 17.2838 12.7473C17.3639 13.5881 15.5224 14.2085 15.5224 14.2085L14.3616 13.2276Z" fill="#A6A6A6"/>
<path d="M15.2441 11.2291C15.2574 11.2291 15.3929 11.3457 15.7734 11.3426C16.1536 11.3392 16.3816 11.2558 16.3816 11.2558C16.3816 11.2558 16.1748 11.4559 15.7912 11.4559C15.4077 11.4559 15.2441 11.2291 15.2441 11.2291Z" fill="#E3B19B"/>
<path d="M19.8512 6.88983C19.8512 6.88983 20.1692 8.80951 19.8818 9.855C19.6973 10.5268 19.2383 10.6763 19.2383 10.6763C19.2383 10.6763 20.2154 10.9741 20.2353 10.8748C20.2553 10.7756 20.4033 10.2953 20.496 9.86822C20.5888 9.44111 20.6787 8.53064 20.614 8.35881C20.5489 8.18698 19.8512 6.88983 19.8512 6.88983Z" fill="#E3B19B"/>
<path d="M19.6328 5.45743C19.6328 5.45743 20.1338 9.12391 20.494 9.69772C20.8543 10.2715 21.2197 10.4016 21.2197 10.4016C21.2197 10.4016 20.9403 7.79903 20.7402 7.29883C20.5402 6.79838 19.6328 5.45743 19.6328 5.45743Z" fill="#A6A6A6"/>
<path opacity="0.5" d="M14.9087 7.93843C14.7244 7.01682 13.5742 6.76853 13.5742 6.76853C13.5742 6.76853 14.3935 6.69441 14.8574 7.01759C15.3215 7.34078 14.9087 7.93843 14.9087 7.93843Z" fill="#EDCBBC"/>
<path opacity="0.5" d="M16.8439 8.04171C16.8439 8.04171 16.7936 6.12903 18.6024 7.09236C18.6026 7.09236 17.6237 6.87129 16.8439 8.04171Z" fill="#EDCBBC"/>
<path d="M16.7539 7.09299C16.7539 7.09299 17.7647 6.6226 18.305 6.6778C18.8454 6.733 19.2959 7.09299 19.2959 7.09299C19.2959 7.09299 19.1406 6.36239 18.3701 6.33751C17.5996 6.31237 16.7539 7.09299 16.7539 7.09299Z" fill="#A6A6A6"/>
<path d="M12.9453 6.49177C12.9453 6.49177 13.5007 6.39173 13.9861 6.54672C14.4716 6.70196 14.9469 7.01711 14.9469 7.01711C14.9469 7.01711 14.4716 6.47182 13.8711 6.29143C13.2706 6.11105 12.9453 6.49177 12.9453 6.49177Z" fill="#A6A6A6"/>
<path d="M18.0059 11.9806C18.9593 10.6754 18.0323 9.7608 18.0323 9.7608C18.0323 9.7608 18.8197 9.86084 19.4134 10.5546C20.0072 11.2484 20.0339 11.5019 20.0339 11.5019L18.0059 11.9806Z" fill="#A6A6A6"/>
<path d="M12.7575 7.966C12.7575 7.966 12.4237 10.1998 13.371 11.1069C13.9251 11.6374 14.0811 12.6264 14.0811 12.6264L14.3612 13.0867L15.8624 13.5571L17.0934 13.2069C17.0934 13.2069 18.404 11.7058 18.5046 10.8252C18.6049 9.94451 19.0851 10.8853 19.0851 10.8853L19.4055 10.6852C19.4055 10.6852 20.2747 10.3781 20.1379 8.47864C20.0544 7.32041 21.0717 9.16829 21.0717 9.16829C21.0717 9.16829 21.2259 10.8993 21.6898 11.4446C21.9078 11.7009 22.5077 11.866 22.5077 11.866C22.5077 11.866 21.8139 12.2229 21.0401 12.1296C20.2662 12.0363 20.0327 11.8092 20.0327 11.8092C20.0327 11.8092 20.0327 13.2303 19.032 14.6982C18.728 15.1442 17.9357 16.0267 17.6309 16.2595L15.4189 18.1778L14.0793 16.1457C13.2406 14.8734 12.7663 13.3954 12.7121 11.8725C12.7108 11.8372 12.7103 11.8181 12.7103 11.8181C12.7103 11.8181 11.8929 12.3501 10.877 11.8924C10.877 11.8924 11.861 11.3611 12.0225 10.5238C12.1858 9.67756 12.405 8.84304 12.7267 8.04324L12.7575 7.966Z" fill="#A6A6A6"/>
<path d="M32.4444 30.1565C32.4444 30.1565 31.8439 31.3176 29.7026 32.4582C27.5608 33.5994 24.9787 33.6792 24.9787 33.6792C24.9787 33.6792 24.352 33.059 23.7181 32.3074C23.2353 31.7346 22.7483 31.0859 22.5311 30.5764C22.4676 30.4271 22.4272 30.2897 22.4166 30.17C22.3233 29.1027 23.6976 28.7425 26.4329 28.5155C29.1682 28.2884 30.8689 26.2091 30.8629 26.3405C30.723 29.4296 28.6613 30.623 28.6613 30.623C30.583 31.1831 32.4444 30.1565 32.4444 30.1565Z" fill="url(#paint8_linear_2057_126)"/>
<path d="M10.5571 30.2865C10.5416 30.4677 10.4571 30.6882 10.3283 30.9298C10.3283 30.9298 10.3283 30.9303 10.3278 30.9303C10.051 31.4489 9.56813 32.0641 9.11302 32.5918C8.53144 33.2659 7.99522 33.7959 7.99522 33.7959C7.99522 33.7959 5.41336 33.7158 3.27158 32.575C1.12979 31.4338 0.529297 30.2733 0.529297 30.2733C0.529297 30.2733 2.39066 31.2998 4.31267 30.7393C4.31267 30.7393 2.25097 29.5458 2.1105 26.4567C2.10454 26.3258 3.80547 28.4052 6.54076 28.6317C9.2763 28.8585 10.6509 29.2187 10.5571 30.2865Z" fill="#EAC3AD"/>
<path d="M10.5571 30.2865C10.5416 30.4677 10.4571 30.6882 10.3283 30.9298C10.3283 30.9298 10.3283 30.9303 10.3278 30.9303C10.051 31.4489 9.56813 32.0641 9.11302 32.5918C8.53144 33.2659 7.99522 33.7959 7.99522 33.7959C7.99522 33.7959 5.41336 33.7158 3.27158 32.575C1.12979 31.4338 0.529297 30.2733 0.529297 30.2733C0.529297 30.2733 2.39066 31.2998 4.31267 30.7393C4.31267 30.7393 2.25097 29.5458 2.1105 26.4567C2.10454 26.3258 3.80547 28.4052 6.54076 28.6317C9.2763 28.8585 10.6509 29.2187 10.5571 30.2865Z" fill="url(#paint9_linear_2057_126)"/>
<path d="M26.5015 30.653L26.213 32.2135L24.0114 32.956C24.0114 32.956 22.8565 31.7599 22.5312 30.576V30.5747C22.7953 30.793 23.392 30.9371 24.9387 30.3661C26.1679 29.9128 26.5015 30.653 26.5015 30.653Z" fill="url(#paint10_linear_2057_126)"/>
<path d="M6.44344 30.3729L6.43359 30.962L9.69992 31.8751C9.69992 31.8751 10.8276 30.7225 10.5148 29.8864C10.4881 30.3726 10.2815 31.2554 7.74629 30.2052C6.43385 29.6615 6.44344 30.3729 6.44344 30.3729Z" fill="url(#paint11_linear_2057_126)"/>
<path d="M28.2497 34.5398C27.7456 33.2377 27.334 32.3099 27.037 31.6878C27.037 31.6878 26.6744 30.4361 26.0708 30.1911C25.6027 30.0012 24.8778 30.3881 24.8778 30.3881C24.8778 30.3881 26.0853 29.9685 26.3116 30.6532C26.5148 31.268 24.7218 31.84 24.6143 31.8739C23.2103 32.3018 20.7625 32.6615 16.4955 32.5918C11.2431 32.5063 8.6644 31.7094 7.44786 31.0949C5.79227 30.0755 7.22937 30.0369 7.22937 30.0369C6.40651 29.8353 6.4332 30.421 6.4332 30.4215C6.38344 30.697 6.11572 32.0966 5.66165 33.0467C5.15627 34.1046 4.18853 35.7789 5.47039 36.469C5.95115 36.7277 7.16769 37.0203 8.67321 37.2851C13.0016 38.0461 17.2733 38.2402 21.6307 37.6695C23.0012 37.4899 24.3984 37.2667 25.4879 37.0019C28.7001 36.2213 28.7885 35.931 28.2497 34.5398Z" fill="#F9D3C0"/>
<path d="M7.7342 35.7324C7.68185 35.7238 7.5152 35.6868 7.2454 35.6165C7.19124 35.6025 7.14381 35.5906 7.10338 35.5828C6.9953 35.5618 6.8906 35.5515 6.78926 35.552C6.78175 35.5504 6.77786 35.5497 6.77008 35.5481C6.70451 35.5349 6.6576 35.4659 6.63039 35.3415C6.61821 35.2931 6.61458 35.2581 6.61899 35.2361C6.62106 35.226 6.62521 35.1739 6.63169 35.0793C6.64776 34.8411 6.66227 34.6936 6.67393 34.6376C6.6773 34.6216 6.68015 34.6128 6.68274 34.6112C6.7789 34.6436 6.82684 34.6597 6.923 34.6915C6.9712 34.7097 6.9839 34.7768 6.96058 34.8927C6.95617 34.9147 6.9401 34.9572 6.91211 35.0204C6.90356 35.0417 6.8963 35.0655 6.89138 35.0912C6.8709 35.1985 6.88464 35.2607 6.92766 35.2703C6.94399 35.2739 7.11815 35.2933 7.44833 35.3244C7.46985 35.3265 7.48902 35.3281 7.50639 35.3291C7.55511 35.0246 7.60124 34.719 7.64867 34.4148C7.69247 34.1328 7.73472 33.94 7.73446 33.8731C7.73446 33.8477 7.69973 33.7648 7.64582 33.638C7.61394 33.5613 7.59995 33.5069 7.60643 33.4807C7.61446 33.4488 7.65515 33.4351 7.71709 33.4457C7.78111 33.4569 7.86508 33.5139 7.95994 33.6126C8.06361 33.7204 8.11129 33.8155 8.09937 33.8871C8.09704 33.9011 8.09393 33.9109 8.09082 33.9166C8.05764 33.9832 8.03406 34.0558 8.01981 34.1341C8.00659 34.2064 7.98093 34.365 7.94335 34.6089C7.89696 34.9113 7.86404 35.1184 7.84409 35.2288C7.82517 35.3333 7.80443 35.4177 7.78189 35.482C7.82335 35.5662 7.84383 35.6367 7.8345 35.6813C7.82724 35.7212 7.78862 35.7412 7.7342 35.7324Z" fill="#B58A83"/>
<path d="M8.21847 34.3693C8.23246 34.3712 8.25864 34.3776 8.29181 34.3885C8.31332 34.3955 8.32991 34.4015 8.34027 34.4033C8.35064 34.3305 8.3649 34.2322 8.38174 34.1091C8.38926 34.0547 8.3947 34.0161 8.39859 33.9941C8.39081 33.9534 8.37863 33.9005 8.35479 33.8653C8.3325 33.8321 8.30477 33.7901 8.30036 33.7437C8.27082 33.6722 8.25734 33.6237 8.26227 33.6032C8.27004 33.5714 8.31332 33.5556 8.37552 33.5672C8.41232 33.5742 8.46701 33.6178 8.51962 33.6421C8.6562 33.7051 8.85188 33.7201 8.98017 33.7409C9.01671 33.7468 9.10068 33.745 9.23182 33.7346C9.28858 33.7313 9.33653 33.7323 9.37514 33.7383C9.39536 33.7414 9.41065 33.7447 9.4205 33.7484C9.44408 33.7582 9.47207 33.8134 9.51069 33.8549C9.562 33.9104 9.63172 33.9679 9.64157 34.0293C9.6439 34.0565 9.64287 34.0843 9.63872 34.1125C9.63328 34.1488 9.6001 34.3473 9.53842 34.7076C9.47803 35.0598 9.44486 35.2542 9.43942 35.2904C9.43786 35.3005 9.43994 35.3298 9.4459 35.378C9.45652 35.4952 9.45937 35.5815 9.45056 35.6325C9.43605 35.717 9.3951 35.7595 9.3386 35.7523C9.25696 35.7417 9.18906 35.6712 9.13904 35.5457C9.1183 35.4973 9.10975 35.4618 9.11312 35.4395C9.11364 35.4356 9.11753 35.3894 9.12452 35.3018C9.13904 35.1225 9.15277 34.9737 9.16444 34.8556C9.12945 34.846 9.07943 34.8338 9.01671 34.8169C8.93352 34.7946 8.88065 34.7796 8.85991 34.7765C8.83063 34.7718 8.74976 34.7641 8.61707 34.7521C8.59374 34.918 8.57482 35.0442 8.56057 35.1308C8.53517 35.284 8.49033 35.4107 8.45716 35.4986C8.41543 35.6082 8.34986 35.7435 8.24153 35.8658C8.1713 35.9428 8.11091 35.9835 8.08136 35.9749C8.06322 35.9697 8.05078 35.948 8.05078 35.9231C8.05208 35.915 8.07333 35.8689 8.11428 35.7849C8.13527 35.7388 8.14901 35.6986 8.15471 35.6644C8.20939 35.3415 8.35686 34.7998 8.29777 34.6884C8.27522 34.6459 8.14771 34.5438 8.17104 34.4238C8.17778 34.3862 8.19644 34.3665 8.21847 34.3693ZM8.64998 34.4774C8.66009 34.4917 8.77257 34.501 8.85758 34.5147C8.8949 34.5207 8.9768 34.5197 9.10327 34.5106C9.14215 34.5064 9.17403 34.5052 9.19917 34.507C9.22197 34.2646 9.2497 34.0814 9.24167 34.0705C9.23441 34.0607 9.15381 34.05 9.09031 34.0311C9.03459 34.0145 8.99805 34.0039 8.98172 34.0013C8.95503 33.9969 8.88142 33.9904 8.76117 33.9806C8.76091 33.9827 8.76065 33.9863 8.76091 33.9915C8.76117 33.9967 8.76091 34.0003 8.76065 34.0024C8.75832 34.0164 8.75547 34.0265 8.75262 34.0322C8.72048 34.0993 8.69767 34.1721 8.68471 34.2506C8.6689 34.345 8.64091 34.465 8.64998 34.4774Z" fill="#B58A83"/>
<path d="M11.0046 34.3245C10.9641 34.3204 10.8206 34.2919 10.5767 34.238C10.5443 34.2297 10.5199 34.2245 10.5036 34.2224C10.4585 34.2167 10.3885 34.2123 10.2955 34.2074C10.2418 34.2045 10.2022 34.2022 10.177 34.2007C10.1789 34.2338 10.177 34.2696 10.1719 34.3082C10.1669 34.3448 10.1573 34.3922 10.1431 34.451C10.1288 34.5098 10.119 34.5557 10.1151 34.5879C10.1016 34.6944 10.1198 34.7545 10.1646 34.7615C10.1809 34.7641 10.3548 34.7724 10.685 34.7822C10.7651 34.784 10.8216 34.7866 10.8548 34.7905C10.8776 34.7934 10.8944 34.7967 10.9043 34.7996C10.932 34.8076 10.9714 34.853 11.018 34.9364C11.0585 35.0085 11.0779 35.0686 11.074 35.1124C11.0727 35.1264 11.0678 35.1383 11.0603 35.1479C11.0665 35.1671 11.0686 35.1858 11.0665 35.2042C11.0647 35.2205 11.0624 35.2314 11.0595 35.2373C11.0491 35.2731 11.0282 35.3198 11.002 35.3755C10.9636 35.4571 10.9426 35.5279 10.9364 35.5805C10.9276 35.6556 10.9219 35.7134 10.9193 35.7541C10.9374 35.8016 10.9463 35.8365 10.9431 35.8555C10.9398 35.8746 10.9271 35.8917 10.9084 35.9039C10.9063 35.9591 10.9053 36.0516 10.9056 36.181C10.9063 36.1934 10.9061 36.2056 10.9045 36.2178C10.8975 36.2395 10.8737 36.2502 10.8361 36.2468C10.6876 36.2333 10.6049 36.1473 10.5987 36.0024C10.5985 35.9695 10.6005 35.9337 10.6054 35.8954C10.6067 35.8855 10.6073 35.8809 10.6083 35.871C10.5723 35.8645 10.5308 35.8562 10.4836 35.8464C10.4365 35.8365 10.3981 35.8275 10.3688 35.8194C10.3512 35.8161 10.3424 35.8142 10.3245 35.8106C10.2799 35.8049 10.2094 35.801 10.1159 35.7958C10.0226 35.7907 9.95338 35.7834 9.91087 35.7774C9.80694 35.7632 9.74397 35.7334 9.72531 35.6898C9.70872 35.6515 9.70561 35.5826 9.72064 35.4944C9.72686 35.4571 9.74578 35.4372 9.7704 35.4395C9.78673 35.441 9.79969 35.4447 9.80798 35.4478C9.99044 35.496 10.1589 35.5297 10.3131 35.5496C10.3512 35.5546 10.4365 35.5502 10.5692 35.5356C10.6104 35.5305 10.6451 35.5286 10.6728 35.5299C10.6741 35.5201 10.6746 35.5154 10.6757 35.5056C10.6778 35.4895 10.6811 35.382 10.6863 35.1829C10.6767 35.157 10.6658 35.1321 10.6542 35.108C10.5611 35.0862 10.4982 35.073 10.4647 35.0689C10.3079 35.0489 10.1672 35.0424 10.0428 35.0502C10.0366 35.0494 10.0335 35.0489 10.027 35.0481C9.96219 35.0393 9.91243 34.9738 9.87874 34.8514C9.86422 34.804 9.85852 34.7693 9.86163 34.747C9.86292 34.7369 9.86344 34.678 9.86422 34.571C9.86552 34.3328 9.87044 34.1781 9.87614 34.1089C9.82068 34.0576 9.79761 33.9827 9.81316 33.8925C9.81964 33.8552 9.83804 33.8352 9.86163 33.8376C9.87744 33.8391 9.88988 33.8427 9.89791 33.8459C10.0741 33.8938 10.2719 33.9322 10.4906 33.9607C10.5274 33.9653 10.6112 33.9609 10.7415 33.9464C10.7983 33.9412 10.846 33.9407 10.8848 33.9456C10.9074 33.9485 10.9237 33.9516 10.9336 33.9547C10.9608 33.9627 10.9991 34.0078 11.0447 34.0913C11.0841 34.1633 11.1049 34.2261 11.0992 34.2673C11.0932 34.3072 11.0572 34.3297 11.0046 34.3245Z" fill="#B58A83"/>
<path d="M11.1925 35.6926C11.2026 35.6931 11.2213 35.6973 11.2461 35.7017C11.2894 35.7092 11.3273 35.7136 11.3571 35.7167C11.3736 35.7185 11.3819 35.7193 11.3983 35.7211C11.3545 35.6488 11.333 35.592 11.3361 35.5542C11.3366 35.5464 11.3379 35.4319 11.3412 35.2129C11.3459 34.9045 11.3514 34.594 11.3643 34.285C11.3169 34.2057 11.2923 34.1371 11.2987 34.0899C11.3044 34.0502 11.341 34.0279 11.3952 34.0329C11.4496 34.0378 11.6668 34.0751 12.0459 34.1342C12.0908 34.1407 12.1245 34.1448 12.147 34.1469C12.2043 34.1524 12.294 34.1557 12.4127 34.1591C12.529 34.1625 12.6164 34.1676 12.6718 34.1723C12.8442 34.1868 12.9427 34.2454 12.9678 34.3496C12.9756 34.3809 12.9782 34.4159 12.9753 34.4545C12.9738 34.475 12.9694 34.49 12.9626 34.4996C12.9748 34.5292 12.9802 34.5543 12.9787 34.5745C12.9776 34.5888 12.9758 34.5989 12.9732 34.6049C12.9471 34.6746 12.931 34.749 12.9248 34.8285C12.9191 34.9019 12.9129 35.0203 12.9069 35.1833C12.8994 35.3873 12.8919 35.5446 12.8833 35.6545C12.8714 35.8092 12.838 35.9396 12.8126 36.0298C12.7807 36.1428 12.7273 36.2832 12.6304 36.4146C12.5674 36.4976 12.5109 36.5435 12.4808 36.5375C12.4624 36.5339 12.4482 36.5131 12.4458 36.4885C12.4466 36.4805 12.4635 36.4325 12.4969 36.3452C12.5137 36.2975 12.5241 36.2558 12.5267 36.2216C12.5601 35.7507 12.579 35.2673 12.605 34.7899C12.6096 34.7103 12.6213 34.6391 12.6177 34.6005C12.6151 34.5701 12.5853 34.5147 12.5492 34.4501C12.4896 34.4429 12.4075 34.4328 12.3025 34.419C12.3181 34.4532 12.3248 34.4815 12.323 34.5038C12.3222 34.5118 12.3235 34.5935 12.3261 34.7469C12.3326 35.1276 12.3328 35.3451 12.3282 35.3958C12.3271 35.408 12.3253 35.415 12.3232 35.4168C12.3212 35.4166 12.2851 35.4109 12.2167 35.3982C12.1193 35.3798 12.0656 35.3689 12.0573 35.3681C12.0076 35.3552 11.9876 35.2989 11.9972 35.1994C12.0001 35.1688 12.0112 35.0755 12.0304 34.9195C12.049 34.7676 12.0599 34.6761 12.0628 34.6458C12.0636 34.6378 12.0615 34.615 12.0568 34.5776C12.0454 34.5007 12.0397 34.4416 12.0395 34.4006C11.9998 34.4009 11.942 34.405 11.8702 34.4087C11.823 34.411 11.7855 34.4115 11.7603 34.4131C11.7608 34.4276 11.7598 34.4488 11.757 34.4773C11.7533 34.5139 11.7341 34.6689 11.7033 34.9397C11.6732 35.2046 11.6577 35.3557 11.6541 35.3901C11.653 35.4003 11.6564 35.4293 11.6644 35.4775C11.6821 35.5962 11.6885 35.682 11.6831 35.7348C11.6823 35.7421 11.6821 35.7457 11.6813 35.7532C11.7567 35.7895 11.809 35.845 11.8383 35.9196C11.8482 35.9512 11.8534 35.9839 11.849 36.0098C11.8466 36.023 11.836 36.0321 11.8207 36.0347C11.8122 36.0339 11.7958 36.0262 11.7715 36.0114C11.7329 35.9891 11.7028 35.9769 11.6815 35.9748C11.6538 35.972 11.603 35.9735 11.533 35.9751C11.476 35.9764 11.434 35.9751 11.4104 35.9746C11.3166 36.0057 11.2666 36.0207 11.2601 36.0199C11.2409 36.0179 11.2244 35.9925 11.2104 35.9437C11.1772 35.8149 11.1593 35.746 11.1559 35.7374C11.1544 35.7312 11.1541 35.726 11.1544 35.7219C11.1601 35.7024 11.1741 35.6916 11.1925 35.6926Z" fill="#B58A83"/>
<path d="M13.2638 34.5864C13.2612 34.5615 13.2169 34.4829 13.1492 34.3632C13.1091 34.2906 13.0886 34.2383 13.0922 34.2116C13.0966 34.1789 13.1363 34.1605 13.2008 34.1644C13.2653 34.1681 13.3535 34.2163 13.4602 34.3054C13.5735 34.4 13.6305 34.4863 13.6269 34.5586C13.6261 34.5726 13.6243 34.583 13.622 34.5889C13.5968 34.6589 13.5815 34.7336 13.5766 34.8131C13.5719 34.8865 13.5667 35.0142 13.5616 35.1957C13.5553 35.4222 13.5491 35.5906 13.5421 35.7008C13.5323 35.8555 13.5007 35.9864 13.4766 36.0771C13.4462 36.1906 13.3947 36.3316 13.2995 36.4643C13.2379 36.548 13.1816 36.5947 13.1516 36.5892C13.1332 36.5859 13.1176 36.5654 13.1127 36.5405C13.1132 36.5322 13.1293 36.4832 13.1617 36.3967C13.1795 36.3492 13.191 36.3072 13.193 36.273C13.2215 35.7842 13.2402 35.2786 13.2557 34.7885C13.2583 34.7035 13.2679 34.6268 13.2638 34.5864Z" fill="#B58A83"/>
<path d="M13.7559 35.9103C13.766 35.9103 13.7849 35.9135 13.8098 35.9166C13.8536 35.9218 13.8914 35.9243 13.9212 35.9259C13.9378 35.9269 13.9461 35.9272 13.9627 35.9282C13.9153 35.8583 13.8909 35.8025 13.8919 35.765C13.8922 35.7569 13.8875 35.6426 13.8795 35.4239C13.8681 35.1157 13.8577 34.8055 13.8546 34.4961C13.8033 34.4193 13.775 34.352 13.7792 34.3045C13.7828 34.2646 13.8181 34.2405 13.8725 34.2426C14.0619 34.2501 14.2364 34.2667 14.3833 34.2789C14.5157 34.29 14.6573 34.2975 14.8052 34.3032C14.982 34.3102 15.0849 34.3665 15.1144 34.4735C15.1217 34.5023 15.1248 34.5352 15.1238 34.5717C15.123 34.5922 15.1196 34.6072 15.1129 34.6173C15.1264 34.6464 15.1328 34.6713 15.1323 34.6915C15.1318 34.7057 15.1305 34.7158 15.1282 34.7221C15.1051 34.7928 15.0924 34.868 15.0898 34.9475C15.0875 35.0209 15.0864 35.1396 15.0877 35.3029C15.0893 35.5068 15.0888 35.6644 15.0851 35.7745C15.0805 35.9215 15.0512 36.0537 15.0281 36.1527C15.0014 36.267 14.9543 36.4098 14.8633 36.5453C14.8042 36.6311 14.7498 36.6793 14.7195 36.6746C14.7008 36.6718 14.6858 36.6518 14.6824 36.6272C14.6827 36.6189 14.6977 36.5707 14.727 36.4818C14.7417 36.4334 14.7503 36.3914 14.7511 36.3572C14.7635 35.8852 14.7607 35.4013 14.7653 34.9234C14.7664 34.8439 14.7739 34.7736 14.7697 34.7337C14.7664 34.7029 14.7386 34.6539 14.7036 34.5992C14.6746 34.5979 14.5419 34.6041 14.305 34.615C14.2864 34.614 14.2698 34.6142 14.2553 34.6155C14.255 34.6197 14.2537 34.6288 14.254 34.6399C14.2542 34.6513 14.2561 34.6614 14.2558 34.6676C14.254 34.7044 14.2431 34.8602 14.2263 35.1321C14.2099 35.398 14.2022 35.5498 14.2003 35.5846C14.1998 35.5947 14.2047 35.6237 14.2151 35.6711C14.239 35.7888 14.2496 35.8741 14.247 35.9272C14.2467 35.9345 14.2465 35.9381 14.2462 35.9456C14.3234 35.978 14.3786 36.0306 14.4116 36.1037C14.423 36.1348 14.43 36.1669 14.4269 36.1934C14.4253 36.2066 14.4152 36.2164 14.3999 36.2198C14.3913 36.2193 14.3745 36.2125 14.3494 36.1991C14.3097 36.1788 14.2791 36.1682 14.2579 36.1672C14.2301 36.1659 14.1796 36.17 14.1099 36.1752C14.0531 36.1794 14.0111 36.1804 13.9876 36.1809C13.8956 36.2169 13.8463 36.2346 13.8398 36.2341C13.8207 36.233 13.8028 36.2084 13.7862 36.1604C13.7463 36.0335 13.725 35.9656 13.7211 35.9573C13.7193 35.951 13.7185 35.9459 13.7188 35.9417C13.7242 35.9218 13.7375 35.9101 13.7559 35.9103Z" fill="#B58A83"/>
<path d="M15.3017 35.1836C15.3157 35.1833 15.3434 35.1854 15.3769 35.1918C15.3947 35.1952 15.4082 35.1988 15.4144 35.1988C15.4126 35.1068 15.4077 34.9762 15.4025 34.8096C15.3989 34.6857 15.3976 34.6061 15.3963 34.5735C15.3375 34.5291 15.3074 34.4574 15.3123 34.3659C15.3144 34.328 15.3294 34.306 15.3509 34.3057C15.3665 34.3055 15.3797 34.3076 15.3877 34.3099C15.5679 34.3371 15.7692 34.3526 15.9914 34.356C16.0284 34.3565 16.1108 34.3425 16.2386 34.313C16.2943 34.3013 16.3415 34.2954 16.3806 34.2956C16.4011 34.2956 16.4167 34.2972 16.4268 34.299C16.4548 34.3039 16.5001 34.3446 16.5558 34.4218C16.6033 34.4877 16.631 34.5486 16.63 34.5903C16.6289 34.6302 16.5947 34.6567 16.5398 34.6574C16.4991 34.658 16.3534 34.646 16.1057 34.6206C16.0725 34.6162 16.0479 34.6139 16.0313 34.6136C15.9877 34.6131 15.9191 34.6167 15.8263 34.6227C15.7726 34.6261 15.733 34.6281 15.7083 34.6297C15.7138 34.6626 15.7164 34.6984 15.7156 34.737C15.7153 34.7513 15.7128 34.7987 15.7096 34.8777C15.7039 35.0218 15.7003 35.1379 15.6964 35.2235C15.7299 35.2263 15.7791 35.2281 15.8439 35.2292C15.8815 35.2297 15.9657 35.2159 16.0958 35.1869C16.1526 35.1753 16.2005 35.1698 16.2404 35.1701C16.2614 35.1703 16.2772 35.1716 16.2873 35.1734C16.3156 35.1784 16.362 35.2193 16.4185 35.2968C16.4667 35.3629 16.4947 35.4241 16.4934 35.4655C16.4921 35.5036 16.4573 35.5288 16.4014 35.5295C16.364 35.5301 16.215 35.5176 15.9564 35.4914C15.9227 35.4889 15.8986 35.4876 15.8838 35.4873C15.8206 35.4863 15.7013 35.479 15.6879 35.493C15.6368 35.5456 15.6747 35.8276 15.6747 35.8359C15.6736 35.9432 15.698 36.0007 15.7415 36.0025C15.756 36.003 15.9333 35.9916 16.2715 35.9637C16.35 35.9582 16.4065 35.9554 16.4405 35.9556C16.4659 35.9556 16.4843 35.9572 16.4947 35.959C16.5255 35.9639 16.5709 36.0043 16.6253 36.0818C16.6722 36.1484 16.6999 36.2075 16.6989 36.2472C16.6979 36.2871 16.6626 36.3135 16.6059 36.3146C16.5512 36.3153 16.3832 36.3081 16.1116 36.2871C16.0564 36.2827 16.0079 36.2798 15.9673 36.2791C15.8581 36.2775 15.7542 36.2858 15.6555 36.3045C15.6477 36.3042 15.6438 36.3042 15.6363 36.3039C15.5699 36.3026 15.5124 36.243 15.4639 36.1254C15.4437 36.08 15.4339 36.0461 15.4344 36.0235C15.436 35.9644 15.4315 35.7887 15.4222 35.4964C15.3403 35.4881 15.29 35.457 15.2732 35.4036C15.2615 35.3668 15.2551 35.3103 15.2589 35.2408C15.2613 35.2048 15.2776 35.1838 15.3017 35.1836Z" fill="#B58A83"/>
<path d="M18.2684 35.9703C18.2811 35.9697 18.2876 35.9697 18.3003 35.9692C18.483 35.9633 18.5906 35.9026 18.6222 35.7891C18.6351 35.7437 18.64 35.6792 18.6367 35.5955C18.6351 35.5548 18.6333 35.4895 18.6289 35.4027C18.624 35.3078 18.6191 35.2355 18.6172 35.1886C18.6061 34.9071 18.576 34.7071 18.5281 34.5884C18.5079 34.5461 18.4874 34.5236 18.4698 34.523C18.4288 34.5223 18.3519 34.564 18.2474 34.6412C18.1725 34.6964 18.1165 34.7268 18.0852 34.726C18.0517 34.7249 18.0313 34.6876 18.0292 34.6205C18.025 34.4756 18.0481 34.3764 18.0981 34.3274C18.137 34.2893 18.1971 34.2626 18.2744 34.2483C18.3697 34.2304 18.4418 34.2211 18.489 34.2193C18.688 34.2118 18.8153 34.3305 18.872 34.5772C18.893 34.6723 18.907 34.7983 18.9143 34.9553C18.9179 35.0328 18.921 35.1471 18.9267 35.2951C18.9324 35.4431 18.9386 35.5551 18.942 35.6287C18.9513 35.8306 18.9187 35.9734 18.8432 36.056C18.7541 36.154 18.5916 36.2095 18.3622 36.2157C18.2052 36.2201 18.0683 36.1924 17.9561 36.1359C17.9561 36.14 17.9545 36.1444 17.9532 36.1483C17.9507 36.1553 17.9504 36.1618 17.9504 36.1636C17.9387 36.2906 17.8918 36.4246 17.8089 36.5653C17.755 36.6542 17.7034 36.7058 17.6728 36.7029C17.6542 36.7011 17.6368 36.6822 17.6298 36.6578C17.6295 36.6495 17.6409 36.5993 17.6656 36.5101C17.679 36.4611 17.6866 36.4184 17.6855 36.3842C17.67 35.8948 17.643 35.3895 17.6148 34.9001C17.6098 34.8154 17.6124 34.7379 17.6047 34.6982C17.5997 34.6736 17.5487 34.5992 17.4707 34.4862C17.424 34.4176 17.3991 34.3673 17.4004 34.3403C17.402 34.3074 17.4396 34.2856 17.5044 34.2836C17.5689 34.2815 17.6609 34.3214 17.7752 34.4007C17.8965 34.4847 17.961 34.5656 17.9639 34.6381C17.9644 34.6521 17.9634 34.6627 17.9615 34.6687C17.9426 34.7408 17.9343 34.8164 17.9364 34.896C17.9382 34.9693 17.9444 35.0971 17.9558 35.2783C17.9698 35.5043 17.9789 35.6727 17.9818 35.7831C17.9828 35.8186 17.9831 35.8365 17.9841 35.872C18.0782 35.9402 18.1728 35.9731 18.2684 35.9703Z" fill="#B58A83"/>
<path d="M19.181 34.6411C19.1753 34.6168 19.1219 34.5442 19.04 34.4336C18.9913 34.3664 18.9646 34.3169 18.9648 34.29C18.9651 34.2571 19.0022 34.234 19.067 34.2298C19.0931 34.228 19.131 34.2368 19.1794 34.2547C19.1976 34.2457 19.2157 34.2405 19.2341 34.2394C19.2937 34.2363 19.4583 34.2368 19.7284 34.2381C19.788 34.2384 19.8416 34.2368 19.8888 34.2337C19.9935 34.2267 20.1005 34.2078 20.2096 34.1772C20.2169 34.1767 20.2208 34.1765 20.228 34.1759C20.2915 34.1713 20.3524 34.2249 20.4108 34.3371C20.4349 34.3804 20.4478 34.4131 20.4496 34.4354C20.4499 34.4374 20.4517 34.4507 20.4559 34.4748C20.4916 34.693 20.5165 34.8858 20.5297 35.0525C20.5313 35.0709 20.4771 35.1211 20.3675 35.2002C20.2783 35.2645 20.2319 35.3054 20.2312 35.3238C20.2312 35.3251 20.2314 35.3256 20.2314 35.3269C20.2304 35.3414 20.2226 35.351 20.2083 35.3562C20.1998 35.3567 20.1827 35.3518 20.1565 35.3414C20.1153 35.3259 20.0842 35.3189 20.0632 35.3204C20.036 35.3222 19.987 35.3324 19.9194 35.3456C19.8644 35.3562 19.8235 35.3622 19.8004 35.3655C19.7882 35.3725 19.782 35.3759 19.7698 35.3829C19.8932 35.5327 20.0033 35.6561 20.0995 35.7538C20.127 35.7825 20.2534 35.8774 20.482 36.036C20.5839 36.106 20.6533 36.155 20.6803 36.1832C20.7065 36.2107 20.7205 36.2395 20.722 36.2597C20.729 36.347 20.7124 36.4325 20.6715 36.5157C20.6603 36.5391 20.6487 36.5572 20.6368 36.5676C20.6235 36.579 20.6082 36.5857 20.5961 36.5862C20.5753 36.5867 20.5497 36.5735 20.5217 36.5489C20.3252 36.3537 20.1293 36.1586 19.9316 35.9647C19.8973 35.9303 19.83 35.866 19.7307 35.7719C19.6607 35.7087 19.6138 35.6646 19.5889 35.6395C19.5894 35.6478 19.5923 35.6607 19.5944 35.676C19.5962 35.6913 19.5962 35.7045 19.5964 35.7128C19.6053 35.8595 19.5882 35.9938 19.5742 36.0946C19.5581 36.2109 19.5241 36.3571 19.4459 36.5007C19.3948 36.5914 19.3448 36.6445 19.3142 36.6427C19.2955 36.6417 19.2774 36.6233 19.2699 36.5989C19.2694 36.5906 19.2792 36.5401 19.301 36.4502C19.3129 36.4009 19.3191 36.3579 19.3168 36.3237C19.2852 35.8351 19.2419 35.3308 19.1976 34.8428C19.1901 34.758 19.1901 34.6805 19.181 34.6411ZM19.5386 34.5782C19.5392 34.5883 19.5387 34.5955 19.5368 34.5997C19.5205 34.6722 19.5145 34.7482 19.5192 34.8278C19.5223 34.8809 19.5301 34.9794 19.5428 35.124C19.5532 35.1235 19.5716 35.1237 19.5962 35.124C19.6395 35.1242 19.6768 35.1222 19.7061 35.1204C19.7519 35.1175 19.803 35.1123 19.8564 35.1077C19.887 35.1051 19.9108 35.104 19.9253 35.103C19.9274 35.1027 19.9328 35.1012 19.9409 35.0988C19.9525 35.0957 19.9616 35.0944 19.9658 35.0942C20.0098 35.0931 20.0593 35.1113 20.1145 35.1483C20.1692 35.1198 20.198 35.0975 20.1982 35.0841C20.2003 34.8246 20.1741 34.6632 20.1734 34.6531C20.1645 34.5442 20.1345 34.488 20.0899 34.4903C20.0757 34.4911 19.9106 34.5191 19.5941 34.5691C19.5734 34.5719 19.555 34.5753 19.5386 34.5782Z" fill="#B58A83"/>
<path d="M20.7208 34.9388C20.7345 34.937 20.7617 34.9365 20.7962 34.9386C20.8187 34.9399 20.8364 34.9414 20.8467 34.9404C20.8384 34.8673 20.827 34.7686 20.812 34.6452C20.8053 34.5905 20.8008 34.5519 20.799 34.5296C20.7812 34.4923 20.756 34.4444 20.7239 34.4161C20.6938 34.3897 20.6567 34.3562 20.6407 34.3124C20.594 34.2508 20.5686 34.2075 20.5684 34.1862C20.5676 34.1533 20.6054 34.1271 20.6684 34.1227C20.7057 34.1199 20.7695 34.1484 20.8262 34.1585C20.974 34.1847 21.1665 34.1494 21.2956 34.137C21.3324 34.1333 21.413 34.1103 21.5369 34.0667C21.5908 34.0489 21.6372 34.038 21.6763 34.0338C21.6968 34.0318 21.7121 34.031 21.7227 34.032C21.7479 34.0354 21.7891 34.0818 21.837 34.1121C21.9005 34.1525 21.9827 34.1906 22.0075 34.2474C22.0166 34.273 22.0228 34.3003 22.0259 34.3285C22.0301 34.365 22.0482 34.5654 22.0804 34.9295C22.1117 35.2854 22.1291 35.4818 22.1332 35.5184C22.1343 35.5285 22.1439 35.5562 22.1618 35.6015C22.2019 35.7122 22.2265 35.7949 22.231 35.8465C22.2385 35.932 22.2097 35.9833 22.1535 35.9906C22.0721 36.0009 21.9884 35.9501 21.9083 35.8415C21.8759 35.7998 21.8588 35.7677 21.8564 35.7454C21.8559 35.7412 21.8479 35.6959 21.8326 35.6093C21.801 35.4323 21.7764 35.2848 21.7577 35.1677C21.7217 35.1674 21.6701 35.1682 21.6053 35.168C21.5195 35.1674 21.4646 35.1667 21.4436 35.1687C21.4143 35.1716 21.3342 35.1845 21.2031 35.2071C21.2228 35.3735 21.2368 35.5002 21.2448 35.5876C21.2591 35.742 21.2482 35.8763 21.2386 35.9696C21.2264 36.0862 21.1974 36.2337 21.1238 36.3796C21.0758 36.4718 21.0276 36.5268 20.997 36.526C20.9784 36.5255 20.9608 36.5076 20.9543 36.4835C20.9535 36.4755 20.9623 36.4255 20.9805 36.3337C20.989 36.2837 20.9921 36.2414 20.989 36.207C20.9595 35.8807 20.9644 35.3196 20.8786 35.2268C20.8459 35.1915 20.6969 35.1252 20.6891 35.0031C20.6858 34.9658 20.6987 34.9417 20.7208 34.9388ZM21.1642 34.9337C21.1777 34.9448 21.2883 34.9251 21.3739 34.9168C21.4115 34.9132 21.4902 34.8912 21.61 34.8502C21.6465 34.8362 21.6768 34.8269 21.7017 34.8222C21.6621 34.5822 21.6424 34.398 21.6317 34.3891C21.6224 34.3814 21.5418 34.3917 21.4757 34.3897C21.4177 34.3879 21.3798 34.3868 21.3632 34.3884C21.3366 34.391 21.2637 34.4034 21.1453 34.4247C21.1455 34.4267 21.1463 34.4304 21.1479 34.4353C21.1494 34.4402 21.1502 34.4438 21.1505 34.4459C21.1518 34.4602 21.1518 34.4703 21.1502 34.4767C21.1362 34.5498 21.1328 34.626 21.1401 34.7053C21.1489 34.801 21.1525 34.9238 21.1642 34.9337Z" fill="#B58A83"/>
<path d="M23.4089 34.1847C23.3687 34.1912 23.2223 34.2 22.973 34.2101C22.9396 34.2103 22.9147 34.2116 22.8984 34.2137C22.8533 34.2197 22.7843 34.2332 22.6934 34.2523C22.6407 34.2635 22.6016 34.271 22.5772 34.2762C22.5874 34.3078 22.5949 34.343 22.5995 34.3814C22.6039 34.4179 22.6239 34.6027 22.6584 34.9358C22.6921 35.2608 22.7107 35.4409 22.7151 35.4748C22.7294 35.5811 22.7626 35.6347 22.8082 35.6298C22.8185 35.6288 22.98 35.5948 23.2907 35.5241C23.2949 35.5236 23.299 35.523 23.3034 35.5223C23.2938 35.4678 23.2791 35.3924 23.2602 35.2963C23.2456 35.2224 23.2371 35.1716 23.2335 35.1454C23.2192 35.1185 23.1656 35.0537 23.0736 34.9505C23.0186 34.8878 22.9875 34.8406 22.9857 34.8137C22.9834 34.781 23.0191 34.7549 23.0844 34.745C23.1497 34.7354 23.2485 34.7629 23.3719 34.8267C23.504 34.8948 23.5789 34.9687 23.5901 35.0402C23.5927 35.0563 23.5929 35.0677 23.5916 35.0739C23.5808 35.1478 23.5808 35.2229 23.5916 35.2996C23.5937 35.3139 23.6098 35.3909 23.6406 35.5308C23.7308 35.6047 23.7865 35.6762 23.793 35.7348C23.7974 35.7747 23.7674 35.8045 23.7103 35.8146C23.7002 35.8162 23.695 35.8167 23.6849 35.8182C23.6906 35.904 23.6836 35.9903 23.6805 36.0632C23.6751 36.1821 23.6515 36.3291 23.5844 36.4786C23.5403 36.5732 23.4944 36.6302 23.4636 36.631C23.4447 36.6315 23.425 36.6147 23.4154 36.5911C23.4144 36.5831 23.4201 36.5317 23.4346 36.4402C23.4426 36.39 23.4449 36.3472 23.4403 36.3127C23.4258 36.2054 23.3988 36.0473 23.3597 35.8385C23.3446 35.8385 23.3283 35.839 23.3112 35.8403C23.2941 35.8416 23.2786 35.8426 23.2646 35.8434C23.2506 35.8442 23.2371 35.8449 23.2244 35.8457C23.2114 35.8465 23.2018 35.8473 23.1956 35.848C23.1904 35.8488 23.1878 35.8491 23.1829 35.8496C23.0235 35.8706 22.8838 35.9007 22.7633 35.94C22.7568 35.9408 22.7537 35.9413 22.7473 35.9421C22.6812 35.9502 22.6156 35.8996 22.5511 35.79C22.5246 35.748 22.5101 35.7159 22.5073 35.6933C22.5062 35.6853 22.4863 35.5692 22.4469 35.3458C22.3834 34.986 22.317 34.6253 22.2629 34.2635C22.1963 34.228 22.1551 34.1616 22.147 34.0704C22.1437 34.0328 22.1564 34.0087 22.1799 34.0051C22.1955 34.0027 22.2087 34.0027 22.217 34.0038C22.3995 34.0051 22.6013 33.9919 22.8222 33.9634C22.859 33.9587 22.9378 33.933 23.0583 33.8859C23.1117 33.8664 23.1578 33.8537 23.1967 33.8485C23.2189 33.8454 23.2358 33.8444 23.2459 33.8449C23.2742 33.8457 23.3231 33.8796 23.3884 33.9486C23.4449 34.0082 23.481 34.0634 23.4859 34.1049C23.4903 34.1453 23.4613 34.1761 23.4089 34.1847Z" fill="#B58A83"/>
<path d="M25.1662 35.5856C25.1143 35.5955 24.9459 35.6177 24.6696 35.6439C24.6144 35.6491 24.5659 35.6545 24.5255 35.6608C24.4174 35.6779 24.3161 35.7041 24.2217 35.7393C24.2153 35.7403 24.2122 35.7409 24.2059 35.7416C24.1401 35.7517 24.0719 35.703 24.002 35.596C23.9742 35.5548 23.9587 35.5229 23.9553 35.5006C23.9538 35.4905 23.9255 35.3549 23.8726 35.095C23.8019 34.7464 23.7231 34.3921 23.6671 34.0451C23.6645 34.0293 23.6645 34.0197 23.6661 34.0174C23.6723 34.0166 23.6754 34.0161 23.6814 34.015C23.7 34.0143 23.7158 34.0143 23.7283 34.0143C23.6783 33.9598 23.6461 33.9088 23.6412 33.8694C23.636 33.8277 23.6658 33.7955 23.7197 33.7867C23.7716 33.7779 23.9325 33.7618 24.194 33.7385C24.2471 33.7338 24.2938 33.7287 24.3324 33.7224C24.4363 33.7056 24.5333 33.6792 24.6235 33.6434C24.6307 33.6421 24.6343 33.6416 24.6419 33.6403C24.7048 33.6297 24.7704 33.6773 24.8391 33.7836C24.8671 33.8243 24.8832 33.8556 24.8868 33.8779C24.8886 33.888 24.9192 34.0226 24.9788 34.2815C25.0589 34.6298 25.1496 34.9825 25.2157 35.328C25.2188 35.3438 25.219 35.3534 25.2172 35.3557C25.2151 35.356 25.2071 35.356 25.1947 35.3565C25.1758 35.3573 25.1605 35.3594 25.1498 35.3612C25.2048 35.4159 25.2405 35.4656 25.2462 35.5029C25.2525 35.5426 25.2221 35.575 25.1662 35.5856ZM23.9973 34.1073C24.0022 34.1252 24.0072 34.1514 24.0123 34.1856C24.018 34.2219 24.0432 34.4061 24.0875 34.7379C24.1308 35.0616 24.1546 35.2412 24.1603 35.2751C24.1777 35.3809 24.2124 35.4335 24.258 35.4273C24.2746 35.4252 24.4553 35.3822 24.7974 35.2943C24.8264 35.2873 24.8513 35.2811 24.872 35.2756C24.8668 35.2578 24.8614 35.2308 24.8552 35.1945C24.8492 35.1582 24.8217 34.9755 24.7727 34.6464C24.7248 34.3232 24.6984 34.1441 24.6921 34.1104C24.673 34.0029 24.6388 33.9497 24.5968 33.9557C24.5786 33.9583 24.4081 34.0034 24.0846 34.0848C24.051 34.0938 24.0217 34.1013 23.9973 34.1073ZM24.5592 34.4147C24.5613 34.4243 24.5623 34.4424 24.5646 34.4665C24.5688 34.5085 24.5742 34.5445 24.5789 34.5728C24.5861 34.6171 24.5962 34.6661 24.6058 34.7174C24.6113 34.7469 24.6144 34.7697 24.6167 34.784C24.617 34.7861 24.6193 34.791 24.6224 34.7985C24.6268 34.8097 24.6289 34.8182 24.6294 34.8221C24.6382 34.8765 24.6175 34.9385 24.5657 35.0033C24.5239 35.0556 24.4677 35.0932 24.4135 35.0991C24.3998 35.1007 24.3879 35.094 24.3819 35.0826C24.3806 35.0745 24.3832 35.0566 24.3894 35.0287C24.4021 34.9874 24.4068 34.9566 24.4037 34.9364C24.3995 34.9102 24.3853 34.8646 24.3664 34.8029C24.3506 34.7511 24.3412 34.7119 24.3355 34.6899C24.2806 34.6119 24.2528 34.5697 24.2518 34.5637C24.249 34.5456 24.271 34.5235 24.3176 34.4974C24.4249 34.439 24.4882 34.4038 24.5074 34.3924C24.5094 34.3921 24.5112 34.3908 24.5131 34.3882C24.5164 34.3836 24.5193 34.381 24.5214 34.3807C24.5405 34.3794 24.5543 34.3916 24.5592 34.4147Z" fill="#B58A83"/>
<path d="M25.4124 35.2192C25.4222 35.2169 25.4414 35.2156 25.4665 35.2127C25.5103 35.2075 25.5479 35.2011 25.5774 35.1956C25.5938 35.1925 25.6021 35.1912 25.6184 35.1881C25.5559 35.1311 25.5189 35.0829 25.5111 35.0458C25.5095 35.038 25.4782 34.9279 25.4191 34.7169C25.3359 34.4199 25.2532 34.1206 25.1778 33.8207C25.1096 33.7583 25.0664 33.6992 25.0594 33.652C25.0534 33.6123 25.0822 33.5805 25.1361 33.5698C25.3227 33.5328 25.4968 33.5079 25.643 33.4853C25.7749 33.4651 25.9149 33.4392 26.0608 33.4102C26.235 33.3755 26.3487 33.406 26.4029 33.5032C26.4166 33.5297 26.4275 33.5608 26.435 33.5968C26.4392 33.6167 26.4392 33.6323 26.4353 33.6437C26.4553 33.6688 26.4674 33.6914 26.4716 33.7113C26.4744 33.7253 26.4755 33.7354 26.4747 33.7419C26.4687 33.8161 26.4737 33.8922 26.49 33.9703C26.5048 34.0423 26.5317 34.1579 26.5711 34.3162C26.6204 34.5143 26.6566 34.6674 26.6789 34.7755C26.7087 34.9193 26.7111 35.0549 26.7116 35.1565C26.7124 35.2739 26.6997 35.4237 26.6424 35.5769C26.6048 35.674 26.5628 35.7339 26.532 35.7365C26.5133 35.7381 26.4939 35.7222 26.4848 35.6992C26.4832 35.6911 26.4864 35.6406 26.4941 35.5473C26.4972 35.4968 26.4957 35.454 26.4884 35.4203C26.3902 34.9585 26.2744 34.4889 26.1671 34.0231C26.1494 33.9454 26.1404 33.8754 26.1269 33.8376C26.1165 33.8085 26.0779 33.7673 26.0307 33.7225C26.0022 33.7282 25.8739 33.7653 25.6454 33.8313C25.627 33.8347 25.6109 33.8389 25.5969 33.8435C25.5977 33.8477 25.5984 33.8567 25.6013 33.8676C25.6044 33.8785 25.6083 33.8881 25.6093 33.8941C25.6161 33.9301 25.642 34.0843 25.6891 34.3525C25.7353 34.6151 25.7633 34.7644 25.7698 34.7986C25.7716 34.8087 25.7832 34.8356 25.8045 34.8792C25.8553 34.988 25.8859 35.0684 25.8957 35.1207C25.897 35.128 25.8978 35.1316 25.8991 35.1389C25.982 35.1523 26.0481 35.1904 26.0976 35.2537C26.116 35.2814 26.1303 35.3109 26.1334 35.3371C26.1349 35.3503 26.1271 35.3623 26.1134 35.369C26.1049 35.3706 26.087 35.368 26.0592 35.3607C26.0157 35.3503 25.9833 35.3472 25.9623 35.3511C25.9348 35.3563 25.8864 35.3721 25.8195 35.3936C25.7651 35.411 25.7244 35.4216 25.7013 35.4281C25.62 35.4846 25.5762 35.5134 25.5697 35.5144C25.5508 35.5178 25.5274 35.4981 25.5002 35.4553C25.4318 35.341 25.3947 35.2804 25.3893 35.2728C25.3862 35.2671 25.3841 35.2625 25.3833 35.2583C25.3841 35.2379 25.3945 35.2233 25.4124 35.2192Z" fill="#B58A83"/>
<defs>
<linearGradient id="paint0_linear_2057_126" x1="16.2981" y1="5.03013" x2="16.2981" y2="37.6267" gradientUnits="userSpaceOnUse">
<stop offset="2.23767e-07" stop-color="white" stop-opacity="0"/>
<stop offset="0.0731" stop-color="#DFE5E1" stop-opacity="0.0731"/>
<stop offset="0.1953" stop-color="#AFBEB4" stop-opacity="0.1953"/>
<stop offset="0.3212" stop-color="#859D8E" stop-opacity="0.3212"/>
<stop offset="0.4487" stop-color="#63826E" stop-opacity="0.4487"/>
<stop offset="0.5785" stop-color="#496D56" stop-opacity="0.5785"/>
<stop offset="0.7113" stop-color="#375E45" stop-opacity="0.7113"/>
<stop offset="0.8492" stop-color="#2C553A" stop-opacity="0.8492"/>
<stop offset="1" stop-color="#285237"/>
</linearGradient>
<linearGradient id="paint1_linear_2057_126" x1="15.7482" y1="11.1962" x2="15.7482" y2="37.8832" gradientUnits="userSpaceOnUse">
<stop offset="1.11884e-07" stop-color="white" stop-opacity="0"/>
<stop offset="0.0357" stop-color="#F7F7F8" stop-opacity="0.0357"/>
<stop offset="0.385" stop-color="#A9B2B6" stop-opacity="0.385"/>
<stop offset="0.6732" stop-color="#707F85" stop-opacity="0.6732"/>
<stop offset="0.8859" stop-color="#4D5F67" stop-opacity="0.8859"/>
<stop offset="1" stop-color="#40535C"/>
</linearGradient>
<linearGradient id="paint2_linear_2057_126" x1="10.3818" y1="25.319" x2="5.36536" y2="25.319" gradientUnits="userSpaceOnUse">
<stop stop-color="#94AA71"/>
<stop offset="0.1953" stop-color="#869D6A"/>
<stop offset="0.5675" stop-color="#607B57"/>
<stop offset="1" stop-color="#2C4C3E"/>
</linearGradient>
<linearGradient id="paint3_linear_2057_126" x1="21.0775" y1="29.5982" x2="26.8707" y2="29.5982" gradientUnits="userSpaceOnUse">
<stop stop-color="#94AA71"/>
<stop offset="0.219" stop-color="#829A68"/>
<stop offset="0.654" stop-color="#557152"/>
<stop offset="1" stop-color="#2C4C3E"/>
</linearGradient>
<linearGradient id="paint4_linear_2057_126" x1="31.5326" y1="9.73632" x2="31.5326" y2="6.09642" gradientUnits="userSpaceOnUse">
<stop stop-color="white" stop-opacity="0"/>
<stop offset="0.5764" stop-color="white"/>
</linearGradient>
<linearGradient id="paint5_linear_2057_126" x1="26.9405" y1="8.54628" x2="26.9405" y2="14.3829" gradientUnits="userSpaceOnUse">
<stop stop-color="white" stop-opacity="0"/>
<stop offset="0.5764" stop-color="white"/>
</linearGradient>
<linearGradient id="paint6_linear_2057_126" x1="31.0526" y1="13.9824" x2="31.0526" y2="16.7472" gradientUnits="userSpaceOnUse">
<stop stop-color="white" stop-opacity="0"/>
<stop offset="0.5764" stop-color="white"/>
</linearGradient>
<linearGradient id="paint7_linear_2057_126" x1="23.6101" y1="16.867" x2="23.6101" y2="23.728" gradientUnits="userSpaceOnUse">
<stop stop-color="white" stop-opacity="0"/>
<stop offset="0.5764" stop-color="white"/>
</linearGradient>
<linearGradient id="paint8_linear_2057_126" x1="30.9797" y1="26.4533" x2="24.3662" y2="33.0668" gradientUnits="userSpaceOnUse">
<stop offset="0.3156" stop-color="#F9D3C0"/>
<stop offset="0.4679" stop-color="#EFC9B7"/>
<stop offset="0.7294" stop-color="#D6ADA0"/>
<stop offset="1" stop-color="#B58A83"/>
</linearGradient>
<linearGradient id="paint9_linear_2057_126" x1="2.63879" y1="32.5386" x2="7.96348" y2="27.2139" gradientUnits="userSpaceOnUse">
<stop offset="0.3156" stop-color="#F9D3C0"/>
<stop offset="0.4679" stop-color="#EFC9B7"/>
<stop offset="0.7294" stop-color="#D6ADA0"/>
<stop offset="1" stop-color="#B58A83"/>
</linearGradient>
<linearGradient id="paint10_linear_2057_126" x1="24.5164" y1="30.2193" x2="24.5164" y2="32.956" gradientUnits="userSpaceOnUse">
<stop stop-color="#EAC3AD"/>
<stop offset="0.2417" stop-color="#E5BDA9"/>
<stop offset="0.5514" stop-color="#D6AD9D"/>
<stop offset="0.8968" stop-color="#BE938A"/>
<stop offset="1" stop-color="#B58A83"/>
</linearGradient>
<linearGradient id="paint11_linear_2057_126" x1="8.50181" y1="29.8867" x2="8.50181" y2="31.8753" gradientUnits="userSpaceOnUse">
<stop stop-color="#EAC3AD"/>
<stop offset="0.2417" stop-color="#E5BDA9"/>
<stop offset="0.5514" stop-color="#D6AD9D"/>
<stop offset="0.8968" stop-color="#BE938A"/>
<stop offset="1" stop-color="#B58A83"/>
</linearGradient>
</defs>
</svg>
